<?xml version="1.0" encoding="utf-8"?>
<svg version="1.1" id="Layer_1" xmlns="http://www.w3.org/2000/svg" xmlns:xlink="http://www.w3.org/1999/xlink" x="0px" y="0px"
     viewBox="0 0 486.1 67.4" style="enable-background:new 0 0 486.1 67.4;" xml:space="preserve">
<g>
	<path d="M52.5,46.6c0,4.6-1.3,8.4-3.9,11.4c-2.6,3-5.9,5.4-9.8,7c-3.9,1.6-8.1,2.4-12.7,2.4c-4.6,0-8.8-0.8-12.7-2.3
		c-3.9-1.5-7.1-3.9-9.7-7.1C1.2,54.8-0.1,50.8,0,46.1h16c0,1.4,0.5,2.5,1.5,3.5c1,0.9,2.3,1.6,3.8,2.1c1.5,0.4,3.1,0.7,4.9,0.7
		c1.8,0,3.4-0.1,4.9-0.6c1.5-0.4,2.8-1.1,3.8-1.9c1-0.9,1.5-1.9,1.5-3.2c0-2.3-1.2-3.8-3.5-4.5c-2.4-0.7-5.2-1.1-8.4-1.3
		c-3.5-0.3-6.7-0.8-9.6-1.5c-2.9-0.8-5.3-1.9-7.4-3.5s-3.6-3.5-4.8-5.9C1.6,27.5,1,24.5,0.9,21c-0.1-3.5,0.6-6.6,2-9.2
		C4.3,9.2,6.2,7,8.5,5.2c2.3-1.8,5-3.1,8-3.9c3-0.9,6.1-1.3,9.2-1.3c3.1,0,6.2,0.4,9.1,1.3c3,0.9,5.6,2.2,8,3.9
		c2.4,1.8,4.2,3.9,5.7,6.6c1.4,2.6,2.1,5.7,2,9.2H34.6c0-2.1-0.9-3.7-2.8-4.8c-1.8-1-3.9-1.5-6.1-1.5c-2.2,0-4.2,0.5-6.2,1.6
		c-1.9,1.1-2.9,2.6-3,4.4c-0.2,2.5,0.8,4.1,2.8,5c2.1,0.8,4.6,1.4,7.6,1.7c3.2,0.3,6.3,0.8,9.4,1.3c3.1,0.5,5.8,1.4,8.2,2.7
		c2.4,1.3,4.3,3.1,5.7,5.5C51.8,39.4,52.5,42.6,52.5,46.6z"/>
    <path d="M74.3,66.2V16.5H58.5V1.8h47.6v14.7H90.4v49.7H74.3z"/>
    <path d="M139.5,1.8c4.5,0,8.6,0.8,12.6,2.5c3.9,1.7,7.3,4,10.2,6.9c2.9,2.9,5.2,6.3,6.9,10.2c1.7,3.9,2.5,8.1,2.5,12.6
		c0,4.5-0.8,8.6-2.5,12.6c-1.7,3.9-4,7.3-6.9,10.2c-2.9,2.9-6.3,5.2-10.2,6.9c-3.9,1.7-8.1,2.5-12.6,2.5c-4.5,0-8.6-0.8-12.6-2.5
		c-3.9-1.7-7.3-4-10.2-6.9c-2.9-2.9-5.2-6.3-6.9-10.2c-1.7-3.9-2.5-8.1-2.5-12.6c0-4.5,0.8-8.6,2.5-12.6c1.7-3.9,4-7.3,6.9-10.2
		c2.9-2.9,6.3-5.2,10.2-6.9C130.8,2.6,135,1.8,139.5,1.8z M139.5,50.1c2.2,0,4.3-0.4,6.2-1.3c1.9-0.9,3.6-2,5.1-3.5
		c1.5-1.5,2.6-3.2,3.5-5.1c0.9-1.9,1.3-4,1.3-6.2c0-2.2-0.4-4.3-1.3-6.2c-0.9-1.9-2-3.6-3.5-5.1c-1.5-1.5-3.2-2.6-5.1-3.5
		c-1.9-0.9-4-1.3-6.2-1.3c-2.2,0-4.3,0.4-6.2,1.3c-1.9,0.9-3.6,2-5.1,3.5c-1.5,1.5-2.6,3.2-3.5,5.1c-0.9,1.9-1.3,4-1.3,6.2
		c0,2.2,0.4,4.3,1.3,6.2c0.9,1.9,2,3.6,3.5,5.1c1.5,1.5,3.2,2.6,5.1,3.5C135.2,49.7,137.2,50.1,139.5,50.1z"/>
    <path d="M209.9,66.2c-4,0-8-0.7-11.8-2c-3.8-1.3-7.3-3.3-10.3-6c-3-2.7-5.5-6-7.4-10c-1.9-4-2.8-8.8-2.8-14.2c0-5.3,0.9-10,2.8-14
		c1.9-4,4.4-7.4,7.4-10.1c3-2.7,6.5-4.7,10.3-6.1c3.8-1.3,7.7-2,11.8-2c3.3,0,6.5,0.5,9.8,1.4c3.3,0.9,6.3,2.3,9,4.2
		c2.7,1.9,5.1,4.4,7,7.5c1.9,3,3.2,6.7,3.8,10.9h-15.8c-1.2-3.3-3-5.6-5.3-7.1c-2.3-1.5-5.2-2.2-8.5-2.2c-4.7,0-8.5,1.6-11.4,4.8
		c-2.9,3.2-4.3,7.4-4.3,12.7c0,2.3,0.4,4.5,1.1,6.6c0.7,2.1,1.8,4,3.2,5.5c1.4,1.6,3,2.9,5,3.9c1.9,1,4.1,1.5,6.5,1.5
		c3.4,0,6.4-0.8,9-2.5c2.5-1.7,4.2-4.2,5.1-7.7h15.8c-0.6,4.5-1.9,8.3-3.8,11.4c-1.9,3.1-4.3,5.7-7,7.7c-2.7,2-5.8,3.5-9.1,4.4
		C216.6,65.7,213.3,66.2,209.9,66.2z"/>
    <path d="M301.2,66.2h-18.3l-14.2-25c-1.1,0.2-2.2,0.3-3.2,0.3c-1,0-2.1,0.1-3.1,0.1v24.6h-16.7V1.8h16.7v24.3h1.2
		c4.1,0,7.3-0.7,9.4-2.1c2.1-1.4,3.7-3.3,4.6-5.5c0.9-2.3,1.5-4.9,1.5-7.8c0.1-2.9,0.1-5.9,0.1-8.9h16.9c0,3.3,0,6.5-0.1,9.6
		c-0.1,3.1-0.5,6.1-1.3,9c-0.8,2.8-2,5.5-3.7,8c-1.7,2.5-4.1,4.8-7.3,6.9L301.2,66.2z"/>
    <path d="M332.2,1.8c4.5,0,8.6,0.8,12.6,2.5c3.9,1.7,7.3,4,10.2,6.9c2.9,2.9,5.2,6.3,6.9,10.2c1.7,3.9,2.5,8.1,2.5,12.6
		c0,4.5-0.8,8.6-2.5,12.6c-1.7,3.9-4,7.3-6.9,10.2c-2.9,2.9-6.3,5.2-10.2,6.9c-3.9,1.7-8.1,2.5-12.6,2.5c-4.5,0-8.6-0.8-12.6-2.5
		c-3.9-1.7-7.3-4-10.2-6.9c-2.9-2.9-5.2-6.3-6.9-10.2c-1.7-3.9-2.5-8.1-2.5-12.6c0-4.5,0.8-8.6,2.5-12.6c1.7-3.9,4-7.3,6.9-10.2
		c2.9-2.9,6.3-5.2,10.2-6.9C323.6,2.6,327.8,1.8,332.2,1.8z M332.2,50.1c2.2,0,4.3-0.4,6.2-1.3c1.9-0.9,3.6-2,5.1-3.5
		c1.5-1.5,2.6-3.2,3.5-5.1c0.9-1.9,1.3-4,1.3-6.2c0-2.2-0.4-4.3-1.3-6.2c-0.9-1.9-2-3.6-3.5-5.1c-1.5-1.5-3.2-2.6-5.1-3.5
		c-1.9-0.9-4-1.3-6.2-1.3c-2.2,0-4.3,0.4-6.2,1.3c-1.9,0.9-3.6,2-5.1,3.5c-1.5,1.5-2.6,3.2-3.5,5.1c-0.9,1.9-1.3,4-1.3,6.2
		c0,2.2,0.4,4.3,1.3,6.2c0.9,1.9,2,3.6,3.5,5.1c1.5,1.5,3.2,2.6,5.1,3.5C327.9,49.7,330,50.1,332.2,50.1z"/>
    <path d="M370.4,1.8h28.3c4.2,0,7.9,0.9,11,2.7c3.1,1.8,5.7,4.1,7.6,7s3.3,6,4,9.5c0.7,3.5,0.8,7,0.1,10.4c-0.7,3.4-2.1,6.6-4.2,9.5
		c-2.1,3-5.1,5.3-8.8,7l12.5,18.3h-16.5l-11.2-16.5h-6.3v16.5h-16.5V49.7V34.9H383l-12.6-18.5V2.2V1.9V1.8z M398.7,16.5H387
		l12.5,18.4c1.6-0.3,3-1.1,4.1-2.6c0.9-1.3,1.5-2.8,1.8-4.6c0.3-1.8,0.2-3.5-0.2-5.2c-0.4-1.7-1.1-3.1-2.2-4.3
		C401.9,17.1,400.5,16.5,398.7,16.5z"/>
    <path d="M446.5,59.6l-3,6.6h-15.7l29.1-64.4l29.2,64.4h-15.7l-3-6.6H446.5z M456.9,36.4l-4.8,10.7h9.7L456.9,36.4z"/>
</g>
</svg>
