<svg height="64" viewBox="0 0 64 64" width="64" xmlns="http://www.w3.org/2000/svg"><g fill="none" fill-rule="evenodd" transform="translate(4 7)"><path d="m54.4045549 11.3692349c-.1654184-.3392013-.4064421-.6491376-.7658635-.8469765-.3956172-.2164933-.8279377-.2531175-1.2328576-.1810671l-.0287537-.0154027c-6.0868219 1.0509765-12.2282759 5.6847886-15.9329377 12.7873087-3.9911839 7.6534228-4.0488605 16.0571275-.7976617 21.8079765 6.5313205-.5310503 13.3505163-5.3212852 17.3417003-12.974708 3.7197151-7.125453 4.0185846-14.8954228 1.4163739-20.5771309" fill="#828d8c"/><g fill="#121716"><path d="m52.3649021 11.1251879c-5.9973472 1.094104-11.8233561 5.815198-15.2338843 12.3546644-3.6106202 6.9231645-4.0048843 14.9447115-1.0508635 20.6094766 6.2886053-.7302584 12.6120534-5.5865537 16.2211513-12.509547 3.4512908-6.6115168 3.9867864-14.2281443 1.3981069-19.8807584-.1092641-.2224832-.2532018-.3881477-.4321514-.4863826-.2063501-.1150067-.4732522-.145812-.726454-.0980637-.0605519.0090705-.121273.0167718-.175905.0106107zm-16.7184214 34.5814228c-.2773887 0-.5353264-.1502617-.6733442-.395849-3.5240208-6.2326107-3.2239674-14.878651.7841306-22.5642483 3.7136261-7.1210033 9.8777448-12.0539698 16.4894065-13.19547984.0622433-.01232215.127362-.01386242.1911276-.00770135.5473353-.0660604 1.0978843.03063423 1.5694451.28837249.4669941.256198.8340267.6566678 1.0933175 1.1906275 2.7962136 6.1037416 2.2473561 14.2558691-1.4255074 21.2909597-4.0077597 7.683886-10.8922433 12.8162316-17.9663324 13.3902383-.0213115.0015403-.0411009.0030805-.0622433.0030805z"/><path d="m51.5552315 14.7034027c1.695454.9251879 3.2011335 2.0437651 4.4673115 3.2681074-.1787804-2.375094-.7097092-4.6199497-1.6179881-6.6022752-.1654184-.3392013-.4064421-.6491376-.7658635-.8469765-.3956172-.2164933-.8279377-.2531175-1.2328576-.1810671l-.0287537-.0154027c-2.0986825.3636745-4.197365 1.1800168-6.2082641 2.346 1.7818843.3960201 3.6136647 1.0648389 5.3864155 2.0316141"/><path d="m42.0367389 16.434151c-1.6195104 1.6111208-3.1647686 3.4337718-4.5857092 5.4653859 2.9995193-.2087919 6.3129614.5262584 9.3153561 2.3074933 2.9858189 1.7677148 5.2286083 4.3209664 6.5144065 7.0551141 1.0479881-2.2770302 1.8441276-4.5600503 2.4203857-6.7972047-1.5604807-2.0514664-3.5774688-3.8727483-6.0081721-5.314953-2.4748486-1.4699296-5.0799347-2.3538725-7.656267-2.7158356"/><path d="m34.3013145 26.0822215c-1.0249851 2.0067986-1.8879347 4.0139396-2.5898635 6.0024262 2.7946914-.0676007 5.7411009.6611174 8.3872879 2.2982516 2.6749406 1.6450067 3.869911 4.1476007 5.0890682 6.722245 2.4095609-1.1769362 3.5877864-3.4293222 4.8705401-5.2891107-1.5420445-2.7172047-3.7635223-5.1215638-6.662911-6.9075906-2.8919466-1.7860269-6.0110475-2.6773289-9.0941217-2.8262215"/></g><path d="m12.299822 4.10241946c2.5399673 2.56848322 3.2207537 6.04692284 1.5193798 7.76688924-1.6998517 1.7199665-5.1376113 1.0326645-7.6760564-1.537359-2.5384451-2.56848326-3.21940059-6.04692285-1.51954896-7.7668893 1.70002077-1.71996644 5.13761128-1.03112416 7.67622556 1.53735906" fill="#828d8c"/><path d="m10.616546 5.80715436c1.2753116 1.28578188 1.6815846 2.96587249.9128457 3.74233893-.7733056.78091611-2.43087241.36966443-3.70449259-.91919799-1.27226706-1.28886241-1.6787092-2.96433221-.90844807-3.74387919.77195252-.78091611 2.42630564-.36812416 3.70009496.92073825" fill="#121716"/><path d="m7.10757864 2.40401678c-.5596825 0-1.34973294.12424832-1.93495549.71639597-1.37087538 1.38709732-.67486647 4.43597316 1.51937982 6.65618457 1.39506231 1.41157048 3.12992581 2.25392618 4.64186353 2.25392618.5595133 0 1.351086-.1242483 1.9364777-.7165671.6337656-.6412651.8536469-1.65561747.6187122-2.85702687-.2579377-1.31641611-1.017543-2.66517785-2.1382611-3.79915772-1.3950624-1.41157047-3.12992586-2.25375503-4.64321666-2.25375503zm4.22628786 11.19758052c-1.91533534 0-4.06103861-1.0141812-5.73974781-2.7142953-2.88568842-2.91983556-3.55294362-6.82013757-1.51937982-8.87776509.76129674-.77030537 1.80911573-1.1767651 3.03283977-1.1767651 1.91516617 0 4.06086946 1.01418121 5.74110086 2.7142953 1.3360327 1.35013088 2.2458339 2.98589598 2.5628012 4.60454698.3396321 1.73228859-.0317982 3.24979531-1.0432522 4.27321811-.7612967.7703054-1.810638 1.1767651-3.034362 1.1767651z" fill="#121716"/><path d="m35.6464807 4.10241946c-2.5399673 2.56848322-3.2209228 6.04692284-1.5193798 7.76688924 1.6998516 1.7199665 5.1376113 1.0326645 7.6760564-1.537359 2.5384451-2.56848326 3.2192314-6.04692285 1.5193798-7.7668893-1.6998516-1.71996644-5.1376113-1.03112416-7.6760564 1.53735906" fill="#828d8c"/><path d="m37.3297567 5.80715436c-1.2753116 1.28578188-1.6817537 2.96587249-.9130149 3.74233893.7733057.78091611 2.4308724.36966443 3.7046618-.91919799 1.272267-1.28886241 1.6787092-2.96433221.908448-3.74387919-.7719525-.78091611-2.4263056-.36812416-3.7000949.92073825" fill="#121716"/><path d="m36.1955074 4.65777181c-1.1207181 1.13397987-1.8804926 2.48274161-2.1382611 3.79915772-.2351039 1.2014094-.0152226 2.21576177.6187122 2.85702687.5853916.5923188 1.3769643.7165671 1.9364777.7165671 1.5119377 0 3.246632-.8423557 4.6418635-2.25392618 2.1940772-2.22021141 2.8902552-5.26908725 1.5193798-6.65618457-.5853917-.59214765-1.3754421-.71639597-1.9349555-.71639597-1.5134599 0-3.2481543.84218456-4.6432166 2.25375503zm-2.6174332 7.76706039c-1.011454-1.0234228-1.3830534-2.54092952-1.0432522-4.27321811.3169673-1.618651 1.2267685-3.2544161 2.562632-4.60454698 1.6802315-1.70011409 3.8259347-2.7142953 5.74127-2.7142953 1.2237241 0 2.2715431.40645973 3.0326707 1.1767651 2.0337329 2.05762752 1.3663086 5.95792953-1.5193799 8.87776509-1.6787092 1.7001141-3.8242433 2.7142953-5.7395786 2.7142953-1.223724 0-2.2730653-.4064597-3.034362-1.1767651z" fill="#121716"/><path d="m41.117635 10.4900839c-4.003362-5.58672484-10.169003-9.65731209-17.1444837-9.65731209s-13.1412908 4.07058725-17.14465278 9.65731209c-4.8707092 6.793953-7.69263205 16.4252517-4.79493472 24.5725872 2.45370623 6.9016007 8.3448338 12.1460437 15.2717715 14.1437719 2.1654926.6260335 4.4158932.93751 6.667816.93751 2.2517537 0 4.5021543-.3114765 6.6676469-.93751 6.9269377-1.9977282 12.8182344-7.2421712 15.2719407-14.1437719 2.8978664-8.1473355.0757745-17.7786342-4.7951039-24.5725872" fill="#828d8c"/><path d="m42.7719881 13.581745c-.2773887-1.1154967-.9825311-2.1741745-1.6391305-3.0916611-.8370712-1.16923491-1.7741039-2.2648792-2.7886024-3.27752014-3.6197537-1.75830202-7.7565668-1.75522148-10.9106795.39738926-1.6438665 1.12319799-2.7962137 2.69136238-3.4604244 4.47875838-.6642106-1.787396-1.816727-3.35556039-3.4604243-4.47875838-3.1542819-2.15261074-7.291095-2.15569128-10.91067952-.39738926-1.01449852 1.01264094-1.9517003 2.10828523-2.78860238 3.27752014-.65676854.9174866-1.36191098 1.9761644-1.6392997 3.0916611-.2897359 1.1615335-.70666469 2.7204563-.65203264 3.8956812.08947478 1.9118154 1.25856677 3.3204765 2.80230267 4.3315772.37751929.2484966 4.41589317 3.3755838 4.03972697 3.5980671.2851692-.1689161.6445905-.3744564 1.0447745-.587698v.3575134c1.4649169-.8639195 3.5938754-1.9225973 5.0193828-1.7569329l.0180979.0030806c.0411009.0046208.0744214.023104.1138309.0308053.3927418.1042249.7369406.2976141 1.0007982.622953.6095786.7502819.6642107 1.6171108.4519407 2.4594665.1576379-.116547.2987003-.2638993.4519406-.3881477-.0167448.5799967-.1471513 1.0203423-.1471513 1.0203423l-.2653798.3773658c1.563356.2993255 3.2057003.4634497 4.9055519.4634497h.0091335.0152226c1.7057715 0 3.3481157-.1641242 4.9116409-.4634497l-.2653798-.3773658s-.1304065-.4403456-.1471513-1.0203423c.1530712.1242484.2941335.2716007.4519406.3881477-.21227-.8423557-.1578071-1.7091846.4519407-2.4594665.2636884-.3253389.6080563-.5187281 1.0007982-.622953.0394095-.0077013.0728991-.0261845.1138308-.0308053l.018098-.0030806c1.4253382-.1656644 3.5544658.8930134 5.0193828 1.7569329v-.3575134c.4001839.2132416.7596053.4187819 1.0447744.587698-.3761661-.2224833 3.6620386-3.3495705 4.0395579-3.5980671 1.5437359-1.0111007 2.712997-2.4197618 2.8024718-4.3315772.0546321-1.1752249-.3624659-2.7341477-.6522018-3.8956812" fill="#ededea"/><path d="m23.9731513 31.2114866c-5.8791187 0-10.6422552 5.9349966-10.6422552 13.2569194 0 1.4622282.1972167 2.863188.5475045 4.1780638.6428991.1947584 1.2798783.4049195 1.9395222.5599732 2.6490624.6260335 5.4014689.93751 8.1552285.93751 2.7537597 0 5.5061662-.3114765 8.1553977-.93751.6594747-.1550537 1.296454-.3652148 1.9393531-.5599732.3502878-1.3148758.5475044-2.7158356.5475044-4.1780638 0-7.3219228-4.7631365-13.2569194-10.6422552-13.2569194" fill="#ededea"/><path d="m25.1740415 19.1958523c-.2621661.0860839-.5366795.1290403-.8111928.1519732.0213115-.0475772.0605519-.0843725.0605519-.1381107v-1.064839c.0487122-.0383355.101822-.064349.1441068-.1165469l.8248932-1.0095604c.3261009-.3989296.1730297-.7258088-.3396321-.7258088h-2.1592344c-.5126617 0-.6657329.3268792-.3398012.7258088l.8248932 1.0095604c.0728991.0905335.1608516.1533422.2503264.2024597v.9789262c0 .0537382.0378873.0905335.0576766.1381107-.2746825-.0246443-.5475045-.0676007-.8083175-.1519732-.3367567-.1088456-1.0327656-.5170167-1.1283294.1167182v.1150067c0 1.26901 1.0131454 2.2970537 2.2732344 2.3001342h.0059199c1.2602582-.0030805 2.2730653-1.0311242 2.2730653-2.3001342 0-.0383356 0-.0766712 0-.1150067-.0953947-.6337349-.7914036-.2255638-1.1281603-.1167182" fill="#121716"/><path d="m23.9731513 1.61830872c-6.2461513 0-12.2663323 3.40176846-16.51528483 9.33351338-5.34988131 7.4615739-7.19231751 16.8211007-4.6932819 23.8454094 2.29572997 6.4597148 7.94904743 11.6920068 14.75318993 13.6544799 4.167089 1.2027785 8.7451869 1.2027785 12.9092314 0 6.8056647-1.9624731 12.4588131-7.1947651 14.7545431-13.6544799 2.4992047-7.0243087.6567685-16.3838355-4.6915905-23.8454094-4.250644-5.93174492-10.2706558-9.33351338-16.5168072-9.33351338zm0 49.31118118c-2.3444421 0-4.6599614-.3251678-6.8816083-.9681443-7.38632045-2.1296778-13.28827297-7.5995134-15.78883083-14.6330637-3.23749852-9.1019598.40796439-19.0368624 4.89810979-25.3001074 4.54460834-6.34316779 11.02281894-9.9809396 17.77232934-9.9809396s13.2277211 3.63777181 17.7738517 9.9809396c4.4886231 6.263245 8.134086 16.1981476 4.8965875 25.3001074-2.5005579 7.0335503-8.4025104 12.5033859-15.7903531 14.6330637-2.2201246.6429765-4.5358131.9681443-6.8800861.9681443z" fill="#121716"/><path d="m17.7346113 10.0971443c-.6550772-.35751343-1.3859288-.53858054-2.1731039-.53858054-2.1957685 0-4.3824035 1.86594964-5.4545786 3.12092614-1.80285758 2.1098255-3.470911 6.3537786-.0226647 7.8098457 1.2465579.5264295 2.6203086.6859329 3.960908.710406 1.7120297.0337148 3.5422878-.0059899 4.893543-1.2274228 1.3707063-1.239745 1.5921098-3.2650269 1.4647478-5.0235-.1652493-2.2831913-1.1131068-4.0077785-2.6688516-4.8516745" fill="#121716"/><path d="m17.8164748 13.7643523c-.0243561-.3006946-.3502879-.6321946-.5414155-.8040201-.4260623-.3759966-.9705222-.5846174-1.5361246-.5846174-.1787804 0-.3622967.0198523-.5488575.0598993-.7217181.1533423-1.3284214.5936879-1.6634867 1.2089396-.127362.2332651-.3441988.698255-.2882136.9636946.0470207.220943.2533709.372745.4641186.4110806.2804333.0521979.3896974-.081292.5231484-.3113054.0257092-.0446678.0529407-.0907047.0833858-.139651.406273-.6368155.9796558-.9866275 1.6149436-.9866275.3563768 0 .5732136.1042248.89627.3207181.2122701.1427315.4443294.4295637.7323739.2760503.2077033-.1119262.2760356-.2577382.2638576-.4141611" fill="#fffffe"/><path d="m30.2116914 10.0971443c.6550771-.35751343 1.3859288-.53858054 2.1729347-.53858054 2.1959377 0 4.3824036 1.86594964 5.4545786 3.12092614 1.8030268 2.1098255 3.4710802 6.3537786.0228339 7.8098457-1.2465579.5264295-2.6204778.6859329-3.960908.710406-1.7120297.0337148-3.5422879-.0059899-4.8935431-1.2274228-1.3708753-1.239745-1.5922789-3.2650269-1.4649169-5.0235.1654184-2.2831913 1.1131068-4.0077785 2.6690208-4.8516745" fill="#121716"/><path d="m30.1296588 13.7643523c.024356-.3006946.3504569-.6321946.5414154-.8040201.4262314-.3759966.9705222-.5846174 1.5361246-.5846174.1789496 0 .3624659.0198523.5490267.0598993.7217181.1533423 1.3284214.5936879 1.6634867 1.2089396.127362.2332651.3441988.698255.2882136.9636946-.0471899.220943-.2532018.372745-.4642878.4110806-.2804333.0521979-.3895282-.081292-.5229792-.3113054-.0258784-.0446678-.0531098-.0907047-.0833858-.139651-.4064421-.6368155-.9794866-.9866275-1.6149436-.9866275-.356546 0-.5732137.1042248-.8962701.3207181-.21227.1427315-.4443293.4295637-.7323738.2760503-.2078724-.1119262-.2760356-.2577382-.2640267-.4141611" fill="#fffffe"/><path d="m8.56336202 28.0691678c-.20618101 0-.41253116-.0828322-.56560238-.2469564-.29430267-.3160973-.27908011-.8132617.03332048-1.111047.1774273-.1687449 1.76970623-1.6693087 2.89938868-2.2202114.3836084-.1855168.8492493-.0244731 1.035641.3667551.1865608.3896879.0243561.8592986-.3624659 1.0478959-.7733056.3775369-2.07280414 1.53599-2.50799998 1.9503222-.15019585.1427315-.34132345.2132416-.5322819.2132416" fill="#121716"/><path d="m17.8393086 23.0824631c-2.1428279-1.304094-5.480457.512396-6.6358487 1.2258825-.9524243-.4725201-1.79237088-1.1630738-2.56127889-1.8948724-.926546-.8806913-1.50889318-1.4346745-2.1274362-2.5915873-.14562908-.2147819-.37312166-.3742852-.65067953-.3742852-.90827893 0-.89305638.9727651-.5322819 1.5466006 1.11310683 1.7675437 2.38385163 2.9123054 4.10197033 4.0813692.48373887.3284194.99470919.6321946 1.53916909.850057.236457.0951544.5109704.0706812.7247627-.0735906.9463353-.6368154 3.9473768-2.2662483 5.3439614-1.4223523.6792641.4126208 1.04173.9804664 1.0765727 1.6877919.0622433 1.275-.9476884 2.8246812-2.7021721 4.1472584-1.8015045 1.3580034-4.9814956 1.7399899-7.73068845.931349-1.95778932-.5753758-4.56439763-1.9900269-5.86863205-5.4530638-.15154896-.4081711-.60501187-.6106308-1.00079822-.454208-.40187537.1535134-.60196736.6077215-.44889614 1.0128121 1.19497033 3.1746644 3.63954303 5.4484429 6.88465282 6.4028959 1.11293769.3282484 2.27610979.4877517 3.41340354.4877517 2.1653235 0 4.2352522-.5782852 5.6788576-1.6662282 2.2033798-1.6617785 3.4150949-3.6608758 3.3240979-5.4867785-.0607211-1.227594-.7097092-2.2770302-1.8287359-2.956802" fill="#121716"/><path d="m39.3829407 28.0691678c.206181 0 .4125311-.0828322.5656023-.2469564.2941336-.3160973.278911-.8132617-.0333204-1.111047-.1774273-.1687449-1.7697063-1.6693087-2.8993888-2.2202114-.3836083-.1855168-.8490801-.0244731-1.0358101.3667551-.1863917.3896879-.0241869.8592986.3624659 1.0478959.7734748.3775369 2.0729733 1.53599 2.5081692 1.9503222.1500267.1427315.3411543.2132416.5322819.2132416" fill="#121716"/><path d="m30.1069941 23.0824631c2.1426587-1.304094 5.4804569.512396 6.6358486 1.2258825.9524244-.4725201 1.7925401-1.1630738 2.5611098-1.8948724.9267152-.8806913 1.5088932-1.4346745 2.1277745-2.5915873.1454599-.2147819.3729525-.3742852.6503412-.3742852.908279 0 .8933947.9727651.5324511 1.5466006-1.1131068 1.7675437-2.3838516 2.9123054-4.1019703 4.0813692-.4839081.3284194-.9947092.6321946-1.5391692.850057-.2366261.0951544-.5109703.0706812-.7249317-.0735906-.9461662-.6368154-3.9472077-2.2662483-5.3437923-1.4223523-.6792641.4126208-1.04173.9804664-1.0767419 1.6877919-.0620741 1.275.9478576 2.8246812 2.7023413 4.1472584 1.8015044 1.3580034 4.9814955 1.7399899 7.7306884.931349 1.9577893-.5753758 4.5643976-1.9900269 5.8684629-5.4530638.151549-.4081711.6050119-.6106308 1.0009674-.454208.4017062.1535134.6019673.6077215.448727 1.0128121-1.1948012 3.1746644-3.6392048 5.4484429-6.8844837 6.4028959-1.1131068.3282484-2.2761098.4877517-3.4134036.4877517-2.1654925 0-4.2354213-.5782852-5.6790267-1.6662282-2.2033798-1.6617785-3.4149258-3.6608758-3.3239287-5.4867785.0605519-1.227594.70954-2.2770302 1.8287359-2.956802" fill="#121716"/><path d="m12.3436291 39.0827718c2.5447032 2.5746443 3.1087834 6.1834933 1.2556914 8.0569732-1.853092 1.8750201-5.41973593 1.3087147-7.96427005-1.2674698-2.54453413-2.5777249-3.10861425-6.1834933-1.25247775-8.0585135 1.85004748-1.8763892 5.41669139-1.3071745 7.9610564 1.2690101" fill="#828d8c"/><path d="m11.4869377 42.0686678c1.3981068 1.4177315 1.6286439 3.4828892.5111395 4.6151577-1.1191959 1.1326107-3.16341548.9024262-4.56304456-.5153054-1.40115133-1.4192718-1.63151929-3.4861409-.51249258-4.6185805 1.11902671-1.1322685 3.16324634-.8991745 4.56439764.5187282" fill="#ededea"/><path d="m7.2334184 37.4930436c-.94176855 0-1.73638576.3024061-2.30198813.8762416-.71715134.7242685-1.00384273 1.8212819-.80510386 3.0885806.21074777 1.3580033.94159941 2.7281577 2.05775074 3.859057 2.1411365 2.1695537 5.38167955 2.7724832 6.86638575 1.2672987.7156291-.7242685 1.0007982-1.8197416.8035816-3.0872114-.21227-1.3593725-.9431217-2.7295269-2.059273-3.8587148-1.3268991-1.3426007-3.03131749-2.1452517-4.5613531-2.1452517zm3.5120119 11.5384933c-1.96218698 0-4.02450448-.9498322-5.65923742-2.6039094-1.34668843-1.362453-2.23213353-3.0425436-2.49446884-4.7257147-.27755787-1.7767853.163727-3.3555605 1.24199109-4.4435034.86125816-.8745302 2.03643917-1.3364396 3.39970327-1.3364396 1.96066469 0 4.0246736.9496611 5.6592374 2.6052785 1.3466884 1.3626242 2.2321335 3.0396343 2.4944688 4.7243457.2775579 1.7769563-.1622047 3.3555604-1.2389466 4.4436745-.8643026.874359-2.0410059 1.3362684-3.4027477 1.3362684z" fill="#121716"/><path d="m35.6025045 39.0827718c-2.5445342 2.5746443-3.1086143 6.1834933-1.2555223 8.0569732 1.853092 1.8750201 5.4195668 1.3087147 7.96427-1.2674698 2.5445342-2.5777249 3.1086143-6.1834933 1.2524778-8.0585135-1.8500475-1.8763892-5.4166914-1.3071745-7.9612255 1.2690101" fill="#828d8c"/><path d="m36.4591958 42.0686678c-1.3979376 1.4177315-1.6286439 3.4828892-.5108011 4.6151577 1.1190267 1.1326107 3.1630771.9024262 4.5627062-.5153054 1.4011513-1.4192718 1.6316884-3.4861409.5124926-4.6185805-1.1190267-1.1322685-3.1632463-.8991745-4.5643977.5187282" fill="#ededea"/><path d="m36.1515312 39.6382953c-1.1161514 1.1291879-1.847003 2.4993423-2.0594422 3.8587148-.1970475 1.2674698.0881217 2.3629429.8037508 3.0872114 1.4845371 1.5051845 4.7250801.902255 6.8663857-1.2672987 1.1159822-1.1308993 1.847003-2.5010537 2.0577508-3.859057.1985697-1.2672987-.0879526-2.3643121-.805273-3.0885806-.5656024-.5738355-1.3602196-.8762416-2.301819-.8762416-1.5300356 0-3.234454.802651-4.5613531 2.1452517zm-2.3535757 8.0569732c-1.0765727-1.0881141-1.5163353-2.6667182-1.2387775-4.4436745.2621662-1.6847114 1.1479496-3.3617215 2.4944689-4.7243457 1.6347329-1.6556174 3.6985727-2.6052785 5.6592374-2.6052785 1.3630949 0 2.5384451.4619094 3.3997032 1.3364396 1.0782641 1.0879429 1.519549 2.6667181 1.2419911 4.4435034-.2623353 1.6831711-1.1479495 3.3632617-2.4944688 4.7257147-1.6347329 1.6540772-3.6972196 2.6039094-5.6592374 2.6039094-1.3617418 0-2.5386142-.4619094-3.4029169-1.3362684z" fill="#121716"/><path d="m28.8453828 1.73793624c.036365-.11654698.0742522-.23001342.1075727-.35289262-1.6134214-.35734228-3.276908-.55227181-4.9798042-.55227181-1.7030652 0-3.3663828.19492953-4.9799733.55227181.0334897.1228792.0713769.23634564.1077419.35289262l-.847727.15043289.1182285.36521476.0378872.28529195c.2472819-.08745302.5096172-.14427181.7902196-.14427181.4502492 0 .9263768.18739933 1.2979763.43589597 1.3981068.95120134 2.4217388 2.23390268 3.113181 3.6870604.0772967.11192618.1896053.20091947.3487655.20091947.1759051 0 .3017448-.10422484.3776885-.23309396h.0120089c.6931335-1.43929531 1.7106765-2.7096745 3.0996498-3.65488591.3714303-.24849664.8475579-.43589597 1.2979763-.43589597.2806024 0 .5427685.05681879.7900504.14427181l.0378873-.28529195.1182285-.36521476z" fill="#121716"/></g></svg>