<svg width="600" height="300" viewBox="0 0 600 300" fill="none" xmlns="http://www.w3.org/2000/svg">
<rect width="600" height="300" fill="white"/>
<g clip-path="url(#clip0)">
<path fill-rule="evenodd" clip-rule="evenodd" d="M362.741 64.8563C363.017 64.1749 363.309 63.4856 363.617 62.7883C363.979 61.9716 364.334 61.2038 364.684 60.4851C364.815 60.0931 364.963 59.7446 365.127 59.4397C365.291 59.1347 365.461 58.7972 365.636 58.4269C365.68 58.3833 365.833 58.3398 366.096 58.2962C366.358 58.2527 366.681 58.2145 367.064 58.1819C367.447 58.1492 367.857 58.1383 368.295 58.1492C368.732 58.1601 369.148 58.1982 369.542 58.2636C369.936 58.3289 370.28 58.4215 370.576 58.5412C370.871 58.661 371.063 58.8189 371.15 59.015C370.975 59.3417 370.702 59.8317 370.33 60.4851C369.958 61.1385 369.575 61.8572 369.181 62.6413C368.787 63.4254 368.42 64.2367 368.081 65.0752C367.742 65.9137 367.529 66.6705 367.441 67.3457C367.288 68.304 367.272 68.9683 367.392 69.3386C367.512 69.7088 367.715 69.8722 367.999 69.8286C368.284 69.7851 368.623 69.5673 369.017 69.1752C369.411 68.7832 369.804 68.304 370.198 67.7378C370.92 66.2785 371.522 65.0643 372.004 64.0951C372.485 63.1259 372.901 62.3037 373.251 61.6285C373.601 60.9534 373.891 60.3925 374.121 59.946C374.35 59.4996 374.586 59.0694 374.826 58.6556C375.155 58.5467 375.554 58.4596 376.024 58.3942C376.495 58.3289 376.971 58.3126 377.452 58.3452C377.933 58.3779 378.387 58.4541 378.814 58.5739C379.241 58.6937 379.553 58.8843 379.75 59.1456L378.995 60.8771C378.688 61.5959 378.355 62.3799 377.994 63.2293C377.633 64.0788 377.261 64.9391 376.878 65.8103C376.495 66.6814 376.128 67.5363 375.778 68.3748C375.428 69.2133 375.111 69.9811 374.826 70.678C375.045 70.5038 375.269 70.286 375.499 70.0246C375.729 69.7633 375.997 69.4039 376.303 68.9465C376.61 68.4892 376.993 67.9011 377.452 67.1824C377.912 66.4636 378.48 65.5489 379.159 64.4381C379.509 63.8501 379.886 63.5016 380.291 63.3927C380.696 63.2838 381.046 63.311 381.341 63.4744C381.637 63.6377 381.839 63.8882 381.949 64.2258C382.058 64.5634 381.992 64.8955 381.752 65.2222C381.27 66.0934 380.723 67.0354 380.111 68.0481C379.498 69.0609 378.836 70.0137 378.125 70.9067C377.414 71.7997 376.67 72.5729 375.893 73.2263C375.116 73.8797 374.334 74.2826 373.546 74.4351C373.349 75.2409 373.07 76.1012 372.709 77.016C372.348 77.9307 371.949 78.8346 371.511 79.7275C371.074 80.6205 370.62 81.4808 370.149 82.3084C369.679 83.1361 369.236 83.8657 368.82 84.4973C368.513 84.9765 368.109 85.3249 367.605 85.5427C367.102 85.7605 366.593 85.8586 366.079 85.8368C365.565 85.815 365.078 85.6789 364.619 85.4284C364.159 85.1779 363.82 84.8022 363.601 84.3013C363.404 83.735 363.355 83.1633 363.453 82.5861C363.552 82.009 363.754 81.4318 364.061 80.8546C364.367 80.2775 364.744 79.7003 365.193 79.1231C365.642 78.546 366.106 77.9743 366.588 77.408C366.938 76.9942 367.272 76.5967 367.589 76.2155C367.906 75.8344 368.202 75.4478 368.475 75.0558C368.749 74.6637 368.995 74.2499 369.214 73.8143C369.432 73.3787 369.608 72.9105 369.739 72.4095C369.367 72.758 368.984 73.0738 368.59 73.3569C368.196 73.6401 367.78 73.8742 367.343 74.0593C366.905 74.2445 366.44 74.3588 365.948 74.4024C365.456 74.4459 364.936 74.3915 364.389 74.239C363.229 73.9341 362.409 73.3624 361.927 72.5239C361.791 72.2867 361.678 72.0351 361.589 71.7691C361.252 72.2306 360.878 72.651 360.467 73.0303C360.018 73.4441 359.52 73.7871 358.973 74.0593C358.426 74.3316 357.813 74.4677 357.135 74.4677C355.997 74.3153 355.149 73.8797 354.591 73.1609C354.186 72.6392 353.885 72.0515 353.688 71.3979C353.524 71.6004 353.36 71.796 353.196 71.9848C352.496 72.7907 351.78 73.4223 351.047 73.8797C350.313 74.337 349.564 74.5657 348.798 74.5657C348.426 74.5657 347.934 74.4296 347.321 74.1574C346.709 73.8851 346.047 73.5312 345.335 73.0956C344.624 72.66 343.924 72.17 343.235 71.6255C342.546 71.081 341.949 70.5365 341.446 69.992C341.205 70.6889 341.019 71.5274 340.888 72.5075C340.757 73.4876 340.844 74.74 341.151 76.2646C340.297 76.0903 339.581 75.8671 339.001 75.5948C338.421 75.3226 337.939 75.0394 337.557 74.7454C337.174 74.4514 336.878 74.1682 336.67 73.896C336.462 73.6237 336.326 73.4005 336.26 73.2263C336.118 72.8244 336.019 72.3886 335.961 71.919C335.673 72.2365 335.379 72.5415 335.078 72.8342C334.531 73.3352 333.842 73.7326 333.011 74.0267C332.179 74.3207 331.282 74.4677 330.319 74.4677C329.663 74.4677 329.017 74.3752 328.383 74.19C327.748 74.0049 327.157 73.7435 326.61 73.406C326.063 73.0684 325.582 72.66 325.166 72.1808C324.933 71.9121 324.734 71.6229 324.57 71.3131C324.442 71.453 324.312 71.5898 324.181 71.7235C323.372 72.5511 322.491 73.2154 321.539 73.7163C320.587 74.2173 319.532 74.4677 318.372 74.4677C317.847 74.4677 317.289 74.3969 316.698 74.2554C316.107 74.1138 315.549 73.9069 315.024 73.6346C314.499 73.3624 314.028 73.0194 313.613 72.6055C313.305 72.2991 313.063 71.9568 312.887 71.5786C312.662 71.8607 312.433 72.1268 312.201 72.3769C311.414 73.2263 310.566 73.8579 309.658 74.2717C308.75 74.6855 307.716 74.7944 306.556 74.5984C306.075 74.5113 305.675 74.3752 305.358 74.19C305.041 74.0049 304.784 73.798 304.587 73.5693C304.39 73.3406 304.242 73.0901 304.143 72.8179C304.045 72.5457 303.985 72.268 303.963 71.9848C303.919 71.4403 303.957 70.8468 304.078 70.2043C304.198 69.5618 304.357 68.9139 304.554 68.2605C304.751 67.6071 304.969 66.97 305.21 66.3493C305.451 65.7286 305.67 65.1677 305.867 64.6668C306.042 64.1659 306.173 63.7684 306.261 63.4744C306.348 63.1803 306.359 62.9789 306.293 62.87C306.228 62.7611 306.069 62.7339 305.817 62.7883C305.566 62.8428 305.199 62.968 304.718 63.164C304.171 63.4036 303.678 63.7738 303.241 64.2748C302.803 64.7757 302.42 65.3692 302.092 66.0553C301.764 66.7413 301.485 67.471 301.255 68.2441C301.025 69.0173 300.85 69.7905 300.73 70.5637C300.61 71.3369 300.538 72.0774 300.517 72.7852C300.495 73.4931 300.517 74.0975 300.582 74.5984C299.685 74.337 298.947 74.1192 298.367 73.945C297.787 73.7708 297.316 73.5911 296.955 73.406C296.594 73.2208 296.332 73.0194 296.168 72.8016C296.004 72.5838 295.878 72.3006 295.79 71.9522C295.829 71.4452 295.897 70.9043 295.993 70.3297C295.691 70.6709 295.371 71.0048 295.035 71.3314C294.116 72.2244 293.11 73.0085 292.016 73.6836C290.922 74.3588 289.762 74.8924 288.536 75.2845C287.311 75.6765 286.075 75.8725 284.828 75.8725C283.515 75.8725 282.191 75.6329 280.856 75.1538C279.521 74.6746 278.323 73.9777 277.262 73.0629C276.201 72.1482 275.342 71.032 274.685 69.7143C274.029 68.3966 273.723 66.8884 273.766 65.1895C273.81 64.1659 274.034 63.1041 274.439 62.0042C274.844 60.9043 275.391 59.8154 276.08 58.7373C276.77 57.6592 277.579 56.6028 278.509 55.5683C279.439 54.5338 280.435 53.5646 281.496 52.6607C282.557 51.7568 283.668 50.9401 284.828 50.2105C285.987 49.4808 287.158 48.8656 288.34 48.3646C289.631 47.8637 290.916 47.5261 292.196 47.3519C293.476 47.1776 294.62 47.243 295.626 47.5479C296.633 47.8528 297.442 48.4572 298.055 49.3611C298.668 50.2649 298.963 51.5445 298.941 53.1998C298.919 54.2887 298.618 55.3342 298.039 56.336C297.459 57.3379 296.748 58.2254 295.905 58.9986C295.063 59.7718 294.155 60.3871 293.181 60.8445C292.207 61.3018 291.326 61.5305 290.539 61.5305C290.189 61.5305 289.778 61.4216 289.308 61.2038C288.837 60.986 288.361 60.692 287.88 60.3217C288.996 59.6683 289.981 58.8734 290.834 57.9369C291.687 57.0003 292.311 56.0965 292.705 55.2253C293.208 53.8749 293.334 52.9547 293.082 52.4647C292.831 51.9746 292.36 51.7677 291.671 51.844C290.982 51.9202 290.15 52.2197 289.176 52.7424C288.203 53.2651 287.256 53.8695 286.337 54.5555C285.418 55.2416 284.598 55.9494 283.876 56.6791C283.154 57.4087 282.694 58.0131 282.497 58.4922C281.841 59.2981 281.299 60.1747 280.872 61.1221C280.446 62.0696 280.156 63.017 280.003 63.9644C279.849 64.9118 279.839 65.832 279.97 66.725C280.101 67.618 280.407 68.4129 280.889 69.1099C281.37 69.8068 282.038 70.3677 282.891 70.7924C283.744 71.2171 284.806 71.4512 286.075 71.4948C287.016 71.5383 288.044 71.2824 289.16 70.727C290.276 70.1717 291.425 69.4529 292.606 68.5708C293.788 67.6888 294.97 66.6978 296.151 65.5979C296.638 65.1444 297.114 64.6956 297.579 64.2513C297.664 63.9886 297.752 63.7241 297.842 63.458C298.378 61.8681 298.968 60.2782 299.614 58.6883C300.259 57.0983 300.916 55.6173 301.583 54.2452C302.251 52.873 302.902 51.6697 303.536 50.6352C304.171 49.6006 304.729 48.8547 305.21 48.3973C305.429 48.2013 305.845 48.0924 306.457 48.0706C307.07 48.0488 307.677 48.0978 308.279 48.2176C308.881 48.3374 309.395 48.5116 309.822 48.7403C310.248 48.969 310.385 49.2249 310.232 49.5081C310.013 49.9001 309.723 50.3902 309.362 50.9782C309.001 51.5663 308.618 52.2033 308.213 52.8894C307.809 53.5755 307.387 54.2833 306.95 55.0129C306.512 55.7425 306.107 56.4449 305.735 57.1201C305.363 57.7953 305.035 58.4106 304.751 58.966C304.466 59.5213 304.269 59.9733 304.16 60.3217C305.276 59.1892 306.353 58.465 307.393 58.1492C308.432 57.8334 309.291 57.8987 309.969 58.3452C310.648 58.7917 311.08 59.5976 311.266 60.7628C311.452 61.928 311.26 63.4036 310.692 65.1895C310.363 66.1914 310.134 66.9428 310.002 67.4437C309.871 67.9447 309.772 68.3476 309.707 68.6525C309.619 69.1099 309.608 69.4039 309.674 69.5346C309.74 69.6653 309.86 69.6816 310.035 69.5836C310.21 69.4856 310.423 69.3059 310.675 69.0445C310.927 68.7832 311.184 68.4674 311.446 68.0971C311.709 67.7704 311.972 67.4274 312.234 67.068C312.424 66.8083 312.605 66.5599 312.778 66.3229C312.788 66.2935 312.798 66.2642 312.809 66.235C312.995 65.7122 313.208 65.2113 313.449 64.7322C313.908 63.8392 314.455 63.0061 315.09 62.2329C315.724 61.4597 316.414 60.7846 317.158 60.2074C317.901 59.6302 318.667 59.1729 319.455 58.8353C320.243 58.4977 321.009 58.3289 321.753 58.3289C323.066 58.3289 324.012 58.5521 324.592 58.9986C325.172 59.4451 325.467 60.0168 325.478 60.7138C325.489 61.4107 325.265 62.1839 324.805 63.0333C324.346 63.8827 323.755 64.7213 323.033 65.5489C322.311 66.3765 321.49 67.1334 320.571 67.8194C319.652 68.5055 318.744 69.0337 317.847 69.4039C317.869 69.992 317.978 70.4276 318.175 70.7107C318.372 70.9938 318.629 71.1681 318.946 71.2334C319.264 71.2988 319.625 71.2715 320.029 71.1517C320.434 71.032 320.834 70.8414 321.227 70.58C321.621 70.3622 322.032 70.0192 322.458 69.5509C322.885 69.0827 323.317 68.5708 323.755 68.0155C323.815 67.9385 323.876 67.8612 323.936 67.7835C324.034 66.8372 324.28 65.9127 324.674 65.0098C325.068 64.106 325.587 63.2511 326.233 62.4453C326.878 61.6394 327.595 60.9316 328.383 60.3217C329.17 59.7119 330.007 59.2273 330.894 58.8679C331.78 58.5086 332.661 58.3289 333.536 58.3289C333.93 58.3289 334.34 58.3779 334.767 58.4759C335.193 58.5739 335.593 58.7264 335.965 58.9333C336.337 59.1402 336.648 59.4015 336.9 59.7174C337.152 60.0332 337.299 60.4089 337.343 60.8445C337.365 61.2801 337.299 61.7538 337.146 62.2656C336.993 62.7774 336.802 63.2729 336.572 63.7521C336.342 64.2312 336.107 64.6668 335.866 65.0588C335.626 65.4509 335.44 65.7558 335.308 65.9736C335.111 66.1696 334.805 66.3711 334.389 66.578C333.973 66.7849 333.481 66.8884 332.912 66.8884C332.562 66.8884 332.201 66.8176 331.829 66.676C331.457 66.5344 331.145 66.3275 330.894 66.0553C330.642 65.783 330.489 65.4509 330.434 65.0588C330.379 64.6668 330.516 64.2312 330.844 63.7521C331.216 63.2729 331.621 62.9625 332.059 62.821C332.496 62.6794 332.923 62.5542 333.339 62.4453C333.339 62.3582 333.372 62.2493 333.437 62.1186C333.503 61.9879 333.552 61.8463 333.585 61.6939C333.618 61.5414 333.623 61.4053 333.601 61.2855C333.58 61.1657 333.492 61.0731 333.339 61.0078H333.372C333 60.8118 332.584 60.8608 332.124 61.1548C331.665 61.4488 331.222 61.8899 330.795 62.4779C330.368 63.066 329.986 63.7575 329.646 64.5525C329.307 65.3474 329.077 66.1478 328.957 66.9537C328.837 67.7595 328.859 68.5218 329.023 69.2406C329.187 69.9593 329.564 70.5474 330.155 71.0047H330.122C330.691 71.3532 331.162 71.5002 331.534 71.4458C331.906 71.3913 332.354 71.2116 332.879 70.9067C333.229 70.6889 333.601 70.3622 333.995 69.9266C334.389 69.491 334.799 68.9955 335.226 68.4402C335.653 67.8848 336.085 67.2804 336.523 66.627C336.533 66.6118 336.543 66.5965 336.553 66.5813C336.846 65.4774 337.219 64.3383 337.671 63.164C338.175 61.8572 338.722 60.5668 339.313 59.2926C339.903 58.0185 340.516 56.7934 341.151 55.6173C341.785 54.4412 342.387 53.3685 342.956 52.3993C343.525 51.4301 344.033 50.5916 344.482 49.8838C344.931 49.1759 345.275 48.6696 345.516 48.3646C345.779 48.1468 346.123 48.0107 346.55 47.9563C346.977 47.9018 347.414 47.9127 347.863 47.9889C348.311 48.0652 348.727 48.2067 349.11 48.4136C349.493 48.6205 349.772 48.8547 349.947 49.116C349.859 49.4427 349.679 49.9164 349.405 50.5372C349.132 51.1579 348.798 51.8494 348.404 52.6117C348.01 53.374 347.595 54.1635 347.157 54.9802C346.719 55.797 346.309 56.5647 345.926 57.2835C345.543 58.0022 345.215 58.6229 344.942 59.1456C344.668 59.6684 344.498 60.0168 344.433 60.1911C345.067 59.7119 345.751 59.2981 346.484 58.9496C347.217 58.6011 347.989 58.4269 348.798 58.4269C349.892 58.4269 350.784 58.7046 351.473 59.26C352.162 59.8154 352.562 60.6049 352.671 61.6285C352.737 62.5433 352.556 63.4308 352.13 64.2911C351.703 65.1514 351.101 65.9246 350.324 66.6107C349.548 67.2967 348.64 67.8575 347.6 68.2931C346.561 68.7287 345.45 68.9901 344.269 69.0772L346.238 70.3023C346.851 70.6835 347.507 70.8196 348.207 70.7107C348.995 70.6018 349.701 70.3568 350.324 69.9756C350.948 69.5945 351.522 69.1317 352.048 68.5872C352.573 68.0427 353.06 67.4383 353.508 66.774C353.56 66.6969 353.612 66.6197 353.664 66.5425C353.801 65.8531 353.974 65.2061 354.181 64.6015C354.903 62.8155 355.603 61.1222 356.282 59.5213C356.96 57.9205 357.616 56.4558 358.251 55.1273C358.886 53.7987 359.476 52.6171 360.023 51.5826C360.57 50.5481 361.074 49.6823 361.533 48.9854C361.665 48.8329 362.015 48.7077 362.584 48.6097C363.152 48.5116 363.76 48.4626 364.405 48.4626C365.051 48.4626 365.647 48.5116 366.194 48.6097C366.741 48.7077 367.058 48.8765 367.146 49.116C367.08 49.3774 366.949 49.7259 366.752 50.1615C366.555 50.5971 366.314 51.098 366.03 51.6643C365.745 52.2306 365.428 52.8458 365.078 53.5101C364.728 54.1744 364.356 54.8659 363.962 55.5846C362.037 59.2437 360.297 63.0878 358.743 67.117C358.568 67.5091 358.437 67.9392 358.349 68.4075C358.262 68.8758 358.251 69.2515 358.317 69.5346C358.382 69.8177 358.535 69.9484 358.776 69.9266C359.017 69.9049 359.389 69.5999 359.892 69.0119C360.155 68.6852 360.445 68.3095 360.762 67.8848C361.079 67.4601 361.38 67.0245 361.665 66.578C361.949 66.1315 362.217 65.7068 362.469 65.3039C362.569 65.1435 362.66 64.9943 362.741 64.8563ZM317.683 66.235C317.989 66.0607 318.339 65.8375 318.733 65.5652C319.127 65.293 319.543 64.9391 319.98 64.5035C320.418 64.1114 320.779 63.6649 321.063 63.164C321.348 62.6631 321.534 62.2384 321.621 61.8899C321.709 61.5414 321.671 61.3291 321.506 61.2528C321.342 61.1766 321.041 61.3563 320.604 61.7919C320.319 62.075 320.029 62.418 319.734 62.821C319.439 63.2239 319.16 63.6268 318.897 64.0298C318.635 64.4327 318.394 64.8138 318.175 65.1732C317.956 65.5326 317.792 65.8102 317.683 66.0063V66.235ZM346.008 62.8046C345.746 63.0442 345.461 63.3437 345.155 63.7031C344.849 64.0624 344.542 64.4545 344.236 64.8792C343.93 65.3039 343.634 65.7504 343.35 66.2186C343.065 66.6869 342.814 67.1497 342.595 67.6071C343.514 67.4764 344.285 67.2586 344.909 66.9537C345.532 66.6488 346.036 66.2949 346.419 65.8919C346.802 65.489 347.07 65.0752 347.223 64.6505C347.376 64.2258 347.442 63.8392 347.42 63.4907C347.354 62.7937 347.212 62.4017 346.993 62.3146C346.774 62.2275 346.446 62.3908 346.008 62.8046Z" fill="#45C8F1"/>
<path fill-rule="evenodd" clip-rule="evenodd" d="M258.335 51.165C258.215 50.9203 258.041 50.6968 257.78 50.5541C257.494 50.398 257.181 50.3716 256.888 50.4236L256.867 50.4125C252.461 51.1704 248.015 54.5121 245.333 59.6341C242.444 65.1535 242.403 71.2139 244.756 75.3612C249.484 74.9782 254.42 71.5237 257.31 66.0043C260.002 60.8658 260.219 55.2624 258.335 51.165Z" fill="#828D8C"/>
<path fill-rule="evenodd" clip-rule="evenodd" d="M256.858 50.989C252.517 51.778 248.299 55.1826 245.831 59.8986C243.217 64.8913 242.932 70.6762 245.07 74.7614C249.622 74.2347 254.2 70.7326 256.812 65.74C259.311 60.972 259.698 55.4792 257.824 51.4028C257.745 51.2423 257.641 51.1229 257.512 51.052C257.362 50.9691 257.169 50.9469 256.986 50.9813C256.942 50.9879 256.898 50.9934 256.858 50.989ZM244.756 75.9277C244.555 75.9277 244.368 75.8193 244.269 75.6422C241.718 71.1475 241.935 64.9123 244.836 59.3698C247.524 54.2344 251.987 50.677 256.773 49.8537C256.818 49.8449 256.865 49.8437 256.911 49.8482C257.307 49.8006 257.706 49.8703 258.047 50.0562C258.385 50.2409 258.651 50.5297 258.839 50.9148C260.863 55.3166 260.465 61.1955 257.807 66.269C254.906 71.8103 249.922 75.5115 244.801 75.9254C244.786 75.9266 244.771 75.9277 244.756 75.9277Z" fill="#121716"/>
<path fill-rule="evenodd" clip-rule="evenodd" d="M256.272 53.5694C257.5 54.2366 258.589 55.0433 259.506 55.9262C259.377 54.2134 258.992 52.5945 258.335 51.165C258.215 50.9203 258.041 50.6968 257.78 50.5541C257.494 50.398 257.181 50.3716 256.888 50.4236L256.867 50.4125C255.348 50.6747 253.829 51.2634 252.373 52.1043C253.663 52.3899 254.989 52.8722 256.272 53.5694Z" fill="#121716"/>
<path fill-rule="evenodd" clip-rule="evenodd" d="M249.382 54.8176C248.21 55.9794 247.091 57.2939 246.062 58.759C248.234 58.6084 250.632 59.1385 252.806 60.423C254.967 61.6979 256.591 63.5392 257.521 65.5109C258.28 63.8688 258.856 62.2224 259.273 60.609C258.144 59.1296 256.684 57.8162 254.924 56.7761C253.133 55.7161 251.247 55.0786 249.382 54.8176Z" fill="#121716"/>
<path fill-rule="evenodd" clip-rule="evenodd" d="M243.782 61.7754C243.04 63.2226 242.416 64.6701 241.907 66.1041C243.931 66.0553 246.063 66.5809 247.979 67.7615C249.915 68.9478 250.78 70.7526 251.663 72.6093C253.407 71.7606 254.26 70.1362 255.189 68.795C254.072 66.8355 252.464 65.1016 250.365 63.8135C248.272 62.5255 246.014 61.8828 243.782 61.7754Z" fill="#121716"/>
<path fill-rule="evenodd" clip-rule="evenodd" d="M227.856 45.9244C229.694 47.7767 230.187 50.2852 228.955 51.5256C227.725 52.766 225.236 52.2703 223.399 50.4169C221.561 48.5646 221.068 46.0561 222.299 44.8157C223.529 43.5754 226.018 44.0721 227.856 45.9244Z" fill="#828D8C"/>
<path fill-rule="evenodd" clip-rule="evenodd" d="M226.637 47.1538C227.56 48.0811 227.854 49.2927 227.298 49.8527C226.738 50.4158 225.538 50.1192 224.616 49.1898C223.695 48.2603 223.401 47.052 223.959 46.4898C224.517 45.9267 225.715 46.2244 226.637 47.1538Z" fill="#121716"/>
<path fill-rule="evenodd" clip-rule="evenodd" d="M224.097 44.6998C223.692 44.6998 223.12 44.7894 222.696 45.2164C221.704 46.2167 222.208 48.4154 223.796 50.0166C224.806 51.0345 226.062 51.642 227.156 51.642C227.561 51.642 228.134 51.5524 228.558 51.1253C229.017 50.6628 229.176 49.9313 229.006 49.0649C228.819 48.1155 228.269 47.1429 227.458 46.3251C226.448 45.3071 225.192 44.6998 224.097 44.6998ZM227.156 52.775C225.77 52.775 224.217 52.0436 223.001 50.8176C220.912 48.7119 220.429 45.8992 221.901 44.4153C222.453 43.8598 223.211 43.5667 224.097 43.5667C225.483 43.5667 227.037 44.298 228.253 45.5241C229.22 46.4977 229.879 47.6774 230.108 48.8447C230.354 50.094 230.085 51.1883 229.353 51.9264C228.802 52.4819 228.042 52.775 227.156 52.775Z" fill="#121716"/>
<path fill-rule="evenodd" clip-rule="evenodd" d="M244.756 45.9244C242.917 47.7767 242.424 50.2852 243.656 51.5256C244.887 52.766 247.375 52.2703 249.213 50.4169C251.05 48.5646 251.543 46.0561 250.313 44.8157C249.082 43.5754 246.594 44.0721 244.756 45.9244Z" fill="#828D8C"/>
<path fill-rule="evenodd" clip-rule="evenodd" d="M245.975 47.1538C245.051 48.0811 244.757 49.2927 245.314 49.8527C245.873 50.4158 247.073 50.1192 247.995 49.1898C248.916 48.2603 249.211 47.052 248.653 46.4898C248.094 45.9267 246.897 46.2244 245.975 47.1538Z" fill="#121716"/>
<path fill-rule="evenodd" clip-rule="evenodd" d="M245.154 46.3251C244.342 47.1429 243.792 48.1155 243.606 49.0649C243.435 49.9313 243.595 50.6628 244.054 51.1253C244.477 51.5524 245.05 51.642 245.455 51.642C246.55 51.642 247.806 51.0345 248.816 50.0166C250.404 48.4154 250.908 46.2167 249.915 45.2164C249.492 44.7894 248.92 44.6998 248.515 44.6998C247.419 44.6998 246.163 45.3071 245.154 46.3251ZM243.259 51.9264C242.527 51.1883 242.258 50.094 242.504 48.8447C242.733 47.6774 243.392 46.4977 244.359 45.5241C245.575 44.298 247.128 43.5667 248.515 43.5667C249.401 43.5667 250.159 43.8598 250.71 44.4153C252.182 45.8992 251.699 48.7119 249.61 50.8176C248.395 52.0436 246.842 52.775 245.455 52.775C244.569 52.775 243.81 52.4819 243.259 51.9264Z" fill="#121716"/>
<path fill-rule="evenodd" clip-rule="evenodd" d="M248.717 50.5311C245.819 46.5022 241.355 43.5667 236.306 43.5667C231.256 43.5667 226.793 46.5022 223.895 50.5311C220.369 55.4306 218.326 62.3763 220.424 68.2518C222.2 73.229 226.465 77.0111 231.479 78.4518C233.047 78.9032 234.676 79.1278 236.306 79.1278C237.936 79.1278 239.565 78.9032 241.132 78.4518C246.147 77.0111 250.411 73.229 252.188 68.2518C254.285 62.3763 252.243 55.4306 248.717 50.5311Z" fill="#828D8C"/>
<path fill-rule="evenodd" clip-rule="evenodd" d="M249.914 52.7605C249.713 51.9561 249.203 51.1926 248.728 50.531C248.122 49.6878 247.443 48.8976 246.709 48.1673C244.089 46.8993 241.094 46.9016 238.811 48.4539C237.621 49.2639 236.787 50.3948 236.306 51.6838C235.825 50.3948 234.991 49.2639 233.801 48.4539C231.517 46.9016 228.523 46.8993 225.903 48.1673C225.168 48.8976 224.49 49.6878 223.884 50.531C223.409 51.1926 222.898 51.9561 222.697 52.7605C222.488 53.5982 222.186 54.7224 222.225 55.5699C222.29 56.9487 223.136 57.9645 224.254 58.6937C224.527 58.8729 227.451 61.128 227.178 61.2885C227.385 61.1667 227.645 61.0184 227.935 60.8647V61.1225C228.995 60.4995 230.536 59.736 231.568 59.8555L231.581 59.8577C231.611 59.861 231.635 59.8743 231.664 59.8799C231.948 59.9551 232.197 60.0945 232.388 60.3291C232.829 60.8702 232.869 61.4953 232.715 62.1028C232.829 62.0188 232.931 61.9125 233.042 61.8229C233.03 62.2412 232.936 62.5587 232.936 62.5587L232.744 62.8309C233.875 63.0467 235.064 63.1651 236.295 63.1651H236.301C236.31 63.1651 236.312 63.1651 236.312 63.1651C237.547 63.1651 238.736 63.0467 239.868 62.8309L239.676 62.5587C239.676 62.5587 239.581 62.2412 239.569 61.8229C239.68 61.9125 239.782 62.0188 239.896 62.1028C239.743 61.4953 239.782 60.8702 240.224 60.3291C240.414 60.0945 240.664 59.9551 240.948 59.8799C240.977 59.8743 241.001 59.861 241.03 59.8577L241.044 59.8555C242.075 59.736 243.617 60.4995 244.677 61.1225V60.8647C244.967 61.0184 245.227 61.1667 245.433 61.2885C245.161 61.128 248.084 58.8729 248.358 58.6937C249.475 57.9645 250.321 56.9487 250.386 55.5699C250.426 54.7224 250.124 53.5982 249.914 52.7605Z" fill="#EDEDEA"/>
<path fill-rule="evenodd" clip-rule="evenodd" d="M236.306 65.4744C232.05 65.4744 228.602 69.7544 228.602 75.0347C228.602 76.0892 228.745 77.0995 228.998 78.0478C229.464 78.1882 229.925 78.3398 230.402 78.4516C232.32 78.903 234.312 79.1277 236.306 79.1277C238.299 79.1277 240.292 78.903 242.209 78.4516C242.687 78.3398 243.148 78.1882 243.613 78.0478C243.867 77.0995 244.01 76.0892 244.01 75.0347C244.01 69.7544 240.562 65.4744 236.306 65.4744Z" fill="#EDEDEA"/>
<path fill-rule="evenodd" clip-rule="evenodd" d="M237.175 56.8092C236.985 56.8713 236.787 56.9023 236.588 56.9188C236.603 56.8845 236.632 56.858 236.632 56.8192V56.0513C236.667 56.0236 236.705 56.0049 236.736 55.9672L237.333 55.2392C237.569 54.9515 237.458 54.7158 237.087 54.7158H235.524C235.153 54.7158 235.042 54.9515 235.278 55.2392L235.875 55.9672C235.928 56.0325 235.992 56.0778 236.057 56.1132V56.8192C236.057 56.858 236.084 56.8845 236.098 56.9188C235.9 56.901 235.702 56.8701 235.513 56.8092C235.269 56.7307 234.766 56.4364 234.696 56.8934C234.696 56.921 234.696 56.9487 234.696 56.9763C234.696 57.8915 235.43 58.6329 236.342 58.6351H236.346C237.259 58.6329 237.992 57.8915 237.992 56.9763C237.992 56.9487 237.992 56.921 237.992 56.8934C237.923 56.4364 237.419 56.7307 237.175 56.8092Z" fill="#121716"/>
<path fill-rule="evenodd" clip-rule="evenodd" d="M236.306 44.133C231.784 44.133 227.426 46.5862 224.35 50.8639C220.478 56.2449 219.144 62.9946 220.953 68.0603C222.615 72.7188 226.707 76.4921 231.633 77.9073C234.649 78.7747 237.963 78.7747 240.978 77.9073C245.904 76.4921 249.997 72.7188 251.658 68.0603C253.468 62.9946 252.134 56.2449 248.262 50.8639C245.185 46.5862 240.827 44.133 236.306 44.133ZM236.306 79.6942C234.609 79.6942 232.932 79.4597 231.324 78.996C225.977 77.4602 221.705 73.5156 219.895 68.4432C217.551 61.8793 220.19 54.7146 223.441 50.1978C226.73 45.6234 231.42 43 236.306 43C241.192 43 245.881 45.6234 249.172 50.1978C252.421 54.7146 255.06 61.8793 252.717 68.4432C250.907 73.5156 246.634 77.4602 241.286 78.996C239.679 79.4597 238.003 79.6942 236.306 79.6942Z" fill="#121716"/>
<path fill-rule="evenodd" clip-rule="evenodd" d="M231.79 50.2476C231.316 49.9898 230.787 49.8592 230.217 49.8592C228.627 49.8592 227.044 51.2048 226.268 52.1099C224.963 53.6314 223.756 56.692 226.252 57.742C227.154 58.1217 228.149 58.2367 229.119 58.2543C230.358 58.2786 231.683 58.25 232.661 57.3692C233.654 56.4751 233.814 55.0146 233.722 53.7464C233.602 52.0999 232.916 50.8562 231.79 50.2476Z" fill="#121716"/>
<path fill-rule="evenodd" clip-rule="evenodd" d="M231.849 52.8922C231.831 52.6754 231.595 52.4363 231.457 52.3124C231.149 52.0413 230.755 51.8908 230.345 51.8908C230.216 51.8908 230.083 51.9051 229.948 51.934C229.425 52.0446 228.986 52.3621 228.744 52.8058C228.651 52.9741 228.494 53.3094 228.535 53.5008C228.569 53.6602 228.718 53.7696 228.871 53.7973C229.074 53.8349 229.153 53.7387 229.25 53.5728C229.268 53.5406 229.288 53.5074 229.31 53.4721C229.604 53.0128 230.019 52.7605 230.479 52.7605C230.737 52.7605 230.894 52.8357 231.128 52.9918C231.282 53.0948 231.45 53.3016 231.658 53.1909C231.808 53.1102 231.858 53.005 231.849 52.8922Z" fill="#FFFFFE"/>
<path fill-rule="evenodd" clip-rule="evenodd" d="M240.822 50.2476C241.296 49.9898 241.825 49.8592 242.395 49.8592C243.984 49.8592 245.567 51.2048 246.343 52.1099C247.648 53.6314 248.856 56.692 246.36 57.742C245.457 58.1217 244.463 58.2367 243.493 58.2543C242.253 58.2786 240.928 58.25 239.95 57.3692C238.958 56.4751 238.798 55.0146 238.89 53.7464C239.009 52.0999 239.695 50.8562 240.822 50.2476Z" fill="#121716"/>
<path fill-rule="evenodd" clip-rule="evenodd" d="M240.762 52.8922C240.78 52.6754 241.016 52.4363 241.154 52.3124C241.463 52.0413 241.857 51.8908 242.266 51.8908C242.396 51.8908 242.529 51.9051 242.664 51.934C243.186 52.0446 243.625 52.3621 243.868 52.8058C243.96 52.9741 244.117 53.3094 244.077 53.5008C244.042 53.6602 243.893 53.7696 243.741 53.7973C243.538 53.8349 243.459 53.7387 243.362 53.5728C243.343 53.5406 243.323 53.5074 243.302 53.4721C243.007 53.0128 242.593 52.7605 242.133 52.7605C241.874 52.7605 241.718 52.8357 241.484 52.9918C241.33 53.0948 241.162 53.3016 240.954 53.1909C240.803 53.1102 240.754 53.005 240.762 52.8922Z" fill="#FFFFFE"/>
<path fill-rule="evenodd" clip-rule="evenodd" d="M225.151 63.2083C225.002 63.2083 224.852 63.1486 224.741 63.0302C224.528 62.8022 224.539 62.4437 224.765 62.229C224.894 62.1073 226.047 61.0251 226.864 60.6278C227.142 60.494 227.479 60.6102 227.614 60.8923C227.749 61.1733 227.632 61.512 227.352 61.648C226.792 61.9203 225.851 62.7557 225.536 63.0545C225.427 63.1574 225.289 63.2083 225.151 63.2083Z" fill="#121716"/>
<path fill-rule="evenodd" clip-rule="evenodd" d="M231.866 59.6121C230.314 58.6716 227.898 59.9816 227.062 60.4961C226.372 60.1554 225.764 59.6574 225.208 59.1296C224.537 58.4945 224.116 58.095 223.668 57.2607C223.562 57.1058 223.398 56.9908 223.197 56.9908C222.539 56.9908 222.55 57.6923 222.811 58.1061C223.617 59.3808 224.537 60.2063 225.781 61.0494C226.131 61.2863 226.501 61.5053 226.895 61.6624C227.066 61.7311 227.265 61.7134 227.42 61.6094C228.105 61.1501 230.277 59.975 231.288 60.5836C231.78 60.8812 232.042 61.2907 232.067 61.8008C232.113 62.7203 231.381 63.8378 230.111 64.7916C228.807 65.771 226.505 66.0464 224.515 65.4633C223.098 65.0483 221.211 64.0282 220.267 61.5308C220.157 61.2364 219.829 61.0904 219.542 61.2032C219.252 61.3139 219.107 61.6415 219.218 61.9336C220.083 64.223 221.852 65.8628 224.201 66.5511C225.007 66.7878 225.849 66.9029 226.672 66.9029C228.24 66.9029 229.738 66.4858 230.783 65.7012C232.378 64.5028 233.255 63.0612 233.189 61.7444C233.145 60.8591 232.676 60.1023 231.866 59.6121Z" fill="#121716"/>
<path fill-rule="evenodd" clip-rule="evenodd" d="M247.461 63.2083C247.61 63.2083 247.759 63.1486 247.87 63.0302C248.083 62.8022 248.072 62.4437 247.846 62.229C247.718 62.1073 246.565 61.0251 245.747 60.6278C245.47 60.494 245.133 60.6102 244.997 60.8923C244.863 61.1733 244.98 61.512 245.26 61.648C245.82 61.9203 246.76 62.7557 247.076 63.0545C247.184 63.1574 247.322 63.2083 247.461 63.2083Z" fill="#121716"/>
<path fill-rule="evenodd" clip-rule="evenodd" d="M240.746 59.6121C242.297 58.6716 244.713 59.9816 245.55 60.4961C246.239 60.1554 246.847 59.6574 247.404 59.1296C248.074 58.4945 248.496 58.095 248.944 57.2607C249.049 57.1058 249.214 56.9908 249.415 56.9908C250.072 56.9908 250.061 57.6923 249.8 58.1061C248.994 59.3808 248.074 60.2063 246.831 61.0494C246.48 61.2863 246.111 61.5053 245.716 61.6624C245.545 61.7311 245.347 61.7134 245.192 61.6094C244.507 61.1501 242.334 59.975 241.323 60.5836C240.832 60.8812 240.569 61.2907 240.544 61.8008C240.499 62.7203 241.23 63.8378 242.5 64.7916C243.804 65.771 246.106 66.0464 248.096 65.4633C249.514 65.0483 251.4 64.0282 252.344 61.5308C252.454 61.2364 252.782 61.0904 253.069 61.2032C253.36 61.3139 253.505 61.6415 253.394 61.9336C252.529 64.223 250.759 65.8628 248.41 66.5511C247.604 66.7878 246.763 66.9029 245.939 66.9029C244.372 66.9029 242.873 66.4858 241.828 65.7012C240.233 64.5028 239.356 63.0612 239.422 61.7444C239.466 60.8591 239.936 60.1023 240.746 59.6121Z" fill="#121716"/>
<path fill-rule="evenodd" clip-rule="evenodd" d="M227.887 71.1508C229.729 73.0076 230.138 75.6101 228.796 76.9612C227.455 78.3134 224.873 77.905 223.031 76.0472C221.189 74.1882 220.781 71.5879 222.124 70.2357C223.464 68.8825 226.045 69.293 227.887 71.1508Z" fill="#828D8C"/>
<path fill-rule="evenodd" clip-rule="evenodd" d="M227.267 73.3041C228.279 74.3265 228.446 75.8159 227.637 76.6324C226.827 77.4492 225.347 77.2832 224.334 76.2608C223.32 75.2373 223.153 73.7467 223.963 72.9301C224.773 72.1135 226.253 72.2816 227.267 73.3041Z" fill="#EDEDEA"/>
<path fill-rule="evenodd" clip-rule="evenodd" d="M224.188 70.0044C223.506 70.0044 222.931 70.2224 222.522 70.6363C222.002 71.1586 221.795 71.9497 221.939 72.8636C222.091 73.843 222.62 74.8311 223.428 75.6466C224.978 77.2112 227.324 77.646 228.399 76.5606C228.917 76.0382 229.123 75.2482 228.981 74.3342C228.827 73.3539 228.298 72.3658 227.49 71.5514C226.529 70.5832 225.296 70.0044 224.188 70.0044ZM226.73 78.3255C225.31 78.3255 223.817 77.6405 222.634 76.4476C221.659 75.4651 221.018 74.2535 220.828 73.0396C220.627 71.7583 220.946 70.6197 221.727 69.8352C222.35 69.2045 223.201 68.8714 224.188 68.8714C225.607 68.8714 227.101 69.5562 228.285 70.7502C229.26 71.7329 229.9 72.9422 230.09 74.1572C230.291 75.4387 229.973 76.5771 229.194 77.3618C228.568 77.9923 227.716 78.3255 226.73 78.3255Z" fill="#121716"/>
<path fill-rule="evenodd" clip-rule="evenodd" d="M244.724 71.1508C242.882 73.0076 242.474 75.6101 243.815 76.9612C245.157 78.3134 247.738 77.905 249.581 76.0472C251.422 74.1882 251.831 71.5879 250.487 70.2357C249.148 68.8825 246.566 69.293 244.724 71.1508Z" fill="#828D8C"/>
<path fill-rule="evenodd" clip-rule="evenodd" d="M245.344 73.3041C244.332 74.3265 244.165 75.8159 244.975 76.6324C245.785 77.4492 247.264 77.2832 248.277 76.2608C249.292 75.2373 249.459 73.7467 248.648 72.9301C247.838 72.1135 246.359 72.2816 245.344 73.3041Z" fill="#EDEDEA"/>
<path fill-rule="evenodd" clip-rule="evenodd" d="M245.122 71.5514C244.314 72.3658 243.785 73.3539 243.631 74.3342C243.488 75.2482 243.695 76.0382 244.213 76.5606C245.287 77.646 247.633 77.2112 249.183 75.6466C249.991 74.8311 250.52 73.843 250.673 72.8636C250.816 71.9497 250.609 71.1586 250.09 70.6363C249.68 70.2224 249.105 70.0044 248.424 70.0044C247.316 70.0044 246.082 70.5832 245.122 71.5514ZM243.418 77.3618C242.639 76.5771 242.32 75.4387 242.521 74.1572C242.711 72.9422 243.352 71.7329 244.327 70.7502C245.51 69.5562 247.004 68.8714 248.424 68.8714C249.41 68.8714 250.261 69.2045 250.885 69.8352C251.665 70.6197 251.985 71.7583 251.784 73.0396C251.594 74.2535 250.953 75.4651 249.978 76.4476C248.795 77.6405 247.302 78.3255 245.881 78.3255C244.895 78.3255 244.044 77.9923 243.418 77.3618Z" fill="#121716"/>
<path fill-rule="evenodd" clip-rule="evenodd" d="M239.833 44.2194C239.859 44.1354 239.887 44.0535 239.911 43.9649C238.743 43.7072 237.539 43.5667 236.306 43.5667C235.073 43.5667 233.869 43.7072 232.701 43.9649C232.725 44.0535 232.752 44.1354 232.779 44.2194L232.165 44.3279L232.251 44.5913L232.278 44.797C232.457 44.734 232.647 44.693 232.85 44.693C233.176 44.693 233.521 44.8281 233.79 45.0073C234.802 45.6933 235.543 46.6183 236.043 47.6663C236.099 47.747 236.181 47.8112 236.296 47.8112C236.423 47.8112 236.514 47.736 236.569 47.6431H236.578C237.08 46.6051 237.816 45.689 238.822 45.0073C239.091 44.8281 239.435 44.693 239.761 44.693C239.965 44.693 240.154 44.734 240.333 44.797L240.361 44.5913L240.446 44.3279L239.833 44.2194Z" fill="#121716"/>
</g>
<path d="M247.719 267.254C247.406 264.991 245.666 263.679 243.409 263.679C240.749 263.679 238.746 265.618 238.746 268.909C238.746 272.195 240.724 274.139 243.409 274.139C245.83 274.139 247.436 272.573 247.719 270.629L245.86 270.619C245.626 271.812 244.652 272.484 243.434 272.484C241.783 272.484 240.6 271.246 240.6 268.909C240.6 266.612 241.773 265.335 243.439 265.335C244.677 265.335 245.646 266.036 245.86 267.254H247.719ZM249.409 274H251.253V269.675H255.971V274H257.82V263.818H255.971V268.129H251.253V263.818H249.409V274ZM259.827 274H266.488V272.454H261.671V269.675H266.106V268.129H261.671V265.364H266.449V263.818H259.827V274ZM277.046 267.254C276.732 264.991 274.992 263.679 272.735 263.679C270.075 263.679 268.072 265.618 268.072 268.909C268.072 272.195 270.051 274.139 272.735 274.139C275.156 274.139 276.762 272.573 277.046 270.629L275.186 270.619C274.953 271.812 273.978 272.484 272.76 272.484C271.11 272.484 269.926 271.246 269.926 268.909C269.926 266.612 271.1 265.335 272.765 265.335C274.003 265.335 274.972 266.036 275.186 267.254H277.046ZM278.735 274H280.579V270.967L281.708 269.635L284.745 274H286.963L282.99 268.387L286.928 263.818H284.676L280.703 268.496H280.579V263.818H278.735V274ZM288.209 274H294.538V272.454H290.054V263.818H288.209V274ZM294.418 263.818L298.121 270.202V274H299.961V270.202L303.665 263.818H301.582L299.091 268.322H298.991L296.501 263.818H294.418ZM304.971 274H306.816V269.675H311.534V274H313.383V263.818H311.534V268.129H306.816V263.818H304.971V274ZM324.487 268.909C324.487 265.618 322.479 263.679 319.809 263.679C317.134 263.679 315.131 265.618 315.131 268.909C315.131 272.195 317.134 274.139 319.809 274.139C320.455 274.139 321.062 274.025 321.613 273.806L322.454 274.875H324.243L322.831 273.065C323.856 272.17 324.487 270.754 324.487 268.909ZM319.182 270.58L320.559 272.389C320.321 272.454 320.072 272.484 319.809 272.484C318.153 272.484 316.985 271.226 316.985 268.909C316.985 266.592 318.153 265.335 319.809 265.335C321.469 265.335 322.633 266.592 322.633 268.909C322.633 270.162 322.295 271.102 321.718 271.703L320.853 270.58H319.182ZM326.631 274.109C327.218 274.109 327.72 273.622 327.725 273.016C327.72 272.419 327.218 271.932 326.631 271.932C326.025 271.932 325.532 272.419 325.537 273.016C325.532 273.622 326.025 274.109 326.631 274.109ZM338.378 267.254C338.064 264.991 336.324 263.679 334.067 263.679C331.407 263.679 329.404 265.618 329.404 268.909C329.404 272.195 331.383 274.139 334.067 274.139C336.488 274.139 338.094 272.573 338.378 270.629L336.518 270.619C336.285 271.812 335.31 272.484 334.092 272.484C332.442 272.484 331.258 271.246 331.258 268.909C331.258 266.612 332.432 265.335 334.097 265.335C335.335 265.335 336.305 266.036 336.518 267.254H338.378ZM349.165 268.909C349.165 265.618 347.156 263.679 344.487 263.679C341.812 263.679 339.808 265.618 339.808 268.909C339.808 272.195 341.812 274.139 344.487 274.139C347.156 274.139 349.165 272.2 349.165 268.909ZM347.31 268.909C347.31 271.226 346.147 272.484 344.487 272.484C342.831 272.484 341.663 271.226 341.663 268.909C341.663 266.592 342.831 265.335 344.487 265.335C346.147 265.335 347.31 266.592 347.31 268.909ZM350.909 263.818V274H352.678V266.99H352.773L355.587 273.97H356.909L359.723 267.005H359.818V274H361.588V263.818H359.33L356.308 271.196H356.188L353.166 263.818H350.909Z" fill="#8492A6"/>
<rect y="297" width="600" height="3" fill="#45C8F1"/>
<defs>
<clipPath id="clip0">
<rect width="163" height="42.8397" fill="white" transform="translate(219 43)"/>
</clipPath>
</defs>
</svg>
