<svg width="600" height="300" viewBox="0 0 600 300" fill="none" xmlns="http://www.w3.org/2000/svg">
<rect width="600" height="300" fill="white"/>
<path fill-rule="evenodd" clip-rule="evenodd" d="M559.874 86.0298C559.625 85.5196 559.263 85.0534 558.723 84.7558C558.128 84.4302 557.478 84.3751 556.87 84.4835L556.826 84.4603C547.678 86.0411 538.448 93.011 532.881 103.694C526.882 115.206 526.796 127.846 531.682 136.496C541.498 135.698 551.747 128.492 557.745 116.981C563.335 106.263 563.785 94.5758 559.874 86.0298Z" fill="#828D8C"/>
<path fill-rule="evenodd" clip-rule="evenodd" d="M556.808 85.6627C547.795 87.3084 539.039 94.4096 533.913 104.246C528.486 114.659 527.894 126.725 532.333 135.245C541.785 134.147 551.288 126.842 556.713 116.429C561.9 106.485 562.704 95.0281 558.814 86.5258C558.65 86.1912 558.433 85.942 558.164 85.7942C557.854 85.6213 557.453 85.5749 557.073 85.6467C556.981 85.6604 556.89 85.672 556.808 85.6627ZM531.682 137.678C531.265 137.678 530.877 137.452 530.67 137.082C525.373 127.708 525.824 114.703 531.848 103.143C537.429 92.4318 546.694 85.012 556.63 83.295C556.724 83.2764 556.822 83.2741 556.918 83.2834C557.74 83.184 558.568 83.3295 559.276 83.7171C559.978 84.1025 560.53 84.7049 560.92 85.508C565.122 94.6889 564.297 106.951 558.777 117.532C552.754 129.09 542.407 136.81 531.775 137.673C531.743 137.676 531.713 137.678 531.682 137.678Z" fill="#121716"/>
<path fill-rule="evenodd" clip-rule="evenodd" d="M555.591 91.0448C558.139 92.4364 560.402 94.1189 562.305 95.9605C562.037 92.388 561.239 89.0115 559.874 86.0298C559.625 85.5196 559.263 85.0534 558.723 84.7558C558.128 84.4302 557.478 84.3751 556.87 84.4835L556.826 84.4603C553.672 85.0073 550.518 86.2352 547.496 87.989C550.174 88.5847 552.927 89.5907 555.591 91.0448Z" fill="#121716"/>
<path fill-rule="evenodd" clip-rule="evenodd" d="M541.286 93.6481C538.852 96.0715 536.529 98.813 534.394 101.869C538.902 101.555 543.882 102.66 548.394 105.34C552.882 107.998 556.252 111.839 558.185 115.951C559.76 112.526 560.956 109.093 561.822 105.728C559.477 102.642 556.446 99.9024 552.793 97.7331C549.073 95.5221 545.158 94.1926 541.286 93.6481Z" fill="#121716"/>
<path fill-rule="evenodd" clip-rule="evenodd" d="M529.66 108.16C528.12 111.179 526.823 114.198 525.768 117.189C529.968 117.087 534.396 118.183 538.373 120.646C542.393 123.12 544.189 126.884 546.022 130.757C549.643 128.986 551.414 125.599 553.342 122.801C551.024 118.714 547.685 115.098 543.328 112.411C538.982 109.725 534.294 108.384 529.66 108.16Z" fill="#121716"/>
<path fill-rule="evenodd" clip-rule="evenodd" d="M496.594 75.0995C500.411 78.9629 501.434 84.1949 498.877 86.782C496.322 89.369 491.156 88.3352 487.341 84.4696C483.526 80.6062 482.502 75.3742 485.057 72.7871C487.612 70.2001 492.778 71.2362 496.594 75.0995Z" fill="#828D8C"/>
<path fill-rule="evenodd" clip-rule="evenodd" d="M494.064 77.6637C495.981 79.5976 496.591 82.1247 495.436 83.2926C494.274 84.4672 491.782 83.8487 489.868 81.91C487.956 79.9714 487.345 77.4513 488.503 76.2787C489.663 75.1041 492.149 75.725 494.064 77.6637Z" fill="#121716"/>
<path fill-rule="evenodd" clip-rule="evenodd" d="M488.79 72.5454C487.949 72.5454 486.762 72.7323 485.882 73.623C483.822 75.7093 484.868 80.2953 488.166 83.6348C490.262 85.758 492.87 87.025 495.142 87.025C495.983 87.025 497.172 86.8381 498.052 85.9472C499.005 84.9826 499.335 83.4569 498.982 81.6498C498.594 79.6697 497.453 77.641 495.769 75.9354C493.672 73.8122 491.064 72.5454 488.79 72.5454ZM495.142 89.3881C492.263 89.3881 489.038 87.8626 486.516 85.3054C482.179 80.9136 481.176 75.047 484.232 71.9521C485.376 70.7934 486.951 70.182 488.79 70.182C491.668 70.182 494.893 71.7075 497.419 74.2647C499.426 76.2955 500.794 78.7559 501.27 81.1906C501.781 83.7962 501.222 86.0787 499.702 87.6181C498.558 88.7767 496.981 89.3881 495.142 89.3881Z" fill="#121716"/>
<path fill-rule="evenodd" clip-rule="evenodd" d="M531.682 75.0995C527.864 78.9629 526.841 84.1949 529.398 86.782C531.953 89.369 537.12 88.3352 540.935 84.4696C544.75 80.6062 545.773 75.3742 543.218 72.7871C540.663 70.2001 535.497 71.2362 531.682 75.0995Z" fill="#828D8C"/>
<path fill-rule="evenodd" clip-rule="evenodd" d="M534.212 77.6637C532.295 79.5976 531.684 82.1247 532.839 83.2926C534.002 84.4672 536.493 83.8487 538.407 81.91C540.319 79.9714 540.93 77.4513 539.773 76.2787C538.612 75.1041 536.126 75.725 534.212 77.6637Z" fill="#121716"/>
<path fill-rule="evenodd" clip-rule="evenodd" d="M532.507 75.9354C530.823 77.641 529.681 79.6697 529.293 81.6498C528.94 83.4569 529.27 84.9826 530.223 85.9472C531.103 86.8381 532.293 87.025 533.134 87.025C535.406 87.025 538.013 85.758 540.11 83.6348C543.407 80.2953 544.454 75.7093 542.393 73.623C541.514 72.7323 540.326 72.5454 539.485 72.5454C537.211 72.5454 534.604 73.8122 532.507 75.9354ZM528.573 87.6181C527.053 86.0787 526.495 83.7962 527.005 81.1906C527.482 78.7559 528.849 76.2955 530.857 74.2647C533.382 71.7075 536.607 70.182 539.485 70.182C541.324 70.182 542.899 70.7934 544.043 71.9521C547.1 75.047 546.097 80.9136 541.76 85.3054C539.237 87.8626 536.012 89.3881 533.134 89.3881C531.294 89.3881 529.717 88.7767 528.573 87.6181Z" fill="#121716"/>
<path fill-rule="evenodd" clip-rule="evenodd" d="M539.904 84.708C533.888 76.3048 524.621 70.182 514.138 70.182C503.654 70.182 494.387 76.3048 488.371 84.708C481.05 94.927 476.809 109.414 481.164 121.669C484.852 132.049 493.706 139.938 504.117 142.943C507.371 143.884 510.753 144.353 514.138 144.353C517.522 144.353 520.904 143.884 524.159 142.943C534.569 139.938 543.423 132.049 547.111 121.669C551.466 109.414 547.225 94.927 539.904 84.708Z" fill="#828D8C"/>
<path fill-rule="evenodd" clip-rule="evenodd" d="M542.391 89.3577C541.974 87.6799 540.914 86.0875 539.927 84.7074C538.669 82.9487 537.261 81.3007 535.736 79.7776C530.296 77.1329 524.079 77.1375 519.338 80.3753C516.868 82.0648 515.136 84.4235 514.138 87.112C513.139 84.4235 511.407 82.0648 508.937 80.3753C504.196 77.1375 497.979 77.1329 492.539 79.7776C491.014 81.3007 489.606 82.9487 488.348 84.7074C487.361 86.0875 486.301 87.6799 485.884 89.3577C485.449 91.1048 484.822 93.4496 484.904 95.2173C485.039 98.093 486.796 100.212 489.116 101.733C489.683 102.106 495.753 106.81 495.187 107.145C495.616 106.891 496.156 106.581 496.758 106.261V106.798C498.959 105.499 502.159 103.907 504.301 104.156L504.329 104.16C504.39 104.167 504.44 104.195 504.5 104.207C505.09 104.363 505.607 104.654 506.004 105.144C506.92 106.272 507.002 107.576 506.683 108.843C506.92 108.668 507.132 108.446 507.362 108.259C507.337 109.132 507.141 109.794 507.141 109.794L506.742 110.362C509.092 110.812 511.56 111.059 514.115 111.059H514.129C514.147 111.059 514.151 111.059 514.151 111.059C516.715 111.059 519.183 110.812 521.533 110.362L521.134 109.794C521.134 109.794 520.938 109.132 520.913 108.259C521.143 108.446 521.355 108.668 521.592 108.843C521.273 107.576 521.355 106.272 522.272 105.144C522.668 104.654 523.186 104.363 523.776 104.207C523.835 104.195 523.885 104.167 523.947 104.16L523.974 104.156C526.116 103.907 529.316 105.499 531.518 106.798V106.261C532.119 106.581 532.659 106.891 533.088 107.145C532.523 106.81 538.592 102.106 539.159 101.733C541.479 100.212 543.237 98.093 543.371 95.2173C543.453 93.4496 542.826 91.1048 542.391 89.3577Z" fill="#EDEDEA"/>
<path fill-rule="evenodd" clip-rule="evenodd" d="M514.138 115.875C505.302 115.875 498.143 124.802 498.143 135.815C498.143 138.015 498.44 140.122 498.966 142.1C499.932 142.393 500.89 142.709 501.881 142.942C505.862 143.884 509.999 144.352 514.138 144.352C518.276 144.352 522.413 143.884 526.395 142.942C527.386 142.709 528.343 142.393 529.309 142.1C529.836 140.122 530.132 138.015 530.132 135.815C530.132 124.802 522.974 115.875 514.138 115.875Z" fill="#EDEDEA"/>
<path fill-rule="evenodd" clip-rule="evenodd" d="M515.943 97.8021C515.549 97.9316 515.136 97.9962 514.723 98.0307C514.755 97.9592 514.814 97.9038 514.814 97.823V96.2213C514.888 96.1637 514.967 96.1245 515.031 96.046L516.271 94.5275C516.761 93.9275 516.531 93.4358 515.76 93.4358H512.515C511.745 93.4358 511.515 93.9275 512.004 94.5275L513.244 96.046C513.354 96.1822 513.486 96.2767 513.62 96.3506V97.823C513.62 97.9038 513.677 97.9592 513.707 98.0307C513.294 97.9937 512.884 97.9291 512.492 97.8021C511.986 97.6384 510.94 97.0245 510.797 97.9777C510.797 98.0354 510.797 98.093 510.797 98.1507C510.797 100.059 512.319 101.606 514.213 101.61H514.222C516.116 101.606 517.638 100.059 517.638 98.1507C517.638 98.093 517.638 98.0354 517.638 97.9777C517.495 97.0245 516.449 97.6384 515.943 97.8021Z" fill="#121716"/>
<path fill-rule="evenodd" clip-rule="evenodd" d="M514.138 71.3631C504.75 71.3631 495.702 76.4798 489.317 85.402C481.276 96.6252 478.507 110.703 482.263 121.269C485.713 130.985 494.21 138.855 504.436 141.807C510.699 143.616 517.579 143.616 523.837 141.807C534.066 138.855 542.562 130.985 546.012 121.269C549.768 110.703 546.999 96.6252 538.961 85.402C532.573 76.4798 523.525 71.3631 514.138 71.3631ZM514.138 145.534C510.614 145.534 507.134 145.045 503.795 144.078C492.694 140.874 483.824 132.647 480.066 122.068C475.2 108.377 480.679 93.4335 487.427 84.0127C494.258 74.4717 503.994 69 514.138 69C524.282 69 534.018 74.4717 540.85 84.0127C547.596 93.4335 553.075 108.377 548.21 122.068C544.451 132.647 535.581 140.874 524.478 144.078C521.141 145.045 517.661 145.534 514.138 145.534Z" fill="#121716"/>
<path fill-rule="evenodd" clip-rule="evenodd" d="M504.762 84.1164C503.777 83.5787 502.679 83.3063 501.496 83.3063C498.196 83.3063 494.909 86.113 493.298 88.0006C490.588 91.1741 488.082 97.5576 493.264 99.7477C495.137 100.54 497.202 100.779 499.217 100.816C501.79 100.867 504.541 100.807 506.571 98.97C508.632 97.1053 508.964 94.059 508.773 91.414C508.524 87.9798 507.1 85.3858 504.762 84.1164Z" fill="#121716"/>
<path fill-rule="evenodd" clip-rule="evenodd" d="M504.885 89.6325C504.848 89.1802 504.358 88.6816 504.071 88.4231C503.431 87.8576 502.612 87.5438 501.762 87.5438C501.494 87.5438 501.218 87.5736 500.937 87.6339C499.853 87.8645 498.941 88.5269 498.437 89.4523C498.246 89.8031 497.92 90.5025 498.004 90.9018C498.075 91.2341 498.385 91.4625 498.702 91.5201C499.123 91.5986 499.287 91.3979 499.488 91.0519C499.527 90.9847 499.568 90.9154 499.613 90.8418C500.224 89.884 501.086 89.3578 502.04 89.3578C502.576 89.3578 502.902 89.5146 503.387 89.8402C503.706 90.0549 504.055 90.4863 504.488 90.2554C504.8 90.0871 504.903 89.8677 504.885 89.6325Z" fill="#FFFFFE"/>
<path fill-rule="evenodd" clip-rule="evenodd" d="M523.514 84.1164C524.498 83.5787 525.597 83.3063 526.779 83.3063C530.08 83.3063 533.366 86.113 534.977 88.0006C537.687 91.1741 540.194 97.5576 535.012 99.7477C533.138 100.54 531.073 100.779 529.059 100.816C526.486 100.867 523.735 100.807 521.704 98.97C519.644 97.1053 519.311 94.059 519.502 91.414C519.751 87.9798 521.175 85.3858 523.514 84.1164Z" fill="#121716"/>
<path fill-rule="evenodd" clip-rule="evenodd" d="M523.391 89.6325C523.427 89.1802 523.917 88.6816 524.204 88.4231C524.845 87.8576 525.663 87.5438 526.513 87.5438C526.782 87.5438 527.058 87.5736 527.338 87.6339C528.423 87.8645 529.335 88.5269 529.838 89.4523C530.03 89.8031 530.355 90.5025 530.271 90.9018C530.2 91.2341 529.891 91.4625 529.574 91.5201C529.152 91.5986 528.988 91.3979 528.788 91.0519C528.749 90.9847 528.708 90.9154 528.662 90.8418C528.051 89.884 527.19 89.3578 526.235 89.3578C525.699 89.3578 525.374 89.5146 524.888 89.8402C524.569 90.0549 524.22 90.4863 523.787 90.2554C523.475 90.0871 523.372 89.8677 523.391 89.6325Z" fill="#FFFFFE"/>
<path fill-rule="evenodd" clip-rule="evenodd" d="M490.978 111.149C490.668 111.149 490.358 111.024 490.128 110.777C489.686 110.302 489.709 109.554 490.178 109.106C490.445 108.852 492.838 106.595 494.536 105.767C495.112 105.488 495.812 105.73 496.092 106.318C496.372 106.905 496.129 107.611 495.547 107.895C494.385 108.462 492.432 110.205 491.778 110.828C491.552 111.043 491.265 111.149 490.978 111.149Z" fill="#121716"/>
<path fill-rule="evenodd" clip-rule="evenodd" d="M504.919 103.648C501.699 101.687 496.682 104.419 494.946 105.492C493.515 104.781 492.252 103.743 491.097 102.642C489.704 101.317 488.829 100.484 487.899 98.7437C487.68 98.4207 487.338 98.1807 486.921 98.1807C485.556 98.1807 485.579 99.6439 486.121 100.507C487.794 103.166 489.704 104.888 492.286 106.646C493.013 107.14 493.781 107.597 494.599 107.925C494.955 108.068 495.367 108.031 495.689 107.814C497.111 106.856 501.621 104.405 503.72 105.674C504.741 106.295 505.286 107.149 505.338 108.213C505.432 110.131 503.914 112.462 501.277 114.451C498.57 116.494 493.79 117.068 489.659 115.852C486.716 114.987 482.799 112.859 480.838 107.65C480.611 107.036 479.929 106.731 479.334 106.967C478.73 107.198 478.43 107.881 478.66 108.49C480.456 113.265 484.13 116.685 489.007 118.121C490.679 118.615 492.428 118.855 494.137 118.855C497.391 118.855 500.502 117.985 502.672 116.348C505.983 113.849 507.804 110.842 507.668 108.096C507.576 106.249 506.601 104.671 504.919 103.648Z" fill="#121716"/>
<path fill-rule="evenodd" clip-rule="evenodd" d="M537.297 111.149C537.607 111.149 537.917 111.024 538.147 110.777C538.59 110.302 538.567 109.554 538.097 109.106C537.831 108.852 535.438 106.595 533.74 105.767C533.163 105.488 532.464 105.73 532.183 106.318C531.903 106.905 532.147 107.611 532.728 107.895C533.89 108.462 535.843 110.205 536.497 110.828C536.723 111.043 537.01 111.149 537.297 111.149Z" fill="#121716"/>
<path fill-rule="evenodd" clip-rule="evenodd" d="M523.356 103.648C526.577 101.687 531.593 104.419 533.329 105.492C534.761 104.781 536.024 103.743 537.179 102.642C538.571 101.317 539.446 100.484 540.376 98.7437C540.595 98.4207 540.937 98.1807 541.354 98.1807C542.719 98.1807 542.697 99.6439 542.154 100.507C540.481 103.166 538.571 104.888 535.989 106.646C535.262 107.14 534.494 107.597 533.676 107.925C533.32 108.068 532.908 108.031 532.586 107.814C531.164 106.856 526.654 104.405 524.555 105.674C523.534 106.295 522.99 107.149 522.937 108.213C522.844 110.131 524.361 112.462 526.998 114.451C529.706 116.494 534.485 117.068 538.617 115.852C541.559 114.987 545.477 112.859 547.437 107.65C547.664 107.036 548.346 106.731 548.941 106.967C549.545 107.198 549.846 107.881 549.616 108.49C547.82 113.265 544.146 116.685 539.269 118.121C537.596 118.615 535.848 118.855 534.139 118.855C530.884 118.855 527.773 117.985 525.603 116.348C522.292 113.849 520.471 110.842 520.608 108.096C520.699 106.249 521.674 104.671 523.356 103.648Z" fill="#121716"/>
<path fill-rule="evenodd" clip-rule="evenodd" d="M496.66 127.715C500.484 131.587 501.332 137.016 498.547 139.834C495.762 142.654 490.401 141.802 486.577 137.927C482.753 134.05 481.905 128.626 484.695 125.806C487.475 122.984 492.836 123.84 496.66 127.715Z" fill="#828D8C"/>
<path fill-rule="evenodd" clip-rule="evenodd" d="M495.372 132.206C497.473 134.338 497.82 137.445 496.14 139.148C494.458 140.851 491.386 140.505 489.282 138.373C487.176 136.238 486.83 133.129 488.512 131.426C490.194 129.723 493.266 130.073 495.372 132.206Z" fill="#EDEDEA"/>
<path fill-rule="evenodd" clip-rule="evenodd" d="M488.979 125.324C487.564 125.324 486.37 125.778 485.52 126.642C484.442 127.731 484.011 129.381 484.31 131.287C484.626 133.33 485.725 135.391 487.402 137.092C490.62 140.355 495.49 141.262 497.722 138.998C498.797 137.909 499.226 136.261 498.93 134.354C498.61 132.31 497.512 130.249 495.835 128.55C493.84 126.531 491.279 125.324 488.979 125.324ZM494.258 142.679C491.309 142.679 488.209 141.25 485.752 138.762C483.728 136.713 482.397 134.186 482.003 131.654C481.586 128.982 482.249 126.607 483.87 124.971C485.164 123.655 486.93 122.96 488.979 122.96C491.926 122.96 495.028 124.389 497.485 126.879C499.509 128.929 500.839 131.451 501.234 133.985C501.651 136.658 500.99 139.032 499.372 140.669C498.073 141.984 496.304 142.679 494.258 142.679Z" fill="#121716"/>
<path fill-rule="evenodd" clip-rule="evenodd" d="M531.616 127.715C527.792 131.587 526.944 137.016 529.729 139.834C532.514 142.654 537.874 141.802 541.699 137.927C545.523 134.05 546.371 128.626 543.581 125.806C540.8 122.984 535.44 123.84 531.616 127.715Z" fill="#828D8C"/>
<path fill-rule="evenodd" clip-rule="evenodd" d="M532.903 132.206C530.802 134.338 530.455 137.445 532.136 139.148C533.817 140.851 536.889 140.505 538.993 138.373C541.099 136.238 541.445 133.129 539.763 131.426C538.081 129.723 535.009 130.073 532.903 132.206Z" fill="#EDEDEA"/>
<path fill-rule="evenodd" clip-rule="evenodd" d="M532.441 128.55C530.763 130.249 529.665 132.31 529.346 134.354C529.05 136.261 529.478 137.909 530.554 138.998C532.785 141.262 537.655 140.355 540.873 137.092C542.551 135.391 543.649 133.33 543.966 131.287C544.264 129.381 543.834 127.731 542.756 126.642C541.906 125.778 540.711 125.324 539.296 125.324C536.997 125.324 534.435 126.531 532.441 128.55ZM528.904 140.669C527.286 139.032 526.625 136.658 527.042 133.985C527.436 131.451 528.767 128.929 530.791 126.879C533.248 124.389 536.35 122.96 539.296 122.96C541.345 122.96 543.111 123.655 544.406 124.971C546.026 126.607 546.689 128.982 546.272 131.654C545.878 134.186 544.547 136.713 542.523 138.762C540.066 141.25 536.967 142.679 534.018 142.679C531.971 142.679 530.203 141.984 528.904 140.669Z" fill="#121716"/>
<path fill-rule="evenodd" clip-rule="evenodd" d="M521.46 71.5435C521.515 71.3682 521.572 71.1976 521.622 71.0127C519.197 70.4752 516.697 70.182 514.138 70.182C511.578 70.182 509.078 70.4752 506.653 71.0127C506.703 71.1976 506.76 71.3682 506.815 71.5435L505.541 71.7698L505.719 72.3191L505.776 72.7483C506.147 72.6167 506.542 72.5313 506.963 72.5313C507.64 72.5313 508.356 72.8131 508.914 73.1869C511.015 74.6176 512.554 76.547 513.593 78.7327C513.709 78.9011 513.878 79.035 514.117 79.035C514.381 79.035 514.571 78.8782 514.685 78.6844H514.703C515.744 76.5195 517.274 74.6086 519.361 73.1869C519.919 72.8131 520.635 72.5313 521.312 72.5313C521.734 72.5313 522.128 72.6167 522.499 72.7483L522.556 72.3191L522.734 71.7698L521.46 71.5435Z" fill="#121716"/>
<path fill-rule="evenodd" clip-rule="evenodd" d="M556.517 178.683C556.797 177.991 557.093 177.29 557.404 176.582C557.77 175.752 558.129 174.972 558.483 174.242C558.616 173.844 558.766 173.49 558.932 173.18C559.098 172.87 559.269 172.527 559.446 172.151C559.491 172.107 559.646 172.063 559.911 172.019C560.177 171.974 560.503 171.936 560.891 171.902C561.278 171.869 561.693 171.858 562.136 171.869C562.578 171.88 562.999 171.919 563.397 171.985C563.796 172.052 564.144 172.146 564.443 172.267C564.742 172.389 564.936 172.55 565.024 172.749C564.847 173.081 564.571 173.578 564.194 174.242C563.818 174.906 563.431 175.636 563.032 176.433C562.634 177.229 562.263 178.053 561.92 178.905C561.577 179.757 561.361 180.526 561.272 181.212C561.118 182.185 561.101 182.86 561.223 183.236C561.344 183.613 561.549 183.779 561.837 183.734C562.125 183.69 562.468 183.469 562.866 183.071C563.265 182.672 563.663 182.185 564.061 181.61C564.792 180.128 565.401 178.894 565.888 177.91C566.375 176.925 566.795 176.09 567.149 175.404C567.504 174.718 567.797 174.148 568.029 173.695C568.262 173.241 568.5 172.804 568.743 172.384C569.075 172.273 569.479 172.184 569.955 172.118C570.431 172.052 570.912 172.035 571.399 172.068C571.886 172.102 572.346 172.179 572.777 172.301C573.209 172.422 573.524 172.616 573.723 172.881L572.96 174.64C572.65 175.371 572.312 176.167 571.947 177.03C571.582 177.893 571.206 178.767 570.818 179.652C570.431 180.537 570.06 181.406 569.706 182.257C569.352 183.109 569.031 183.889 568.743 184.597C568.964 184.42 569.191 184.199 569.424 183.933C569.656 183.668 569.927 183.303 570.237 182.838C570.547 182.374 570.934 181.776 571.399 181.046C571.864 180.316 572.44 179.387 573.126 178.258C573.48 177.661 573.862 177.307 574.271 177.196C574.681 177.085 575.035 177.113 575.334 177.279C575.633 177.445 575.837 177.699 575.948 178.042C576.059 178.385 575.992 178.723 575.749 179.055C575.262 179.94 574.709 180.897 574.089 181.925C573.469 182.954 572.799 183.922 572.08 184.83C571.361 185.737 570.608 186.522 569.822 187.186C569.036 187.85 568.245 188.259 567.448 188.414C567.249 189.233 566.967 190.107 566.601 191.036C566.236 191.965 565.832 192.883 565.39 193.791C564.947 194.698 564.488 195.572 564.012 196.413C563.536 197.253 563.088 197.995 562.667 198.636C562.357 199.123 561.948 199.477 561.438 199.698C560.929 199.92 560.415 200.019 559.895 199.997C559.374 199.975 558.882 199.837 558.417 199.582C557.952 199.328 557.609 198.946 557.388 198.437C557.188 197.862 557.139 197.281 557.238 196.695C557.338 196.108 557.543 195.522 557.853 194.936C558.162 194.349 558.544 193.763 558.998 193.177C559.452 192.59 559.922 192.009 560.409 191.434C560.763 191.014 561.101 190.61 561.422 190.223C561.743 189.836 562.042 189.443 562.318 189.045C562.595 188.646 562.844 188.226 563.065 187.783C563.287 187.341 563.464 186.865 563.597 186.356C563.22 186.71 562.833 187.031 562.435 187.319C562.036 187.606 561.616 187.844 561.173 188.032C560.73 188.22 560.26 188.337 559.762 188.381C559.264 188.425 558.738 188.37 558.185 188.215C557.011 187.905 556.181 187.324 555.694 186.472C555.557 186.231 555.443 185.976 555.353 185.706C555.011 186.175 554.633 186.602 554.217 186.987C553.763 187.407 553.259 187.756 552.706 188.032C552.153 188.309 551.533 188.447 550.847 188.447C549.696 188.292 548.838 187.85 548.274 187.12C547.864 186.59 547.559 185.993 547.359 185.329C547.194 185.534 547.028 185.733 546.862 185.925C546.154 186.743 545.429 187.385 544.688 187.85C543.946 188.314 543.188 188.547 542.413 188.547C542.037 188.547 541.539 188.408 540.919 188.132C540.299 187.855 539.63 187.496 538.91 187.053C538.191 186.611 537.483 186.113 536.785 185.56C536.088 185.007 535.485 184.453 534.976 183.9C534.732 184.608 534.544 185.46 534.411 186.456C534.279 187.451 534.367 188.724 534.677 190.273C533.814 190.096 533.089 189.869 532.502 189.592C531.916 189.316 531.429 189.028 531.041 188.729C530.654 188.431 530.355 188.143 530.145 187.866C529.935 187.59 529.796 187.363 529.73 187.186C529.586 186.778 529.485 186.335 529.427 185.858C529.136 186.18 528.838 186.49 528.534 186.788C527.981 187.297 527.284 187.7 526.443 187.999C525.602 188.298 524.694 188.447 523.72 188.447C523.056 188.447 522.403 188.353 521.761 188.165C521.119 187.977 520.522 187.711 519.968 187.369C519.415 187.026 518.928 186.611 518.507 186.124C518.271 185.851 518.07 185.557 517.904 185.242C517.774 185.384 517.643 185.523 517.511 185.659C516.692 186.5 515.801 187.175 514.838 187.684C513.875 188.193 512.807 188.447 511.634 188.447C511.103 188.447 510.539 188.375 509.941 188.231C509.343 188.088 508.779 187.877 508.248 187.601C507.716 187.324 507.24 186.976 506.82 186.555C506.508 186.244 506.264 185.896 506.086 185.512C505.858 185.799 505.627 186.069 505.392 186.323C504.595 187.186 503.737 187.828 502.819 188.248C501.9 188.668 500.854 188.779 499.681 188.58C499.194 188.491 498.79 188.353 498.469 188.165C498.148 187.977 497.888 187.767 497.689 187.534C497.49 187.302 497.34 187.048 497.241 186.771C497.141 186.495 497.08 186.212 497.058 185.925C497.014 185.372 497.053 184.769 497.174 184.116C497.296 183.463 497.457 182.805 497.656 182.141C497.855 181.477 498.076 180.83 498.32 180.2C498.563 179.569 498.785 178.999 498.984 178.49C499.161 177.982 499.294 177.578 499.382 177.279C499.471 176.98 499.482 176.776 499.416 176.665C499.349 176.554 499.189 176.527 498.934 176.582C498.68 176.637 498.309 176.765 497.822 176.964C497.268 177.207 496.77 177.583 496.328 178.092C495.885 178.601 495.498 179.204 495.166 179.901C494.834 180.598 494.551 181.339 494.319 182.125C494.087 182.91 493.909 183.696 493.788 184.481C493.666 185.267 493.594 186.019 493.572 186.738C493.55 187.457 493.572 188.071 493.638 188.58C492.731 188.314 491.984 188.093 491.397 187.916C490.811 187.739 490.335 187.557 489.969 187.369C489.604 187.18 489.339 186.976 489.173 186.755C489.007 186.533 488.879 186.246 488.791 185.892C488.83 185.377 488.899 184.827 488.996 184.243C488.69 184.59 488.367 184.929 488.027 185.261C487.097 186.168 486.079 186.965 484.972 187.651C483.866 188.337 482.692 188.879 481.453 189.277C480.213 189.675 478.963 189.874 477.701 189.874C476.373 189.874 475.034 189.631 473.683 189.144C472.333 188.657 471.121 187.949 470.048 187.02C468.974 186.091 468.105 184.957 467.441 183.618C466.777 182.279 466.467 180.747 466.512 179.021C466.556 177.982 466.783 176.903 467.192 175.786C467.602 174.668 468.155 173.562 468.852 172.467C469.55 171.371 470.369 170.298 471.309 169.247C472.25 168.196 473.257 167.212 474.331 166.293C475.404 165.375 476.528 164.545 477.701 163.804C478.874 163.063 480.058 162.438 481.254 161.929C482.56 161.42 483.86 161.077 485.155 160.9C486.45 160.723 487.606 160.79 488.625 161.099C489.643 161.409 490.462 162.023 491.082 162.941C491.701 163.86 492 165.159 491.978 166.841C491.956 167.947 491.652 169.009 491.065 170.027C490.478 171.045 489.759 171.947 488.907 172.732C488.055 173.518 487.136 174.143 486.151 174.607C485.166 175.072 484.275 175.304 483.478 175.304C483.124 175.304 482.709 175.194 482.233 174.972C481.757 174.751 481.276 174.452 480.789 174.076C481.918 173.412 482.914 172.605 483.777 171.653C484.64 170.702 485.271 169.784 485.67 168.899C486.179 167.527 486.306 166.592 486.051 166.094C485.797 165.596 485.321 165.386 484.624 165.464C483.926 165.541 483.085 165.845 482.1 166.376C481.115 166.907 480.158 167.521 479.228 168.218C478.299 168.915 477.469 169.634 476.738 170.376C476.008 171.117 475.543 171.731 475.344 172.218C474.679 173.036 474.132 173.927 473.7 174.889C473.268 175.852 472.975 176.814 472.82 177.777C472.665 178.739 472.654 179.674 472.787 180.581C472.92 181.489 473.23 182.296 473.717 183.004C474.204 183.712 474.879 184.282 475.742 184.713C476.605 185.145 477.679 185.383 478.963 185.427C479.914 185.471 480.955 185.211 482.084 184.647C483.213 184.083 484.375 183.353 485.57 182.457C486.765 181.56 487.961 180.554 489.156 179.436C489.649 178.976 490.13 178.52 490.601 178.068C490.687 177.801 490.775 177.533 490.866 177.262C491.408 175.647 492.006 174.032 492.659 172.417C493.312 170.802 493.976 169.297 494.651 167.903C495.326 166.509 495.985 165.287 496.627 164.236C497.268 163.185 497.833 162.427 498.32 161.962C498.541 161.763 498.962 161.652 499.582 161.63C500.201 161.608 500.816 161.658 501.424 161.78C502.033 161.901 502.553 162.078 502.985 162.311C503.417 162.543 503.555 162.803 503.4 163.091C503.179 163.489 502.885 163.987 502.52 164.584C502.155 165.182 501.767 165.829 501.358 166.526C500.948 167.223 500.522 167.942 500.08 168.683C499.637 169.424 499.227 170.138 498.851 170.824C498.475 171.51 498.143 172.135 497.855 172.699C497.567 173.263 497.368 173.722 497.257 174.076C498.386 172.926 499.476 172.19 500.528 171.869C501.579 171.548 502.448 171.615 503.134 172.068C503.821 172.522 504.258 173.341 504.446 174.524C504.634 175.708 504.44 177.207 503.865 179.021C503.533 180.039 503.3 180.803 503.168 181.311C503.035 181.82 502.935 182.23 502.869 182.539C502.78 183.004 502.769 183.303 502.835 183.436C502.902 183.568 503.024 183.585 503.201 183.485C503.378 183.386 503.594 183.203 503.848 182.938C504.103 182.672 504.363 182.351 504.628 181.975C504.894 181.643 505.16 181.295 505.425 180.93C505.617 180.666 505.801 180.414 505.975 180.173C505.985 180.143 505.996 180.113 506.006 180.083C506.194 179.552 506.41 179.044 506.654 178.557C507.119 177.65 507.672 176.803 508.314 176.018C508.956 175.232 509.653 174.546 510.406 173.96C511.158 173.374 511.933 172.909 512.73 172.566C513.527 172.223 514.302 172.052 515.054 172.052C516.382 172.052 517.34 172.279 517.926 172.732C518.513 173.186 518.812 173.767 518.823 174.475C518.834 175.183 518.607 175.968 518.142 176.831C517.677 177.694 517.079 178.546 516.349 179.387C515.619 180.227 514.789 180.996 513.859 181.693C512.929 182.39 512.011 182.927 511.103 183.303C511.125 183.9 511.236 184.343 511.435 184.63C511.634 184.918 511.894 185.095 512.215 185.161C512.536 185.228 512.901 185.2 513.311 185.078C513.72 184.957 514.124 184.763 514.523 184.498C514.921 184.276 515.336 183.928 515.768 183.452C516.2 182.976 516.637 182.457 517.079 181.892C517.141 181.814 517.202 181.736 517.262 181.657C517.362 180.695 517.611 179.756 518.009 178.839C518.408 177.921 518.933 177.052 519.586 176.234C520.239 175.415 520.964 174.696 521.761 174.076C522.558 173.457 523.405 172.964 524.301 172.599C525.198 172.234 526.089 172.052 526.974 172.052C527.372 172.052 527.787 172.102 528.219 172.201C528.651 172.301 529.055 172.456 529.431 172.666C529.807 172.876 530.123 173.141 530.377 173.462C530.632 173.783 530.781 174.165 530.825 174.607C530.848 175.05 530.781 175.531 530.626 176.051C530.471 176.571 530.278 177.074 530.045 177.561C529.813 178.048 529.575 178.49 529.331 178.889C529.088 179.287 528.9 179.597 528.767 179.818C528.568 180.017 528.258 180.222 527.837 180.432C527.417 180.642 526.919 180.747 526.343 180.747C525.989 180.747 525.624 180.675 525.247 180.532C524.871 180.388 524.556 180.178 524.301 179.901C524.047 179.624 523.892 179.287 523.836 178.889C523.781 178.49 523.919 178.048 524.251 177.561C524.628 177.074 525.037 176.759 525.48 176.615C525.923 176.471 526.354 176.344 526.775 176.234C526.775 176.145 526.808 176.034 526.874 175.902C526.941 175.769 526.991 175.625 527.024 175.47C527.057 175.315 527.062 175.177 527.04 175.055C527.018 174.934 526.93 174.84 526.775 174.773H526.808C526.432 174.574 526.011 174.624 525.546 174.923C525.081 175.221 524.633 175.669 524.201 176.267C523.77 176.864 523.382 177.567 523.039 178.374C522.696 179.182 522.464 179.995 522.342 180.814C522.22 181.632 522.243 182.407 522.409 183.137C522.575 183.867 522.956 184.464 523.554 184.929H523.521C524.096 185.283 524.572 185.432 524.949 185.377C525.325 185.322 525.779 185.139 526.31 184.83C526.664 184.608 527.04 184.276 527.439 183.834C527.837 183.391 528.252 182.888 528.684 182.324C529.116 181.76 529.553 181.146 529.995 180.482C530.006 180.466 530.016 180.451 530.026 180.435C530.323 179.314 530.7 178.157 531.157 176.964C531.667 175.636 532.22 174.325 532.818 173.031C533.415 171.736 534.035 170.492 534.677 169.297C535.319 168.102 535.928 167.013 536.503 166.028C537.079 165.043 537.593 164.191 538.047 163.472C538.501 162.753 538.849 162.239 539.093 161.929C539.359 161.708 539.707 161.57 540.139 161.514C540.57 161.459 541.013 161.47 541.467 161.547C541.921 161.625 542.341 161.769 542.729 161.979C543.116 162.189 543.398 162.427 543.575 162.692C543.487 163.024 543.304 163.506 543.027 164.136C542.751 164.767 542.413 165.469 542.015 166.244C541.616 167.018 541.196 167.82 540.753 168.65C540.31 169.48 539.895 170.26 539.508 170.99C539.121 171.72 538.789 172.35 538.512 172.881C538.235 173.412 538.064 173.767 537.997 173.944C538.639 173.457 539.331 173.036 540.072 172.682C540.814 172.328 541.594 172.151 542.413 172.151C543.52 172.151 544.422 172.433 545.119 172.998C545.817 173.562 546.22 174.364 546.331 175.404C546.398 176.333 546.215 177.235 545.783 178.109C545.352 178.983 544.743 179.768 543.957 180.465C543.171 181.162 542.253 181.732 541.201 182.174C540.15 182.617 539.027 182.882 537.831 182.971L539.823 184.216C540.443 184.603 541.107 184.741 541.816 184.63C542.612 184.52 543.326 184.271 543.957 183.884C544.588 183.496 545.169 183.026 545.7 182.473C546.232 181.92 546.724 181.306 547.178 180.631C547.231 180.553 547.283 180.474 547.336 180.396C547.474 179.696 547.649 179.038 547.859 178.424C548.589 176.61 549.297 174.889 549.983 173.263C550.67 171.637 551.334 170.149 551.976 168.799C552.618 167.45 553.215 166.249 553.769 165.198C554.322 164.147 554.831 163.268 555.296 162.56C555.429 162.405 555.783 162.278 556.358 162.178C556.934 162.078 557.548 162.029 558.201 162.029C558.854 162.029 559.457 162.078 560.011 162.178C560.564 162.278 560.885 162.449 560.974 162.692C560.907 162.958 560.774 163.312 560.575 163.754C560.376 164.197 560.132 164.706 559.845 165.281C559.557 165.856 559.236 166.482 558.882 167.156C558.528 167.831 558.151 168.534 557.753 169.264C555.805 172.981 554.045 176.886 552.474 180.98C552.297 181.378 552.164 181.815 552.075 182.291C551.987 182.766 551.976 183.148 552.042 183.436C552.108 183.723 552.263 183.856 552.507 183.834C552.75 183.812 553.127 183.502 553.636 182.905C553.901 182.573 554.195 182.191 554.516 181.76C554.837 181.328 555.141 180.886 555.429 180.432C555.717 179.978 555.988 179.547 556.242 179.138C556.344 178.975 556.435 178.823 556.517 178.683ZM510.937 180.083C511.247 179.906 511.601 179.68 511.999 179.403C512.398 179.127 512.818 178.767 513.261 178.324C513.704 177.926 514.069 177.473 514.357 176.964C514.645 176.455 514.833 176.023 514.921 175.669C515.01 175.315 514.971 175.1 514.805 175.022C514.639 174.945 514.335 175.127 513.892 175.57C513.604 175.857 513.311 176.206 513.012 176.615C512.713 177.025 512.431 177.434 512.165 177.843C511.9 178.253 511.656 178.64 511.435 179.005C511.214 179.37 511.048 179.652 510.937 179.851V180.083ZM539.591 176.599C539.325 176.842 539.038 177.146 538.728 177.511C538.418 177.876 538.108 178.275 537.798 178.706C537.488 179.138 537.189 179.591 536.902 180.067C536.614 180.543 536.359 181.013 536.138 181.477C537.068 181.345 537.848 181.123 538.479 180.814C539.11 180.504 539.619 180.144 540.006 179.735C540.393 179.326 540.665 178.905 540.82 178.474C540.974 178.042 541.041 177.65 541.019 177.296C540.952 176.588 540.808 176.189 540.587 176.101C540.366 176.012 540.034 176.178 539.591 176.599Z" fill="#45C8F1"/>
<path d="M33.7195 264.254C33.4062 261.991 31.6662 260.679 29.4091 260.679C26.7493 260.679 24.7457 262.618 24.7457 265.909C24.7457 269.195 26.7244 271.139 29.4091 271.139C31.8303 271.139 33.4361 269.573 33.7195 267.629L31.8601 267.619C31.6264 268.812 30.652 269.484 29.4339 269.484C27.7834 269.484 26.6001 268.246 26.6001 265.909C26.6001 263.612 27.7734 262.335 29.4389 262.335C30.6768 262.335 31.6463 263.036 31.8601 264.254H33.7195ZM35.4086 271H37.253V266.675H41.9711V271H43.8205V260.818H41.9711V265.129H37.253V260.818H35.4086V271ZM45.8265 271H52.4885V269.454H47.671V266.675H52.1056V265.129H47.671V262.364H52.4487V260.818H45.8265V271ZM63.0456 264.254C62.7324 261.991 60.9924 260.679 58.7353 260.679C56.0755 260.679 54.0719 262.618 54.0719 265.909C54.0719 269.195 56.0506 271.139 58.7353 271.139C61.1564 271.139 62.7623 269.573 63.0456 267.629L61.1863 267.619C60.9526 268.812 59.9782 269.484 58.7601 269.484C57.1096 269.484 55.9263 268.246 55.9263 265.909C55.9263 263.612 57.0996 262.335 58.7651 262.335C60.003 262.335 60.9725 263.036 61.1863 264.254H63.0456ZM64.7347 271H66.5792V267.967L67.7077 266.635L70.7454 271H72.9627L68.9904 265.387L72.9279 260.818H70.6758L66.7035 265.496H66.5792V260.818H64.7347V271ZM74.2093 271H80.5382V269.454H76.0538V260.818H74.2093V271ZM80.4176 260.818L84.1214 267.202V271H85.9609V267.202L89.6648 260.818H87.5817L85.0909 265.322H84.9915L82.5007 260.818H80.4176ZM90.9711 271H92.8155V266.675H97.5336V271H99.383V260.818H97.5336V265.129H92.8155V260.818H90.9711V271ZM110.487 265.909C110.487 262.618 108.479 260.679 105.809 260.679C103.134 260.679 101.131 262.618 101.131 265.909C101.131 269.195 103.134 271.139 105.809 271.139C106.455 271.139 107.062 271.025 107.613 270.806L108.454 271.875H110.243L108.831 270.065C109.856 269.17 110.487 267.754 110.487 265.909ZM105.182 267.58L106.559 269.389C106.321 269.454 106.072 269.484 105.809 269.484C104.153 269.484 102.985 268.226 102.985 265.909C102.985 263.592 104.153 262.335 105.809 262.335C107.469 262.335 108.633 263.592 108.633 265.909C108.633 267.162 108.295 268.102 107.718 268.703L106.853 267.58H105.182ZM112.631 271.109C113.218 271.109 113.72 270.622 113.725 270.016C113.72 269.419 113.218 268.932 112.631 268.932C112.025 268.932 111.532 269.419 111.537 270.016C111.532 270.622 112.025 271.109 112.631 271.109ZM124.378 264.254C124.064 261.991 122.324 260.679 120.067 260.679C117.407 260.679 115.404 262.618 115.404 265.909C115.404 269.195 117.383 271.139 120.067 271.139C122.488 271.139 124.094 269.573 124.378 267.629L122.518 267.619C122.285 268.812 121.31 269.484 120.092 269.484C118.442 269.484 117.258 268.246 117.258 265.909C117.258 263.612 118.432 262.335 120.097 262.335C121.335 262.335 122.305 263.036 122.518 264.254H124.378ZM135.165 265.909C135.165 262.618 133.156 260.679 130.487 260.679C127.812 260.679 125.808 262.618 125.808 265.909C125.808 269.195 127.812 271.139 130.487 271.139C133.156 271.139 135.165 269.2 135.165 265.909ZM133.31 265.909C133.31 268.226 132.147 269.484 130.487 269.484C128.831 269.484 127.663 268.226 127.663 265.909C127.663 263.592 128.831 262.335 130.487 262.335C132.147 262.335 133.31 263.592 133.31 265.909ZM136.909 260.818V271H138.678V263.99H138.773L141.587 270.97H142.909L145.723 264.005H145.818V271H147.588V260.818H145.33L142.308 268.196H142.188L139.166 260.818H136.909ZM153.673 260.341H152.097L148.816 272.531H150.392L153.673 260.341Z" fill="#8492A6"/>
<path d="M158.351 271C161.453 271 163.293 269.081 163.293 265.899C163.293 262.727 161.453 260.818 158.421 260.818H154.901V271H158.351ZM156.745 269.404V262.414H158.316C160.384 262.414 161.463 263.567 161.463 265.899C161.463 268.241 160.384 269.404 158.262 269.404H156.745ZM174.143 265.909C174.143 262.618 172.135 260.679 169.465 260.679C166.79 260.679 164.787 262.618 164.787 265.909C164.787 269.195 166.79 271.139 169.465 271.139C172.135 271.139 174.143 269.2 174.143 265.909ZM172.289 265.909C172.289 268.226 171.126 269.484 169.465 269.484C167.809 269.484 166.641 268.226 166.641 265.909C166.641 263.592 167.809 262.335 169.465 262.335C171.126 262.335 172.289 263.592 172.289 265.909ZM184.602 264.254C184.289 261.991 182.549 260.679 180.292 260.679C177.632 260.679 175.629 262.618 175.629 265.909C175.629 269.195 177.607 271.139 180.292 271.139C182.713 271.139 184.319 269.573 184.602 267.629L182.743 267.619C182.509 268.812 181.535 269.484 180.317 269.484C178.666 269.484 177.483 268.246 177.483 265.909C177.483 263.612 178.656 262.335 180.322 262.335C181.56 262.335 182.529 263.036 182.743 264.254H184.602ZM191.825 263.617H193.6C193.565 261.897 192.098 260.679 189.931 260.679C187.793 260.679 186.187 261.882 186.192 263.682C186.192 265.143 187.231 265.984 188.906 266.416L190.065 266.714C191.164 266.993 191.889 267.336 191.894 268.126C191.889 268.996 191.064 269.578 189.861 269.578C188.708 269.578 187.813 269.061 187.738 267.992H185.923C185.998 270.016 187.504 271.154 189.876 271.154C192.317 271.154 193.734 269.936 193.739 268.141C193.734 266.376 192.277 265.571 190.746 265.208L189.791 264.969C188.956 264.771 188.051 264.418 188.061 263.567C188.066 262.802 188.752 262.24 189.906 262.24C191.004 262.24 191.73 262.752 191.825 263.617Z" fill="#45C8F1"/>
<rect y="297" width="600" height="3" fill="#45C8F1"/>
</svg>
