<svg width="600" height="300" viewBox="0 0 600 300" fill="none" xmlns="http://www.w3.org/2000/svg">
<rect width="600" height="300" fill="white"/>
<g clip-path="url(#clip0)">
<path fill-rule="evenodd" clip-rule="evenodd" d="M141.285 39.8336C141.511 39.2777 141.749 38.7152 142.001 38.1463C142.295 37.4798 142.585 36.8534 142.871 36.267C142.978 35.9471 143.099 35.6627 143.233 35.4139C143.367 35.1651 143.505 34.8897 143.648 34.5876C143.684 34.552 143.809 34.5165 144.023 34.481C144.237 34.4454 144.5 34.4143 144.813 34.3877C145.125 34.361 145.46 34.3521 145.817 34.361C146.174 34.3699 146.513 34.401 146.835 34.4543C147.156 34.5076 147.437 34.5831 147.678 34.6809C147.919 34.7786 148.076 34.9075 148.147 35.0674C148.004 35.334 147.781 35.7338 147.478 36.267C147.174 36.8001 146.862 37.3866 146.54 38.0263C146.219 38.6661 145.92 39.3281 145.643 40.0123C145.366 40.6965 145.192 41.314 145.121 41.8649C144.996 42.6468 144.982 43.1889 145.081 43.491C145.179 43.7931 145.344 43.9264 145.576 43.8908C145.808 43.8553 146.085 43.6776 146.406 43.3577C146.728 43.0378 147.049 42.6468 147.37 42.1848C147.96 40.9941 148.451 40.0034 148.843 39.2126C149.236 38.4217 149.575 37.7509 149.861 37.2C150.147 36.649 150.383 36.1914 150.571 35.8271C150.758 35.4628 150.95 35.1118 151.147 34.7742C151.414 34.6853 151.74 34.6142 152.124 34.5609C152.508 34.5076 152.896 34.4943 153.289 34.5209C153.682 34.5476 154.052 34.6098 154.401 34.7075C154.749 34.8053 155.003 34.9608 155.164 35.174L154.548 36.5868C154.298 37.1733 154.026 37.8131 153.731 38.5061C153.436 39.1992 153.133 39.9012 152.82 40.612C152.508 41.3229 152.209 42.0204 151.923 42.7046C151.638 43.3888 151.379 44.0152 151.147 44.5839C151.325 44.4417 151.508 44.264 151.696 44.0508C151.883 43.8375 152.102 43.5443 152.352 43.1711C152.602 42.7979 152.914 42.3181 153.289 41.7316C153.664 41.1452 154.128 40.3988 154.682 39.4924C154.967 39.0126 155.275 38.7283 155.606 38.6394C155.936 38.5506 156.222 38.5728 156.463 38.7061C156.704 38.8394 156.869 39.0437 156.958 39.3192C157.047 39.5946 156.994 39.8656 156.797 40.1322C156.405 40.8431 155.958 41.6117 155.458 42.438C154.958 43.2644 154.418 44.0419 153.838 44.7705C153.258 45.4991 152.651 46.13 152.017 46.6631C151.383 47.1963 150.745 47.525 150.102 47.6494C149.941 48.307 149.714 49.0089 149.419 49.7553C149.125 50.5017 148.799 51.2392 148.442 51.9679C148.085 52.6965 147.714 53.3984 147.33 54.0738C146.946 54.7491 146.585 55.3444 146.246 55.8598C145.996 56.2507 145.665 56.5351 145.255 56.7128C144.844 56.8905 144.429 56.9705 144.009 56.9527C143.59 56.9349 143.193 56.8239 142.818 56.6195C142.443 56.4151 142.166 56.1086 141.987 55.6998C141.827 55.2378 141.787 54.7713 141.867 54.3003C141.947 53.8294 142.112 53.3585 142.362 52.8875C142.612 52.4166 142.92 51.9456 143.286 51.4747C143.652 51.0038 144.032 50.5373 144.424 50.0752C144.71 49.7376 144.982 49.4132 145.241 49.1022C145.5 48.7912 145.741 48.4758 145.964 48.1559C146.188 47.836 146.388 47.4984 146.567 47.143C146.746 46.7875 146.888 46.4055 146.995 45.9967C146.692 46.2811 146.38 46.5387 146.058 46.7698C145.737 47.0008 145.398 47.1918 145.04 47.3429C144.683 47.4939 144.304 47.5872 143.902 47.6228C143.501 47.6583 143.076 47.6139 142.63 47.4895C141.684 47.2407 141.014 46.7742 140.622 46.09C140.51 45.8965 140.419 45.6912 140.346 45.4742C140.071 45.8508 139.765 46.1938 139.43 46.5032C139.064 46.8409 138.658 47.1208 138.211 47.3429C137.765 47.565 137.265 47.6761 136.711 47.6761C135.783 47.5517 135.091 47.1963 134.636 46.6098C134.305 46.1841 134.06 45.7046 133.898 45.1713C133.765 45.3365 133.632 45.4962 133.498 45.6502C132.926 46.3077 132.342 46.8231 131.744 47.1963C131.145 47.5695 130.534 47.7561 129.909 47.7561C129.605 47.7561 129.204 47.645 128.704 47.4229C128.204 47.2007 127.664 46.9119 127.084 46.5565C126.503 46.2011 125.932 45.8012 125.37 45.357C124.807 44.9127 124.321 44.4684 123.91 44.0241C123.714 44.5928 123.562 45.277 123.455 46.0767C123.348 46.8764 123.419 47.8982 123.669 49.1422C122.973 49.0001 122.388 48.8179 121.915 48.5958C121.442 48.3736 121.049 48.1426 120.736 47.9027C120.424 47.6628 120.183 47.4317 120.013 47.2096C119.844 46.9875 119.732 46.8053 119.678 46.6631C119.563 46.3352 119.481 45.9797 119.434 45.5965C119.199 45.8555 118.959 46.1044 118.714 46.3433C118.268 46.752 117.706 47.0763 117.027 47.3162C116.349 47.5561 115.617 47.6761 114.831 47.6761C114.295 47.6761 113.769 47.6006 113.251 47.4495C112.733 47.2985 112.251 47.0852 111.805 46.8098C111.358 46.5343 110.966 46.2011 110.626 45.8101C110.436 45.5909 110.274 45.3549 110.14 45.1021C110.035 45.2162 109.93 45.3279 109.823 45.4369C109.162 46.1122 108.444 46.6543 107.667 47.063C106.89 47.4717 106.029 47.6761 105.083 47.6761C104.654 47.6761 104.199 47.6183 103.717 47.5028C103.235 47.3873 102.779 47.2185 102.351 46.9964C101.922 46.7742 101.539 46.4943 101.199 46.1567C100.948 45.9066 100.751 45.6273 100.607 45.3188C100.423 45.5489 100.237 45.766 100.048 45.9701C99.405 46.6631 98.7131 47.1785 97.9722 47.5162C97.2312 47.8538 96.3876 47.9427 95.4413 47.7827C95.0485 47.7116 94.7227 47.6006 94.4638 47.4495C94.2049 47.2985 93.9951 47.1296 93.8344 46.943C93.6738 46.7564 93.5532 46.5521 93.4729 46.3299C93.3926 46.1078 93.3435 45.8812 93.3256 45.6502C93.2899 45.2059 93.3211 44.7216 93.4193 44.1974C93.5175 43.6731 93.647 43.1444 93.8077 42.6113C93.9684 42.0782 94.1469 41.5584 94.3433 41.0519C94.5397 40.5454 94.7182 40.0878 94.8789 39.679C95.0218 39.2703 95.1289 38.946 95.2003 38.7061C95.2717 38.4662 95.2806 38.3018 95.2271 38.2129C95.1735 38.1241 95.0441 38.1018 94.8388 38.1463C94.6334 38.1907 94.3344 38.2929 93.9416 38.4528C93.4952 38.6483 93.0935 38.9504 92.7364 39.3592C92.3793 39.7679 92.0669 40.2522 91.7991 40.812C91.5312 41.3718 91.3036 41.9671 91.1161 42.598C90.9287 43.2289 90.7858 43.8597 90.6876 44.4906C90.5894 45.1215 90.5314 45.7257 90.5136 46.3033C90.4957 46.8808 90.5136 47.374 90.5671 47.7827C89.8351 47.5695 89.2325 47.3918 88.7594 47.2496C88.2862 47.1074 87.9024 46.9608 87.6078 46.8098C87.3132 46.6587 87.0989 46.4943 86.965 46.3166C86.8311 46.1389 86.7285 45.9079 86.657 45.6235C86.689 45.2098 86.7442 44.7686 86.8227 44.2997C86.5759 44.5781 86.3154 44.8505 86.0411 45.117C85.2912 45.8457 84.4699 46.4854 83.5772 47.0363C82.6845 47.5873 81.7382 48.0226 80.7383 48.3425C79.7385 48.6624 78.7298 48.8223 77.7121 48.8223C76.6408 48.8223 75.5606 48.6269 74.4715 48.2359C73.3824 47.8449 72.4049 47.2763 71.5389 46.5299C70.673 45.7835 69.9722 44.8727 69.4366 43.7975C68.901 42.7224 68.651 41.4917 68.6867 40.1056C68.7224 39.2703 68.9054 38.404 69.2357 37.5065C69.5661 36.6091 70.0124 35.7205 70.5748 34.8408C71.1372 33.9611 71.7978 33.0992 72.5566 32.2551C73.3154 31.411 74.1278 30.6202 74.9937 29.8826C75.8597 29.1451 76.7658 28.4787 77.7121 27.8834C78.6583 27.288 79.6135 26.786 80.5777 26.3773C81.6311 25.9685 82.68 25.6931 83.7245 25.5509C84.769 25.4087 85.7018 25.462 86.5231 25.7108C87.3444 25.9596 88.005 26.4528 88.505 27.1903C89.0049 27.9278 89.2459 28.9719 89.228 30.3225C89.2102 31.2111 88.9647 32.0641 88.4916 32.8815C88.0184 33.699 87.4382 34.4232 86.7508 35.0541C86.0634 35.685 85.3224 36.187 84.5279 36.5602C83.7334 36.9334 83.0148 37.12 82.372 37.12C82.0863 37.12 81.7516 37.0311 81.3677 36.8534C80.9838 36.6757 80.5955 36.4358 80.2027 36.1337C81.1133 35.6005 81.9167 34.9519 82.613 34.1877C83.3094 33.4236 83.8182 32.6861 84.1396 31.9752C84.5502 30.8734 84.6529 30.1226 84.4476 29.7227C84.2422 29.3229 83.8584 29.154 83.296 29.2162C82.7336 29.2784 82.0551 29.5228 81.2606 29.9493C80.4661 30.3758 79.6939 30.8689 78.944 31.4287C78.1941 31.9885 77.5246 32.5661 76.9354 33.1614C76.3462 33.7568 75.9713 34.2499 75.8106 34.6409C75.2749 35.2984 74.8331 36.0137 74.4849 36.7868C74.1367 37.5598 73.9002 38.3329 73.7752 39.1059C73.6502 39.879 73.6413 40.6298 73.7484 41.3584C73.8555 42.0871 74.1055 42.7357 74.4983 43.3044C74.8911 43.8731 75.4356 44.3307 76.132 44.6772C76.8283 45.0237 77.6942 45.2148 78.7297 45.2503C79.4975 45.2859 80.3366 45.0771 81.2472 44.6239C82.1578 44.1707 83.0951 43.5843 84.0592 42.8645C85.0234 42.1448 85.9875 41.3362 86.9516 40.4388C87.3491 40.0687 87.7376 39.7025 88.1169 39.34C88.1863 39.1256 88.2577 38.9099 88.3309 38.6927C88.7683 37.3954 89.2504 36.0981 89.7771 34.8008C90.3038 33.5035 90.8394 32.2951 91.384 31.1755C91.9285 30.0559 92.4597 29.0741 92.9774 28.2299C93.4952 27.3858 93.9505 26.7771 94.3433 26.4039C94.5218 26.244 94.8611 26.1551 95.361 26.1374C95.8609 26.1196 96.3564 26.1596 96.8474 26.2573C97.3383 26.3551 97.7579 26.4972 98.1061 26.6838C98.4542 26.8704 98.5658 27.0792 98.4408 27.3103C98.2623 27.6301 98.0257 28.03 97.7311 28.5098C97.4365 28.9896 97.1241 29.5094 96.7938 30.0692C96.4635 30.629 96.1198 31.2066 95.7627 31.8019C95.4056 32.3973 95.0753 32.9704 94.7718 33.5213C94.4683 34.0722 94.2005 34.5743 93.9684 35.0274C93.7362 35.4806 93.5756 35.8493 93.4863 36.1337C94.3969 35.2096 95.2762 34.6187 96.1243 34.361C96.9723 34.1033 97.6731 34.1566 98.2266 34.5209C98.7801 34.8853 99.1327 35.5428 99.2845 36.4935C99.4362 37.4443 99.28 38.6483 98.8158 40.1056C98.548 40.923 98.3605 41.5361 98.2534 41.9449C98.1463 42.3536 98.0659 42.6824 98.0123 42.9312C97.9409 43.3044 97.932 43.5443 97.9856 43.6509C98.0391 43.7575 98.1373 43.7709 98.2802 43.6909C98.423 43.6109 98.5971 43.4643 98.8024 43.2511C99.0077 43.0378 99.2175 42.7801 99.4318 42.478C99.646 42.2114 99.8603 41.9316 100.075 41.6383C100.229 41.4264 100.377 41.2237 100.518 41.0303C100.526 41.0064 100.535 40.9825 100.543 40.9586C100.695 40.5321 100.869 40.1233 101.065 39.7324C101.44 39.0037 101.887 38.324 102.404 37.6931C102.922 37.0622 103.485 36.5113 104.092 36.0404C104.699 35.5694 105.324 35.1962 105.966 34.9208C106.609 34.6453 107.234 34.5076 107.841 34.5076C108.912 34.5076 109.685 34.6898 110.158 35.0541C110.631 35.4184 110.872 35.8849 110.881 36.4536C110.89 37.0222 110.707 37.6531 110.332 38.3462C109.957 39.0393 109.475 39.7235 108.886 40.3988C108.296 41.0741 107.627 41.6916 106.877 42.2514C106.127 42.8112 105.386 43.2422 104.654 43.5443C104.672 44.0241 104.761 44.3795 104.922 44.6106C105.083 44.8416 105.292 44.9838 105.551 45.0371C105.81 45.0904 106.105 45.0682 106.435 44.9704C106.765 44.8727 107.091 44.7172 107.413 44.5039C107.734 44.3262 108.069 44.0463 108.417 43.6642C108.765 43.2822 109.118 42.8645 109.475 42.4114C109.524 42.3486 109.573 42.2855 109.622 42.2221C109.703 41.45 109.904 40.6956 110.225 39.9589C110.546 39.2214 110.97 38.5239 111.497 37.8664C112.023 37.2088 112.608 36.6313 113.251 36.1337C113.894 35.6361 114.577 35.2407 115.3 34.9475C116.023 34.6542 116.741 34.5076 117.456 34.5076C117.777 34.5076 118.112 34.5476 118.46 34.6276C118.808 34.7075 119.134 34.8319 119.437 35.0008C119.741 35.1696 119.995 35.3828 120.201 35.6405C120.406 35.8982 120.527 36.2048 120.562 36.5602C120.58 36.9156 120.527 37.3021 120.402 37.7198C120.277 38.1374 120.12 38.5417 119.933 38.9327C119.745 39.3236 119.554 39.679 119.357 39.9989C119.161 40.3188 119.009 40.5676 118.902 40.7453C118.741 40.9053 118.491 41.0696 118.152 41.2385C117.813 41.4073 117.411 41.4917 116.947 41.4917C116.661 41.4917 116.367 41.434 116.063 41.3184C115.759 41.2029 115.505 41.0341 115.3 40.812C115.094 40.5898 114.969 40.3188 114.925 39.9989C114.88 39.679 114.992 39.3236 115.26 38.9327C115.563 38.5417 115.893 38.2884 116.25 38.1729C116.608 38.0574 116.956 37.9552 117.295 37.8664C117.295 37.7953 117.322 37.7064 117.375 37.5998C117.429 37.4932 117.469 37.3777 117.496 37.2533C117.523 37.1289 117.527 37.0178 117.509 36.9201C117.491 36.8223 117.42 36.7468 117.295 36.6935H117.322C117.018 36.5335 116.679 36.5735 116.304 36.8134C115.929 37.0533 115.568 37.4132 115.219 37.893C114.871 38.3729 114.559 38.9371 114.282 39.5857C114.005 40.2344 113.818 40.8875 113.72 41.545C113.621 42.2026 113.639 42.8246 113.773 43.411C113.907 43.9975 114.215 44.4773 114.697 44.8505H114.67C115.135 45.1348 115.518 45.2548 115.822 45.2103C116.125 45.1659 116.491 45.0193 116.92 44.7705C117.206 44.5928 117.509 44.3262 117.831 43.9708C118.152 43.6154 118.487 43.2111 118.835 42.7579C119.183 42.3047 119.536 41.8116 119.893 41.2785C119.901 41.266 119.909 41.2536 119.918 41.2412C120.157 40.3404 120.461 39.411 120.83 38.4528C121.241 37.3865 121.687 36.3336 122.169 35.294C122.651 34.2544 123.151 33.2547 123.669 32.2951C124.187 31.3354 124.678 30.4602 125.142 29.6694C125.606 28.8786 126.021 28.1944 126.387 27.6168C126.753 27.0392 127.034 26.6261 127.231 26.3773C127.445 26.1996 127.726 26.0885 128.074 26.0441C128.423 25.9996 128.78 26.0085 129.146 26.0707C129.512 26.1329 129.851 26.2484 130.163 26.4173C130.476 26.5861 130.703 26.7771 130.846 26.9904C130.775 27.2569 130.628 27.6435 130.404 28.15C130.181 28.6564 129.909 29.2207 129.588 29.8427C129.266 30.4647 128.927 31.1089 128.57 31.7753C128.213 32.4417 127.878 33.0681 127.566 33.6546C127.253 34.241 126.985 34.7475 126.762 35.174C126.539 35.6005 126.401 35.8849 126.347 36.0271C126.865 35.6361 127.423 35.2984 128.021 35.0141C128.619 34.7298 129.248 34.5876 129.909 34.5876C130.802 34.5876 131.529 34.8142 132.092 35.2673C132.654 35.7205 132.98 36.3647 133.069 37.2C133.123 37.9464 132.975 38.6705 132.627 39.3725C132.279 40.0745 131.788 40.7053 131.154 41.2651C130.52 41.8249 129.78 42.2825 128.931 42.638C128.083 42.9934 127.177 43.2066 126.213 43.2777L127.82 44.2774C128.32 44.5884 128.856 44.6994 129.427 44.6106C130.07 44.5217 130.645 44.3218 131.154 44.0108C131.663 43.6998 132.132 43.3222 132.56 42.8779C132.989 42.4336 133.386 41.9404 133.752 41.3984C133.795 41.3355 133.837 41.2725 133.879 41.2095C133.991 40.647 134.132 40.119 134.301 39.6257C134.89 38.1685 135.462 36.7868 136.015 35.4806C136.569 34.1744 137.104 32.9793 137.622 31.8952C138.14 30.8112 138.622 29.8471 139.068 29.003C139.515 28.1588 139.925 27.4524 140.3 26.8837C140.407 26.7593 140.693 26.6572 141.157 26.5772C141.621 26.4972 142.117 26.4572 142.644 26.4572C143.17 26.4572 143.657 26.4972 144.103 26.5772C144.549 26.6572 144.808 26.7949 144.88 26.9904C144.826 27.2036 144.719 27.488 144.558 27.8434C144.398 28.1988 144.201 28.6076 143.969 29.0696C143.737 29.5317 143.478 30.0337 143.193 30.5757C142.907 31.1178 142.603 31.682 142.282 32.2684C140.711 35.254 139.291 38.3906 138.024 41.6783C137.881 41.9982 137.774 42.3492 137.702 42.7313C137.631 43.1133 137.622 43.4199 137.676 43.6509C137.729 43.8819 137.854 43.9886 138.051 43.9708C138.247 43.953 138.55 43.7042 138.961 43.2244C139.175 42.9578 139.412 42.6513 139.671 42.3047C139.93 41.9582 140.175 41.6028 140.407 41.2385C140.639 40.8742 140.858 40.5276 141.063 40.1989C141.145 40.068 141.219 39.9462 141.285 39.8336ZM104.52 40.9586C104.77 40.8164 105.056 40.6342 105.377 40.4121C105.699 40.19 106.038 39.9012 106.395 39.5458C106.752 39.2259 107.047 38.8616 107.279 38.4528C107.511 38.0441 107.663 37.6976 107.734 37.4132C107.805 37.1289 107.774 36.9556 107.64 36.8934C107.506 36.8312 107.261 36.9778 106.904 37.3332C106.672 37.5643 106.435 37.8442 106.194 38.1729C105.953 38.5017 105.725 38.8305 105.511 39.1592C105.297 39.488 105.1 39.799 104.922 40.0922C104.743 40.3855 104.609 40.612 104.52 40.772V40.9586ZM127.633 38.1596C127.418 38.3551 127.186 38.5994 126.936 38.8927C126.686 39.1859 126.436 39.5058 126.186 39.8523C125.936 40.1989 125.695 40.5632 125.463 40.9452C125.231 41.3273 125.026 41.705 124.847 42.0782C125.597 41.9715 126.227 41.7938 126.735 41.545C127.244 41.2962 127.655 41.0074 127.967 40.6787C128.28 40.3499 128.498 40.0123 128.623 39.6657C128.748 39.3192 128.802 39.0037 128.784 38.7194C128.731 38.1507 128.615 37.8308 128.436 37.7598C128.257 37.6887 127.99 37.8219 127.633 38.1596Z" fill="#45C8F1"/>
<path fill-rule="evenodd" clip-rule="evenodd" d="M56.0953 28.6622C55.9976 28.4626 55.8553 28.2802 55.643 28.1638C55.4093 28.0364 55.1539 28.0149 54.9148 28.0573L54.8978 28.0482C51.3025 28.6666 47.675 31.3933 45.4868 35.5726C43.1294 40.0762 43.0953 45.0212 45.0157 48.4051C48.8735 48.0926 52.9013 45.2739 55.2587 40.7704C57.4558 36.5776 57.6323 32.0055 56.0953 28.6622Z" fill="#828D8C"/>
<path fill-rule="evenodd" clip-rule="evenodd" d="M54.8906 28.5186C51.3482 29.1624 47.907 31.9405 45.8925 35.7885C43.7599 39.8623 43.527 44.5824 45.2718 47.9157C48.9862 47.486 52.7212 44.6284 54.853 40.5547C56.8915 36.6643 57.2078 32.1824 55.6788 28.8563C55.6143 28.7254 55.5292 28.6279 55.4235 28.5701C55.3017 28.5024 55.144 28.4843 54.9945 28.5124C54.9587 28.5177 54.9228 28.5222 54.8906 28.5186ZM45.0156 48.8674C44.8518 48.8674 44.6995 48.779 44.6179 48.6344C42.5364 44.967 42.7137 39.8794 45.0811 35.357C47.2746 31.1667 50.9155 28.264 54.8207 27.5923C54.8575 27.5851 54.8959 27.5842 54.9336 27.5878C55.2569 27.5489 55.5821 27.6058 55.8606 27.7575C56.1365 27.9082 56.3532 28.1439 56.5064 28.4581C58.158 32.0497 57.8338 36.8467 55.6644 40.9863C53.2972 45.5078 49.2308 48.5278 45.0524 48.8656C45.0398 48.8665 45.0281 48.8674 45.0156 48.8674Z" fill="#121716"/>
<path fill-rule="evenodd" clip-rule="evenodd" d="M54.4123 30.6241C55.4137 31.1685 56.3031 31.8267 57.0509 32.5472C56.9453 31.1496 56.6317 29.8287 56.0953 28.6622C55.9976 28.4626 55.8552 28.2802 55.6429 28.1638C55.4092 28.0364 55.1539 28.0149 54.9147 28.0573L54.8977 28.0482C53.6581 28.2622 52.4185 28.7426 51.2308 29.4287C52.2832 29.6617 53.3652 30.0552 54.4123 30.6241Z" fill="#121716"/>
<path fill-rule="evenodd" clip-rule="evenodd" d="M48.7901 31.6425C47.8335 32.5906 46.9208 33.6631 46.0815 34.8585C47.8532 34.7357 49.8103 35.1682 51.5837 36.2163C53.3473 37.2565 54.6721 38.7589 55.4315 40.3678C56.0505 39.0279 56.5208 37.6845 56.8611 36.3681C55.9394 35.161 54.7481 34.0893 53.3124 33.2406C51.8506 32.3757 50.3118 31.8555 48.7901 31.6425Z" fill="#121716"/>
<path fill-rule="evenodd" clip-rule="evenodd" d="M44.2211 37.3198C43.6157 38.5007 43.106 39.6817 42.6914 40.8518C44.3421 40.812 46.0824 41.2408 47.6454 42.2042C49.2254 43.1721 49.9312 44.6447 50.6513 46.1597C52.0746 45.4672 52.7705 44.1418 53.5282 43.0475C52.6173 41.4486 51.3052 40.0338 49.5927 38.9828C47.8845 37.9319 46.0422 37.4074 44.2211 37.3198Z" fill="#121716"/>
<path fill-rule="evenodd" clip-rule="evenodd" d="M31.2257 24.3862C32.726 25.8976 33.1281 27.9444 32.1231 28.9565C31.1191 29.9686 29.0885 29.5641 27.5892 28.0518C26.0898 26.5405 25.6876 24.4936 26.6917 23.4816C27.6958 22.4695 29.7262 22.8748 31.2257 24.3862Z" fill="#828D8C"/>
<path fill-rule="evenodd" clip-rule="evenodd" d="M30.2314 25.3893C30.9847 26.1459 31.2247 27.1345 30.7706 27.5914C30.3139 28.0509 29.3348 27.8089 28.5825 27.0505C27.831 26.2921 27.591 25.3062 28.0459 24.8475C28.5019 24.388 29.4791 24.6309 30.2314 25.3893Z" fill="#121716"/>
<path fill-rule="evenodd" clip-rule="evenodd" d="M28.1588 23.3869C27.8283 23.3869 27.3616 23.46 27.0159 23.8085C26.2062 24.6247 26.6173 26.4187 27.9134 27.7252C28.7374 28.5558 29.7621 29.0514 30.6551 29.0514C30.9856 29.0514 31.4532 28.9783 31.7989 28.6298C32.1733 28.2524 32.3032 27.6556 32.1644 26.9486C32.012 26.174 31.5634 25.3804 30.9014 24.7131C30.0774 23.8825 29.0527 23.3869 28.1588 23.3869ZM30.6551 29.9759C29.5238 29.9759 28.2564 29.3791 27.2649 28.3787C25.5604 26.6606 25.1663 24.3656 26.3675 23.1548C26.8171 22.7015 27.436 22.4623 28.1588 22.4623C29.2901 22.4623 30.5574 23.0591 31.5499 24.0595C32.339 24.854 32.8764 25.8165 33.0636 26.769C33.2642 27.7883 33.0448 28.6812 32.4474 29.2835C31.9977 29.7367 31.3779 29.9759 30.6551 29.9759Z" fill="#121716"/>
<path fill-rule="evenodd" clip-rule="evenodd" d="M45.0156 24.3862C43.5154 25.8976 43.1132 27.9444 44.1182 28.9565C45.1222 29.9686 47.1528 29.5641 48.6521 28.0518C50.1515 26.5405 50.5536 24.4936 49.5496 23.4816C48.5455 22.4695 46.515 22.8748 45.0156 24.3862Z" fill="#828D8C"/>
<path fill-rule="evenodd" clip-rule="evenodd" d="M46.0099 25.3893C45.2566 26.1459 45.0166 27.1345 45.4706 27.5914C45.9274 28.0509 46.9064 27.8089 47.6588 27.0505C48.4103 26.2921 48.6504 25.3062 48.1954 24.8475C47.7394 24.388 46.7623 24.6309 46.0099 25.3893Z" fill="#121716"/>
<path fill-rule="evenodd" clip-rule="evenodd" d="M45.34 24.7131C44.678 25.3804 44.2292 26.174 44.077 26.9486C43.9381 27.6556 44.068 28.2524 44.4424 28.6298C44.7882 28.9783 45.2557 29.0514 45.5862 29.0514C46.4793 29.0514 47.5039 28.5558 48.328 27.7252C49.6239 26.4187 50.0351 24.6247 49.2254 23.8085C48.8797 23.46 48.413 23.3869 48.0825 23.3869C47.1886 23.3869 46.164 23.8825 45.34 24.7131ZM43.794 29.2835C43.1965 28.6812 42.977 27.7883 43.1777 26.769C43.365 25.8165 43.9024 24.854 44.6914 24.0595C45.6838 23.0591 46.9512 22.4623 48.0825 22.4623C48.8053 22.4623 49.4242 22.7015 49.8738 23.1548C51.075 24.3656 50.6808 26.6606 48.9764 28.3787C47.9848 29.3791 46.7175 29.9759 45.5862 29.9759C44.8634 29.9759 44.2436 29.7367 43.794 29.2835Z" fill="#121716"/>
<path fill-rule="evenodd" clip-rule="evenodd" d="M48.2472 28.145C45.8826 24.8576 42.2408 22.4623 38.1207 22.4623C34.0005 22.4623 30.3586 24.8576 27.994 28.145C25.1171 32.1428 23.4503 37.8101 25.1618 42.6043C26.6111 46.6654 30.0908 49.7514 34.1822 50.9269C35.4613 51.2953 36.7905 51.4785 38.1207 51.4785C39.4507 51.4785 40.7799 51.2953 42.059 50.9269C46.1504 49.7514 49.6302 46.6654 51.0795 42.6043C52.7912 37.8101 51.1243 32.1428 48.2472 28.145Z" fill="#828D8C"/>
<path fill-rule="evenodd" clip-rule="evenodd" d="M49.2244 29.9641C49.0605 29.3077 48.644 28.6848 48.2562 28.1449C47.7618 27.4569 47.2083 26.8122 46.6091 26.2163C44.4711 25.1817 42.0276 25.1835 40.1646 26.4501C39.1936 27.1111 38.513 28.0338 38.1207 29.0856C37.7283 28.0338 37.0476 27.1111 36.0767 26.4501C34.2136 25.1835 31.7702 25.1817 29.6322 26.2163C29.033 26.8122 28.4794 27.4569 27.9851 28.1449C27.5972 28.6848 27.1807 29.3077 27.0168 29.9641C26.8457 30.6476 26.5994 31.5649 26.6317 32.2565C26.6846 33.3814 27.3751 34.2103 28.2869 34.8053C28.5099 34.9515 30.8952 36.7916 30.673 36.9225C30.8415 36.8231 31.0538 36.7022 31.2901 36.5767V36.787C32.1554 36.2787 33.4129 35.6557 34.2549 35.7532L34.2656 35.755C34.2898 35.7577 34.3095 35.7686 34.3328 35.7732C34.5648 35.8345 34.7681 35.9483 34.9239 36.1397C35.284 36.5812 35.3163 37.0913 35.1909 37.5869C35.284 37.5184 35.3673 37.4317 35.4578 37.3585C35.4479 37.6998 35.3709 37.9589 35.3709 37.9589L35.2142 38.181C36.1376 38.3571 37.1076 38.4537 38.1117 38.4537H38.1171C38.1242 38.4537 38.1261 38.4537 38.1261 38.4537C39.1336 38.4537 40.1037 38.3571 41.0272 38.181L40.8704 37.9589C40.8704 37.9589 40.7934 37.6998 40.7835 37.3585C40.8739 37.4317 40.9572 37.5184 41.0504 37.5869C40.9251 37.0913 40.9572 36.5812 41.3174 36.1397C41.4731 35.9483 41.6765 35.8345 41.9085 35.7732C41.9318 35.7686 41.9516 35.7577 41.9758 35.755L41.9864 35.7532C42.8283 35.6557 44.0859 36.2787 44.9512 36.787V36.5767C45.1876 36.7022 45.3999 36.8231 45.5683 36.9225C45.3461 36.7916 47.7313 34.9515 47.9543 34.8053C48.8661 34.2103 49.5568 33.3814 49.6096 32.2565C49.6419 31.5649 49.3955 30.6476 49.2244 29.9641Z" fill="#EDEDEA"/>
<path fill-rule="evenodd" clip-rule="evenodd" d="M38.1207 40.338C34.6481 40.338 31.8347 43.8303 31.8347 48.1388C31.8347 48.9992 31.9512 49.8235 32.1581 50.5972C32.5378 50.7119 32.9141 50.8355 33.3037 50.9268C34.8684 51.2951 36.4941 51.4784 38.1207 51.4784C39.7472 51.4784 41.3729 51.2951 42.9377 50.9268C43.3273 50.8355 43.7035 50.7119 44.0832 50.5972C44.2901 49.8235 44.4066 48.9992 44.4066 48.1388C44.4066 43.8303 41.5932 40.338 38.1207 40.338Z" fill="#EDEDEA"/>
<path fill-rule="evenodd" clip-rule="evenodd" d="M38.83 33.2676C38.6752 33.3183 38.513 33.3436 38.3509 33.3571C38.3634 33.3291 38.3866 33.3074 38.3866 33.2758V32.6492C38.4154 32.6266 38.4468 32.6113 38.4717 32.5806L38.959 31.9866C39.1516 31.7518 39.0612 31.5595 38.7584 31.5595H37.483C37.1802 31.5595 37.0898 31.7518 37.2823 31.9866L37.7695 32.5806C37.8126 32.6339 37.8645 32.6709 37.9174 32.6998V33.2758C37.9174 33.3074 37.9398 33.3291 37.9514 33.3571C37.7892 33.3426 37.6281 33.3173 37.474 33.2676C37.2751 33.2036 36.864 32.9634 36.8075 33.3363C36.8075 33.3589 36.8075 33.3814 36.8075 33.404C36.8075 34.1507 37.406 34.7556 38.1503 34.7574H38.1537C38.8981 34.7556 39.4964 34.1507 39.4964 33.404C39.4964 33.3814 39.4964 33.3589 39.4964 33.3363C39.44 32.9634 39.0289 33.2036 38.83 33.2676Z" fill="#121716"/>
<path fill-rule="evenodd" clip-rule="evenodd" d="M38.1207 22.9245C34.4313 22.9245 30.8754 24.9262 28.3657 28.4166C25.2058 32.8072 24.1175 38.3146 25.5936 42.448C26.9496 46.249 30.2888 49.3279 34.3077 50.4827C36.7691 51.1904 39.4732 51.1904 41.9327 50.4827C45.9525 49.3279 49.2916 46.249 50.6476 42.448C52.1238 38.3146 51.0356 32.8072 47.8765 28.4166C45.3658 24.9262 41.81 22.9245 38.1207 22.9245ZM38.1207 51.9407C36.7359 51.9407 35.3682 51.7493 34.056 51.371C29.6932 50.1178 26.2071 46.8992 24.7301 42.7604C22.8179 37.4046 24.9711 31.5586 27.6233 27.8731C30.3076 24.1406 34.134 22 38.1207 22C42.1073 22 45.9338 24.1406 48.619 27.8731C51.2702 31.5586 53.4235 37.4046 51.5112 42.7604C50.0342 46.8992 46.5482 50.1178 42.1845 51.371C40.8731 51.7493 39.5053 51.9407 38.1207 51.9407Z" fill="#121716"/>
<path fill-rule="evenodd" clip-rule="evenodd" d="M34.4358 27.9137C34.0489 27.7033 33.6172 27.5968 33.1523 27.5968C31.8553 27.5968 30.5638 28.6948 29.9305 29.4332C28.8656 30.6747 27.8803 33.172 29.9171 34.0288C30.6534 34.3385 31.4648 34.4324 32.2566 34.4468C33.2679 34.4666 34.3489 34.4433 35.1471 33.7245C35.9567 32.995 36.0875 31.8033 36.0122 30.7686C35.9146 29.4251 35.3548 28.4103 34.4358 27.9137Z" fill="#121716"/>
<path fill-rule="evenodd" clip-rule="evenodd" d="M34.4842 30.0716C34.4698 29.8946 34.2773 29.6996 34.1644 29.5985C33.9127 29.3772 33.5911 29.2545 33.2571 29.2545C33.1515 29.2545 33.0431 29.2661 32.9329 29.2897C32.5066 29.3799 32.1482 29.639 31.9503 30.0011C31.8751 30.1383 31.747 30.412 31.7801 30.5681C31.8078 30.6982 31.9297 30.7875 32.0542 30.81C32.2199 30.8408 32.2844 30.7622 32.3632 30.6269C32.3784 30.6006 32.3945 30.5735 32.4125 30.5447C32.6524 30.17 32.9911 29.9641 33.3664 29.9641C33.5768 29.9641 33.7049 30.0255 33.8957 30.1528C34.0211 30.2368 34.1582 30.4056 34.3283 30.3153C34.451 30.2494 34.4914 30.1636 34.4842 30.0716Z" fill="#FFFFFE"/>
<path fill-rule="evenodd" clip-rule="evenodd" d="M41.8055 27.9137C42.1924 27.7033 42.6241 27.5968 43.089 27.5968C44.386 27.5968 45.6775 28.6948 46.3108 29.4332C47.3757 30.6747 48.361 33.172 46.3242 34.0288C45.588 34.3385 44.7764 34.4324 43.9847 34.4468C42.9735 34.4666 41.8924 34.4433 41.0943 33.7245C40.2846 32.995 40.1538 31.8033 40.229 30.7686C40.3267 29.4251 40.8865 28.4103 41.8055 27.9137Z" fill="#121716"/>
<path fill-rule="evenodd" clip-rule="evenodd" d="M41.7571 30.0716C41.7715 29.8946 41.9641 29.6996 42.0769 29.5985C42.3287 29.3772 42.6501 29.2545 42.9842 29.2545C43.0899 29.2545 43.1983 29.2661 43.3085 29.2897C43.7348 29.3799 44.0932 29.639 44.2911 30.0011C44.3663 30.1383 44.4944 30.412 44.4613 30.5681C44.4334 30.6982 44.3117 30.7875 44.1871 30.81C44.0214 30.8408 43.957 30.7622 43.8782 30.6269C43.8629 30.6006 43.8468 30.5735 43.8289 30.5447C43.5888 30.17 43.2504 29.9641 42.875 29.9641C42.6644 29.9641 42.5365 30.0255 42.3456 30.1528C42.2203 30.2368 42.0832 30.4056 41.9131 30.3153C41.7903 30.2494 41.75 30.1636 41.7571 30.0716Z" fill="#FFFFFE"/>
<path fill-rule="evenodd" clip-rule="evenodd" d="M29.0187 38.489C28.8969 38.489 28.775 38.4402 28.6846 38.3436C28.5108 38.1576 28.5198 37.8651 28.7043 37.6899C28.8091 37.5906 29.7496 36.7076 30.4169 36.3834C30.6434 36.2743 30.9185 36.369 31.0286 36.5992C31.1388 36.8285 31.043 37.1049 30.8145 37.2159C30.3577 37.438 29.5902 38.1197 29.3331 38.3635C29.2444 38.4475 29.1315 38.489 29.0187 38.489Z" fill="#121716"/>
<path fill-rule="evenodd" clip-rule="evenodd" d="M34.4977 35.5546C33.232 34.7873 31.2606 35.8561 30.5781 36.276C30.0156 35.9979 29.5194 35.5916 29.0653 35.161C28.518 34.6428 28.174 34.3168 27.8087 33.636C27.7227 33.5096 27.5883 33.4158 27.4244 33.4158C26.8879 33.4158 26.8969 33.9882 27.11 34.3258C27.7674 35.3659 28.518 36.0395 29.5328 36.7274C29.8186 36.9207 30.1204 37.0994 30.442 37.2276C30.5816 37.2836 30.7438 37.2692 30.87 37.1843C31.429 36.8096 33.2016 35.8508 34.0265 36.3474C34.4277 36.5902 34.6418 36.9243 34.6624 37.3405C34.6992 38.0908 34.1026 39.0027 33.0663 39.7809C32.0023 40.58 30.124 40.8048 28.5001 40.3289C27.3437 39.9904 25.8041 39.158 25.0338 37.1202C24.9442 36.88 24.6764 36.7609 24.4426 36.8529C24.2053 36.9433 24.0871 37.2105 24.1775 37.4489C24.8833 39.317 26.3272 40.6549 28.244 41.2166C28.9013 41.4097 29.5884 41.5036 30.2601 41.5036C31.5391 41.5036 32.7617 41.1633 33.6144 40.5231C34.9159 39.5453 35.6316 38.3689 35.5778 37.2945C35.542 36.5722 35.1586 35.9546 34.4977 35.5546Z" fill="#121716"/>
<path fill-rule="evenodd" clip-rule="evenodd" d="M47.2226 38.489C47.3444 38.489 47.4663 38.4402 47.5567 38.3436C47.7304 38.1576 47.7214 37.8651 47.537 37.6899C47.4322 37.5906 46.4917 36.7076 45.8245 36.3834C45.5979 36.2743 45.323 36.369 45.2127 36.5992C45.1026 36.8285 45.1984 37.1049 45.4268 37.2159C45.8836 37.438 46.6512 38.1197 46.9082 38.3635C46.9968 38.4475 47.1097 38.489 47.2226 38.489Z" fill="#121716"/>
<path fill-rule="evenodd" clip-rule="evenodd" d="M41.7437 35.5546C43.0092 34.7873 44.9807 35.8561 45.6632 36.276C46.2257 35.9979 46.722 35.5916 47.1759 35.161C47.7233 34.6428 48.0672 34.3168 48.4327 33.636C48.5186 33.5096 48.653 33.4158 48.8169 33.4158C49.3533 33.4158 49.3446 33.9882 49.1314 34.3258C48.4739 35.3659 47.7233 36.0395 46.7085 36.7274C46.4227 36.9207 46.1209 37.0994 45.7994 37.2276C45.6596 37.2836 45.4975 37.2692 45.3712 37.1843C44.8123 36.8096 43.0397 35.8508 42.2148 36.3474C41.8136 36.5902 41.5995 36.9243 41.5788 37.3405C41.5422 38.0908 42.1387 39.0027 43.175 39.7809C44.2391 40.58 46.1174 40.8048 47.7412 40.3289C48.8976 39.9904 50.4372 39.158 51.2075 37.1202C51.297 36.88 51.5648 36.7609 51.7987 36.8529C52.036 36.9433 52.1542 37.2105 52.0637 37.4489C51.358 39.317 49.9142 40.6549 47.9973 41.2166C47.3399 41.4097 46.6529 41.5036 45.9812 41.5036C44.7021 41.5036 43.4795 41.1633 42.6268 40.5231C41.3254 39.5453 40.6097 38.3689 40.6635 37.2945C40.6993 36.5722 41.0826 35.9546 41.7437 35.5546Z" fill="#121716"/>
<path fill-rule="evenodd" clip-rule="evenodd" d="M31.2516 44.9697C32.7546 46.4847 33.0878 48.6082 31.9933 49.7107C30.8987 50.814 28.792 50.4808 27.2891 48.9648C25.7861 47.448 25.4529 45.3263 26.5493 44.223C27.642 43.1188 29.7487 43.4538 31.2516 44.9697Z" fill="#828D8C"/>
<path fill-rule="evenodd" clip-rule="evenodd" d="M30.7455 46.7267C31.5714 47.5609 31.7075 48.7761 31.0475 49.4424C30.3864 50.1089 29.179 49.9734 28.3522 49.1392C27.5246 48.304 27.3886 47.0878 28.0495 46.4215C28.7105 45.7552 29.9179 45.8924 30.7455 46.7267Z" fill="#EDEDEA"/>
<path fill-rule="evenodd" clip-rule="evenodd" d="M28.2331 44.0342C27.6769 44.0342 27.2075 44.2122 26.8735 44.5498C26.4499 44.976 26.2805 45.6215 26.3979 46.3673C26.5224 47.1664 26.9541 47.9726 27.6133 48.638C28.878 49.9147 30.7921 50.2695 31.669 49.3838C32.0917 48.9576 32.2602 48.313 32.1437 47.5672C32.0183 46.7673 31.5866 45.961 30.9274 45.2966C30.1436 44.5065 29.1369 44.0342 28.2331 44.0342ZM30.3076 50.8238C29.1486 50.8238 27.9304 50.2649 26.9649 49.2916C26.1694 48.4899 25.6464 47.5013 25.4915 46.5109C25.3275 45.4654 25.5882 44.5364 26.2251 43.8962C26.7338 43.3816 27.4279 43.1098 28.2331 43.1098C29.3912 43.1098 30.6104 43.6686 31.5758 44.6428C32.3713 45.4446 32.8943 46.4314 33.0492 47.4227C33.2132 48.4684 32.9534 49.3973 32.3174 50.0375C31.8069 50.552 31.1119 50.8238 30.3076 50.8238Z" fill="#121716"/>
<path fill-rule="evenodd" clip-rule="evenodd" d="M44.9896 44.9697C43.4867 46.4847 43.1535 48.6082 44.248 49.7107C45.3426 50.814 47.4492 50.4808 48.9522 48.9648C50.4552 47.448 50.7884 45.3263 49.692 44.223C48.5993 43.1188 46.4926 43.4538 44.9896 44.9697Z" fill="#828D8C"/>
<path fill-rule="evenodd" clip-rule="evenodd" d="M45.4957 46.7267C44.67 47.5609 44.5337 48.7761 45.194 49.4424C45.8549 50.1089 47.0623 49.9734 47.889 49.1392C48.7166 48.304 48.8528 47.0878 48.1917 46.4215C47.5307 45.7552 46.3233 45.8924 45.4957 46.7267Z" fill="#EDEDEA"/>
<path fill-rule="evenodd" clip-rule="evenodd" d="M45.314 45.2966C44.6547 45.961 44.223 46.7673 44.0975 47.5672C43.9812 48.313 44.1496 48.9576 44.5723 49.3838C45.4492 50.2695 47.3632 49.9147 48.628 48.638C49.2872 47.9726 49.719 47.1664 49.8434 46.3673C49.9607 45.6215 49.7915 44.976 49.3678 44.5498C49.0337 44.2122 48.5644 44.0342 48.0082 44.0342C47.1045 44.0342 46.0977 44.5065 45.314 45.2966ZM43.9238 50.0375C43.2879 49.3973 43.0282 48.4684 43.1921 47.4227C43.347 46.4314 43.8702 45.4446 44.6655 44.6428C45.6311 43.6686 46.8501 43.1098 48.0082 43.1098C48.8133 43.1098 49.5076 43.3816 50.0163 43.8962C50.6532 44.5364 50.9138 45.4654 50.7499 46.5109C50.5949 47.5013 50.0718 48.4899 49.2765 49.2916C48.3109 50.2649 47.0927 50.8238 45.9338 50.8238C45.1295 50.8238 44.4343 50.552 43.9238 50.0375Z" fill="#121716"/>
<path fill-rule="evenodd" clip-rule="evenodd" d="M40.9985 22.995C41.02 22.9264 41.0424 22.8596 41.062 22.7873C40.1091 22.577 39.1265 22.4623 38.1207 22.4623C37.1147 22.4623 36.1323 22.577 35.1792 22.7873C35.199 22.8596 35.2213 22.9264 35.2428 22.995L34.7421 23.0835L34.8119 23.2984L34.8343 23.4663C34.9804 23.4148 35.1353 23.3814 35.3011 23.3814C35.567 23.3814 35.8482 23.4916 36.0677 23.6379C36.8935 24.1976 37.4982 24.9524 37.9066 25.8074C37.9522 25.8733 38.0186 25.9257 38.1126 25.9257C38.2165 25.9257 38.2908 25.8643 38.3357 25.7885H38.3427C38.7522 24.9416 39.3532 24.1941 40.1736 23.6379C40.393 23.4916 40.6742 23.3814 40.9403 23.3814C41.106 23.3814 41.2608 23.4148 41.4069 23.4663L41.4293 23.2984L41.4991 23.0835L40.9985 22.995Z" fill="#121716"/>
</g>
<path d="M25.0043 271H29.1257C31.4574 271 32.6009 269.812 32.6009 268.226C32.6009 266.685 31.5071 265.78 30.4233 265.725V265.626C31.4176 265.392 32.2031 264.696 32.2031 263.458C32.2031 261.942 31.1094 260.818 28.902 260.818H25.0043V271ZM26.8487 269.459V266.476H28.8821C30.0206 266.476 30.7266 267.172 30.7266 268.082C30.7266 268.892 30.1697 269.459 28.8324 269.459H26.8487ZM26.8487 265.148V262.339H28.7131C29.7969 262.339 30.3587 262.911 30.3587 263.697C30.3587 264.592 29.6328 265.148 28.6733 265.148H26.8487ZM34.2054 271H40.5343V269.454H36.0499V260.818H34.2054V271ZM50.8366 265.909C50.8366 262.618 48.8281 260.679 46.1584 260.679C43.4837 260.679 41.4801 262.618 41.4801 265.909C41.4801 269.195 43.4837 271.139 46.1584 271.139C48.8281 271.139 50.8366 269.2 50.8366 265.909ZM48.9822 265.909C48.9822 268.226 47.8189 269.484 46.1584 269.484C44.5028 269.484 43.3345 268.226 43.3345 265.909C43.3345 263.592 44.5028 262.335 46.1584 262.335C47.8189 262.335 48.9822 263.592 48.9822 265.909ZM59.4015 264.07H61.2807C60.9675 262.071 59.2374 260.679 56.9853 260.679C54.3205 260.679 52.3219 262.638 52.3219 265.919C52.3219 269.141 54.231 271.139 57.04 271.139C59.5605 271.139 61.3652 269.518 61.3652 266.893V265.67H57.2338V267.112H59.5804C59.5506 268.564 58.5811 269.484 57.0499 269.484C55.3446 269.484 54.1763 268.206 54.1763 265.899C54.1763 263.607 55.3645 262.335 57.0101 262.335C58.2381 262.335 59.0733 262.991 59.4015 264.07ZM64.1779 271.109C64.7646 271.109 65.2667 270.622 65.2717 270.016C65.2667 269.419 64.7646 268.932 64.1779 268.932C63.5714 268.932 63.0792 269.419 63.0842 270.016C63.0792 270.622 63.5714 271.109 64.1779 271.109ZM75.9245 264.254C75.6113 261.991 73.8713 260.679 71.6142 260.679C68.9544 260.679 66.9508 262.618 66.9508 265.909C66.9508 269.195 68.9295 271.139 71.6142 271.139C74.0353 271.139 75.6412 269.573 75.9245 267.629L74.0652 267.619C73.8315 268.812 72.8571 269.484 71.639 269.484C69.9885 269.484 68.8052 268.246 68.8052 265.909C68.8052 263.612 69.9785 262.335 71.644 262.335C72.8819 262.335 73.8514 263.036 74.0652 264.254H75.9245ZM77.6136 271H79.4581V266.675H84.1761V271H86.0256V260.818H84.1761V265.129H79.4581V260.818H77.6136V271ZM88.0316 271H94.6935V269.454H89.8761V266.675H94.3107V265.129H89.8761V262.364H94.6538V260.818H88.0316V271ZM105.251 264.254C104.938 261.991 103.197 260.679 100.94 260.679C98.2805 260.679 96.277 262.618 96.277 265.909C96.277 269.195 98.2557 271.139 100.94 271.139C103.362 271.139 104.967 269.573 105.251 267.629L103.391 267.619C103.158 268.812 102.183 269.484 100.965 269.484C99.3146 269.484 98.1314 268.246 98.1314 265.909C98.1314 263.612 99.3047 262.335 100.97 262.335C102.208 262.335 103.178 263.036 103.391 264.254H105.251ZM106.94 271H108.784V267.967L109.913 266.635L112.95 271H115.168L111.195 265.387L115.133 260.818H112.881L108.909 265.496H108.784V260.818H106.94V271ZM116.414 271H122.743V269.454H118.259V260.818H116.414V271ZM122.623 260.818L126.327 267.202V271H128.166V267.202L131.87 260.818H129.787L127.296 265.322H127.197L124.706 260.818H122.623ZM133.176 271H135.021V266.675H139.739V271H141.588V260.818H139.739V265.129H135.021V260.818H133.176V271ZM152.692 265.909C152.692 262.618 150.684 260.679 148.014 260.679C145.339 260.679 143.336 262.618 143.336 265.909C143.336 269.195 145.339 271.139 148.014 271.139C148.66 271.139 149.267 271.025 149.819 270.806L150.659 271.875H152.449L151.037 270.065C152.061 269.17 152.692 267.754 152.692 265.909ZM147.387 267.58L148.765 269.389C148.526 269.454 148.277 269.484 148.014 269.484C146.358 269.484 145.19 268.226 145.19 265.909C145.19 263.592 146.358 262.335 148.014 262.335C149.674 262.335 150.838 263.592 150.838 265.909C150.838 267.162 150.5 268.102 149.923 268.703L149.058 267.58H147.387ZM154.836 271.109C155.423 271.109 155.925 270.622 155.93 270.016C155.925 269.419 155.423 268.932 154.836 268.932C154.23 268.932 153.737 269.419 153.742 270.016C153.737 270.622 154.23 271.109 154.836 271.109ZM166.583 264.254C166.27 261.991 164.529 260.679 162.272 260.679C159.613 260.679 157.609 262.618 157.609 265.909C157.609 269.195 159.588 271.139 162.272 271.139C164.694 271.139 166.299 269.573 166.583 267.629L164.723 267.619C164.49 268.812 163.515 269.484 162.297 269.484C160.647 269.484 159.463 268.246 159.463 265.909C159.463 263.612 160.637 262.335 162.302 262.335C163.54 262.335 164.51 263.036 164.723 264.254H166.583ZM177.37 265.909C177.37 262.618 175.361 260.679 172.692 260.679C170.017 260.679 168.013 262.618 168.013 265.909C168.013 269.195 170.017 271.139 172.692 271.139C175.361 271.139 177.37 269.2 177.37 265.909ZM175.515 265.909C175.515 268.226 174.352 269.484 172.692 269.484C171.036 269.484 169.868 268.226 169.868 265.909C169.868 263.592 171.036 262.335 172.692 262.335C174.352 262.335 175.515 263.592 175.515 265.909ZM179.114 260.818V271H180.884V263.99H180.978L183.792 270.97H185.114L187.928 264.005H188.023V271H189.793V260.818H187.536L184.513 268.196H184.393L181.371 260.818H179.114Z" fill="#8492A6"/>
<rect y="297" width="600" height="3" fill="#45C8F1"/>
<defs>
<clipPath id="clip0">
<rect width="133" height="34.9551" fill="white" transform="translate(24 22)"/>
</clipPath>
</defs>
</svg>
