<svg width="600" height="300" viewBox="0 0 600 300" fill="none" xmlns="http://www.w3.org/2000/svg">
<rect width="600" height="300" fill="white"/>
<path fill-rule="evenodd" clip-rule="evenodd" d="M559.874 96.0298C559.625 95.5196 559.263 95.0534 558.723 94.7558C558.128 94.4302 557.478 94.3751 556.87 94.4835L556.827 94.4603C547.679 96.0411 538.449 103.011 532.881 113.694C526.882 125.206 526.796 137.846 531.682 146.496C541.498 145.698 551.747 138.492 557.745 126.981C563.335 116.263 563.785 104.576 559.874 96.0298Z" fill="#828D8C"/>
<path fill-rule="evenodd" clip-rule="evenodd" d="M556.808 95.6627C547.795 97.3084 539.039 104.41 533.913 114.246C528.487 124.659 527.894 136.725 532.334 145.245C541.785 144.147 551.288 136.842 556.713 126.429C561.9 116.485 562.704 105.028 558.814 96.5258C558.65 96.1912 558.433 95.942 558.164 95.7942C557.854 95.6213 557.453 95.5749 557.073 95.6467C556.982 95.6604 556.89 95.672 556.808 95.6627ZM531.682 147.678C531.265 147.678 530.877 147.452 530.67 147.082C525.374 137.708 525.825 124.703 531.848 113.143C537.43 102.432 546.694 95.012 556.631 93.295C556.724 93.2764 556.822 93.2741 556.918 93.2834C557.74 93.184 558.568 93.3295 559.277 93.7171C559.978 94.1025 560.53 94.7049 560.92 95.508C565.122 104.689 564.297 116.951 558.777 127.532C552.754 139.09 542.407 146.81 531.775 147.673C531.743 147.676 531.714 147.678 531.682 147.678Z" fill="#121716"/>
<path fill-rule="evenodd" clip-rule="evenodd" d="M555.591 101.045C558.14 102.436 560.402 104.119 562.305 105.961C562.037 102.388 561.239 99.0115 559.874 96.0298C559.625 95.5196 559.263 95.0534 558.723 94.7558C558.128 94.4302 557.478 94.3751 556.87 94.4835L556.827 94.4603C553.672 95.0073 550.518 96.2352 547.496 97.989C550.174 98.5847 552.927 99.5907 555.591 101.045Z" fill="#121716"/>
<path fill-rule="evenodd" clip-rule="evenodd" d="M541.286 103.648C538.852 106.071 536.53 108.813 534.394 111.869C538.902 111.555 543.882 112.66 548.394 115.34C552.882 117.998 556.252 121.839 558.185 125.951C559.76 122.526 560.956 119.093 561.822 115.728C559.477 112.642 556.446 109.902 552.793 107.733C549.073 105.522 545.158 104.193 541.286 103.648Z" fill="#121716"/>
<path fill-rule="evenodd" clip-rule="evenodd" d="M529.66 118.16C528.12 121.179 526.823 124.198 525.768 127.189C529.968 127.087 534.396 128.183 538.373 130.646C542.394 133.12 544.189 136.884 546.022 140.757C549.643 138.986 551.414 135.599 553.342 132.801C551.024 128.714 547.686 125.098 543.328 122.411C538.982 119.725 534.294 118.384 529.66 118.16Z" fill="#121716"/>
<path fill-rule="evenodd" clip-rule="evenodd" d="M496.594 85.0995C500.411 88.9629 501.434 94.1949 498.877 96.782C496.323 99.369 491.156 98.3352 487.341 94.4696C483.526 90.6062 482.502 85.3742 485.057 82.7871C487.612 80.2001 492.778 81.2362 496.594 85.0995Z" fill="#828D8C"/>
<path fill-rule="evenodd" clip-rule="evenodd" d="M494.064 87.6637C495.981 89.5976 496.591 92.1247 495.436 93.2926C494.274 94.4672 491.782 93.8487 489.868 91.91C487.956 89.9714 487.345 87.4513 488.503 86.2787C489.663 85.1041 492.15 85.725 494.064 87.6637Z" fill="#121716"/>
<path fill-rule="evenodd" clip-rule="evenodd" d="M488.79 82.5454C487.949 82.5454 486.762 82.7323 485.882 83.623C483.822 85.7093 484.868 90.2953 488.166 93.6348C490.262 95.758 492.87 97.025 495.142 97.025C495.983 97.025 497.173 96.8381 498.052 95.9472C499.005 94.9826 499.335 93.4569 498.982 91.6498C498.595 89.6697 497.453 87.641 495.769 85.9354C493.672 83.8122 491.065 82.5454 488.79 82.5454ZM495.142 99.3881C492.263 99.3881 489.039 97.8626 486.516 95.3054C482.179 90.9136 481.176 85.047 484.232 81.9521C485.376 80.7934 486.951 80.182 488.79 80.182C491.669 80.182 494.893 81.7075 497.419 84.2647C499.427 86.2955 500.794 88.7559 501.27 91.1906C501.781 93.7962 501.223 96.0787 499.702 97.6181C498.558 98.7767 496.981 99.3881 495.142 99.3881Z" fill="#121716"/>
<path fill-rule="evenodd" clip-rule="evenodd" d="M531.682 85.0995C527.864 88.9629 526.841 94.1949 529.398 96.782C531.953 99.369 537.12 98.3352 540.935 94.4696C544.75 90.6062 545.773 85.3742 543.218 82.7871C540.664 80.2001 535.497 81.2362 531.682 85.0995Z" fill="#828D8C"/>
<path fill-rule="evenodd" clip-rule="evenodd" d="M534.212 87.6637C532.295 89.5976 531.684 92.1247 532.839 93.2926C534.002 94.4672 536.493 93.8487 538.407 91.91C540.319 89.9714 540.93 87.4513 539.773 86.2787C538.612 85.1041 536.126 85.725 534.212 87.6637Z" fill="#121716"/>
<path fill-rule="evenodd" clip-rule="evenodd" d="M532.507 85.9354C530.823 87.641 529.681 89.6697 529.293 91.6498C528.94 93.4569 529.27 94.9826 530.223 95.9472C531.103 96.8381 532.293 97.025 533.134 97.025C535.406 97.025 538.013 95.758 540.11 93.6348C543.407 90.2953 544.454 85.7093 542.393 83.623C541.514 82.7323 540.326 82.5454 539.485 82.5454C537.211 82.5454 534.604 83.8122 532.507 85.9354ZM528.573 97.6181C527.053 96.0787 526.495 93.7962 527.005 91.1906C527.482 88.7559 528.849 86.2955 530.857 84.2647C533.382 81.7075 536.607 80.182 539.485 80.182C541.324 80.182 542.899 80.7934 544.043 81.9521C547.1 85.047 546.097 90.9136 541.76 95.3054C539.237 97.8626 536.012 99.3881 533.134 99.3881C531.294 99.3881 529.717 98.7767 528.573 97.6181Z" fill="#121716"/>
<path fill-rule="evenodd" clip-rule="evenodd" d="M539.905 94.708C533.888 86.3048 524.621 80.182 514.138 80.182C503.654 80.182 494.388 86.3048 488.371 94.708C481.051 104.927 476.809 119.414 481.164 131.669C484.852 142.049 493.706 149.938 504.117 152.943C507.371 153.884 510.753 154.353 514.138 154.353C517.522 154.353 520.904 153.884 524.159 152.943C534.569 149.938 543.423 142.049 547.111 131.669C551.466 119.414 547.225 104.927 539.905 94.708Z" fill="#828D8C"/>
<path fill-rule="evenodd" clip-rule="evenodd" d="M542.391 99.3577C541.974 97.6799 540.914 96.0875 539.927 94.7074C538.669 92.9487 537.261 91.3007 535.736 89.7776C530.296 87.1329 524.079 87.1375 519.339 90.3753C516.868 92.0648 515.136 94.4235 514.138 97.112C513.14 94.4235 511.407 92.0648 508.937 90.3753C504.196 87.1375 497.979 87.1329 492.539 89.7776C491.015 91.3007 489.606 92.9487 488.348 94.7074C487.361 96.0875 486.301 97.6799 485.884 99.3577C485.449 101.105 484.822 103.45 484.905 105.217C485.039 108.093 486.796 110.212 489.116 111.733C489.684 112.106 495.753 116.81 495.188 117.145C495.616 116.891 496.156 116.581 496.758 116.261V116.798C498.959 115.499 502.159 113.907 504.301 114.156L504.329 114.16C504.39 114.167 504.44 114.195 504.5 114.207C505.09 114.363 505.607 114.654 506.004 115.144C506.92 116.272 507.002 117.576 506.683 118.843C506.92 118.668 507.132 118.446 507.362 118.259C507.337 119.132 507.141 119.794 507.141 119.794L506.742 120.362C509.092 120.812 511.56 121.059 514.115 121.059H514.129C514.147 121.059 514.152 121.059 514.152 121.059C516.715 121.059 519.183 120.812 521.533 120.362L521.134 119.794C521.134 119.794 520.939 119.132 520.913 118.259C521.143 118.446 521.355 118.668 521.593 118.843C521.274 117.576 521.355 116.272 522.272 115.144C522.668 114.654 523.186 114.363 523.776 114.207C523.835 114.195 523.885 114.167 523.947 114.16L523.974 114.156C526.116 113.907 529.316 115.499 531.518 116.798V116.261C532.119 116.581 532.66 116.891 533.088 117.145C532.523 116.81 538.592 112.106 539.159 111.733C541.479 110.212 543.237 108.093 543.371 105.217C543.453 103.45 542.826 101.105 542.391 99.3577Z" fill="#EDEDEA"/>
<path fill-rule="evenodd" clip-rule="evenodd" d="M514.138 125.875C505.302 125.875 498.143 134.802 498.143 145.815C498.143 148.015 498.44 150.122 498.966 152.1C499.932 152.393 500.89 152.709 501.881 152.942C505.863 153.884 509.999 154.352 514.138 154.352C518.277 154.352 522.413 153.884 526.395 152.942C527.386 152.709 528.343 152.393 529.309 152.1C529.836 150.122 530.132 148.015 530.132 145.815C530.132 134.802 522.974 125.875 514.138 125.875Z" fill="#EDEDEA"/>
<path fill-rule="evenodd" clip-rule="evenodd" d="M515.943 107.802C515.549 107.932 515.136 107.996 514.723 108.031C514.756 107.959 514.814 107.904 514.814 107.823V106.221C514.888 106.164 514.968 106.125 515.031 106.046L516.271 104.528C516.761 103.927 516.531 103.436 515.76 103.436H512.515C511.745 103.436 511.515 103.927 512.005 104.528L513.244 106.046C513.354 106.182 513.486 106.277 513.621 106.351V107.823C513.621 107.904 513.677 107.959 513.707 108.031C513.294 107.994 512.884 107.929 512.492 107.802C511.986 107.638 510.94 107.024 510.797 107.978C510.797 108.035 510.797 108.093 510.797 108.151C510.797 110.059 512.319 111.606 514.213 111.61H514.222C516.116 111.606 517.638 110.059 517.638 108.151C517.638 108.093 517.638 108.035 517.638 107.978C517.495 107.024 516.449 107.638 515.943 107.802Z" fill="#121716"/>
<path fill-rule="evenodd" clip-rule="evenodd" d="M514.138 81.3631C504.75 81.3631 495.703 86.4798 489.317 95.402C481.276 106.625 478.507 120.703 482.263 131.269C485.713 140.985 494.21 148.855 504.436 151.807C510.699 153.616 517.579 153.616 523.837 151.807C534.066 148.855 542.562 140.985 546.012 131.269C549.768 120.703 546.999 106.625 538.961 95.402C532.573 86.4798 523.525 81.3631 514.138 81.3631ZM514.138 155.534C510.614 155.534 507.134 155.045 503.795 154.078C492.694 150.874 483.824 142.647 480.066 132.068C475.2 118.377 480.679 103.433 487.427 94.0127C494.258 84.4717 503.994 79 514.138 79C524.282 79 534.018 84.4717 540.851 94.0127C547.597 103.433 553.075 118.377 548.21 132.068C544.452 142.647 535.581 150.874 524.478 154.078C521.141 155.045 517.661 155.534 514.138 155.534Z" fill="#121716"/>
<path fill-rule="evenodd" clip-rule="evenodd" d="M504.762 94.1164C503.777 93.5787 502.679 93.3063 501.496 93.3063C498.196 93.3063 494.909 96.113 493.298 98.0006C490.589 101.174 488.082 107.558 493.264 109.748C495.137 110.54 497.202 110.779 499.217 110.816C501.79 110.867 504.541 110.807 506.572 108.97C508.632 107.105 508.964 104.059 508.773 101.414C508.525 97.9798 507.1 95.3858 504.762 94.1164Z" fill="#121716"/>
<path fill-rule="evenodd" clip-rule="evenodd" d="M504.885 99.6325C504.848 99.1802 504.358 98.6816 504.071 98.4231C503.431 97.8576 502.612 97.5438 501.762 97.5438C501.494 97.5438 501.218 97.5736 500.938 97.6339C499.853 97.8645 498.941 98.5269 498.437 99.4523C498.246 99.8031 497.92 100.503 498.004 100.902C498.075 101.234 498.385 101.462 498.702 101.52C499.123 101.599 499.288 101.398 499.488 101.052C499.527 100.985 499.568 100.915 499.613 100.842C500.224 99.884 501.086 99.3578 502.041 99.3578C502.576 99.3578 502.902 99.5146 503.388 99.8402C503.707 100.055 504.055 100.486 504.488 100.255C504.8 100.087 504.903 99.8677 504.885 99.6325Z" fill="#FFFFFE"/>
<path fill-rule="evenodd" clip-rule="evenodd" d="M523.514 94.1164C524.498 93.5787 525.597 93.3063 526.78 93.3063C530.08 93.3063 533.366 96.113 534.977 98.0006C537.687 101.174 540.194 107.558 535.012 109.748C533.138 110.54 531.073 110.779 529.059 110.816C526.486 110.867 523.735 110.807 521.704 108.97C519.644 107.105 519.311 104.059 519.503 101.414C519.751 97.9798 521.175 95.3858 523.514 94.1164Z" fill="#121716"/>
<path fill-rule="evenodd" clip-rule="evenodd" d="M523.391 99.6325C523.427 99.1802 523.917 98.6816 524.204 98.4231C524.845 97.8576 525.663 97.5438 526.513 97.5438C526.782 97.5438 527.058 97.5736 527.338 97.6339C528.423 97.8645 529.335 98.5269 529.838 99.4523C530.03 99.8031 530.355 100.503 530.271 100.902C530.2 101.234 529.891 101.462 529.574 101.52C529.152 101.599 528.988 101.398 528.788 101.052C528.749 100.985 528.708 100.915 528.662 100.842C528.051 99.884 527.19 99.3578 526.235 99.3578C525.699 99.3578 525.374 99.5146 524.888 99.8402C524.569 100.055 524.22 100.486 523.787 100.255C523.475 100.087 523.373 99.8677 523.391 99.6325Z" fill="#FFFFFE"/>
<path fill-rule="evenodd" clip-rule="evenodd" d="M490.978 121.149C490.668 121.149 490.358 121.024 490.128 120.777C489.686 120.302 489.709 119.554 490.178 119.106C490.445 118.852 492.838 116.595 494.536 115.767C495.112 115.488 495.812 115.73 496.092 116.318C496.373 116.905 496.129 117.611 495.547 117.895C494.385 118.462 492.432 120.205 491.778 120.828C491.552 121.043 491.265 121.149 490.978 121.149Z" fill="#121716"/>
<path fill-rule="evenodd" clip-rule="evenodd" d="M504.919 113.648C501.699 111.687 496.683 114.419 494.946 115.492C493.515 114.781 492.252 113.743 491.097 112.642C489.704 111.317 488.829 110.484 487.899 108.744C487.68 108.421 487.339 108.181 486.921 108.181C485.556 108.181 485.579 109.644 486.121 110.507C487.794 113.166 489.704 114.888 492.286 116.646C493.013 117.14 493.781 117.597 494.6 117.925C494.955 118.068 495.368 118.031 495.689 117.814C497.111 116.856 501.621 114.405 503.72 115.674C504.741 116.295 505.286 117.149 505.338 118.213C505.432 120.131 503.914 122.462 501.277 124.451C498.57 126.494 493.79 127.068 489.659 125.852C486.716 124.987 482.799 122.859 480.839 117.65C480.611 117.036 479.929 116.731 479.334 116.967C478.73 117.198 478.43 117.881 478.66 118.49C480.456 123.265 484.13 126.685 489.007 128.121C490.68 128.615 492.428 128.855 494.137 128.855C497.391 128.855 500.502 127.985 502.672 126.348C505.983 123.849 507.804 120.842 507.668 118.096C507.576 116.249 506.601 114.671 504.919 113.648Z" fill="#121716"/>
<path fill-rule="evenodd" clip-rule="evenodd" d="M537.297 121.149C537.607 121.149 537.917 121.024 538.148 120.777C538.59 120.302 538.567 119.554 538.097 119.106C537.831 118.852 535.438 116.595 533.74 115.767C533.163 115.488 532.464 115.73 532.183 116.318C531.903 116.905 532.147 117.611 532.728 117.895C533.89 118.462 535.843 120.205 536.497 120.828C536.723 121.043 537.01 121.149 537.297 121.149Z" fill="#121716"/>
<path fill-rule="evenodd" clip-rule="evenodd" d="M523.356 113.648C526.577 111.687 531.593 114.419 533.33 115.492C534.761 114.781 536.024 113.743 537.179 112.642C538.572 111.317 539.446 110.484 540.377 108.744C540.595 108.421 540.937 108.181 541.354 108.181C542.719 108.181 542.697 109.644 542.154 110.507C540.481 113.166 538.572 114.888 535.989 116.646C535.262 117.14 534.494 117.597 533.676 117.925C533.32 118.068 532.908 118.031 532.587 117.814C531.165 116.856 526.654 114.405 524.555 115.674C523.534 116.295 522.99 117.149 522.937 118.213C522.844 120.131 524.362 122.462 526.998 124.451C529.706 126.494 534.485 127.068 538.617 125.852C541.559 124.987 545.477 122.859 547.437 117.65C547.665 117.036 548.346 116.731 548.941 116.967C549.545 117.198 549.846 117.881 549.616 118.49C547.82 123.265 544.146 126.685 539.269 128.121C537.596 128.615 535.848 128.855 534.139 128.855C530.884 128.855 527.773 127.985 525.604 126.348C522.292 123.849 520.471 120.842 520.608 118.096C520.699 116.249 521.674 114.671 523.356 113.648Z" fill="#121716"/>
<path fill-rule="evenodd" clip-rule="evenodd" d="M496.66 137.715C500.484 141.587 501.332 147.016 498.547 149.834C495.762 152.654 490.401 151.802 486.577 147.927C482.753 144.05 481.905 138.626 484.695 135.806C487.475 132.984 492.836 133.84 496.66 137.715Z" fill="#828D8C"/>
<path fill-rule="evenodd" clip-rule="evenodd" d="M495.372 142.206C497.473 144.338 497.82 147.445 496.14 149.148C494.458 150.851 491.386 150.505 489.282 148.373C487.177 146.238 486.83 143.129 488.512 141.426C490.194 139.723 493.266 140.073 495.372 142.206Z" fill="#EDEDEA"/>
<path fill-rule="evenodd" clip-rule="evenodd" d="M488.979 135.324C487.564 135.324 486.37 135.778 485.52 136.642C484.442 137.731 484.011 139.381 484.31 141.287C484.626 143.33 485.725 145.391 487.402 147.092C490.62 150.355 495.491 151.262 497.722 148.998C498.797 147.909 499.226 146.261 498.93 144.354C498.611 142.31 497.512 140.249 495.835 138.55C493.84 136.531 491.279 135.324 488.979 135.324ZM494.258 152.679C491.309 152.679 488.209 151.25 485.752 148.762C483.728 146.713 482.398 144.186 482.003 141.654C481.586 138.982 482.249 136.607 483.87 134.971C485.164 133.655 486.93 132.96 488.979 132.96C491.926 132.96 495.028 134.389 497.485 136.879C499.509 138.929 500.839 141.451 501.234 143.985C501.651 146.658 500.99 149.032 499.372 150.669C498.073 151.984 496.304 152.679 494.258 152.679Z" fill="#121716"/>
<path fill-rule="evenodd" clip-rule="evenodd" d="M531.616 137.715C527.792 141.587 526.944 147.016 529.729 149.834C532.514 152.654 537.874 151.802 541.699 147.927C545.523 144.05 546.371 138.626 543.581 135.806C540.8 132.984 535.44 133.84 531.616 137.715Z" fill="#828D8C"/>
<path fill-rule="evenodd" clip-rule="evenodd" d="M532.903 142.206C530.802 144.338 530.456 147.445 532.136 149.148C533.817 150.851 536.889 150.505 538.993 148.373C541.099 146.238 541.445 143.129 539.763 141.426C538.081 139.723 535.009 140.073 532.903 142.206Z" fill="#EDEDEA"/>
<path fill-rule="evenodd" clip-rule="evenodd" d="M532.441 138.55C530.763 140.249 529.665 142.31 529.346 144.354C529.05 146.261 529.478 147.909 530.554 148.998C532.785 151.262 537.655 150.355 540.873 147.092C542.551 145.391 543.649 143.33 543.966 141.287C544.264 139.381 543.834 137.731 542.756 136.642C541.906 135.778 540.711 135.324 539.296 135.324C536.997 135.324 534.435 136.531 532.441 138.55ZM528.904 150.669C527.286 149.032 526.625 146.658 527.042 143.985C527.436 141.451 528.767 138.929 530.791 136.879C533.248 134.389 536.35 132.96 539.296 132.96C541.345 132.96 543.111 133.655 544.406 134.971C546.026 136.607 546.69 138.982 546.272 141.654C545.878 144.186 544.547 146.713 542.523 148.762C540.067 151.25 536.967 152.679 534.018 152.679C531.971 152.679 530.203 151.984 528.904 150.669Z" fill="#121716"/>
<path fill-rule="evenodd" clip-rule="evenodd" d="M521.46 81.5435C521.515 81.3682 521.572 81.1976 521.622 81.0127C519.197 80.4752 516.697 80.182 514.138 80.182C511.578 80.182 509.078 80.4752 506.653 81.0127C506.704 81.1976 506.76 81.3682 506.815 81.5435L505.541 81.7698L505.719 82.3191L505.776 82.7483C506.147 82.6167 506.542 82.5313 506.963 82.5313C507.64 82.5313 508.356 82.8131 508.914 83.1869C511.015 84.6176 512.554 86.547 513.593 88.7327C513.709 88.9011 513.878 89.035 514.117 89.035C514.381 89.035 514.571 88.8782 514.685 88.6844H514.703C515.745 86.5195 517.274 84.6086 519.361 83.1869C519.92 82.8131 520.635 82.5313 521.312 82.5313C521.734 82.5313 522.128 82.6167 522.499 82.7483L522.556 82.3191L522.734 81.7698L521.46 81.5435Z" fill="#121716"/>
<path fill-rule="evenodd" clip-rule="evenodd" d="M556.517 188.683C556.797 187.991 557.093 187.29 557.404 186.582C557.77 185.752 558.129 184.972 558.483 184.242C558.616 183.844 558.766 183.49 558.932 183.18C559.098 182.87 559.269 182.527 559.446 182.151C559.491 182.107 559.646 182.063 559.911 182.019C560.177 181.974 560.503 181.936 560.891 181.902C561.278 181.869 561.693 181.858 562.136 181.869C562.578 181.88 562.999 181.919 563.397 181.985C563.796 182.052 564.145 182.146 564.443 182.267C564.742 182.389 564.936 182.55 565.024 182.749C564.847 183.081 564.571 183.578 564.194 184.242C563.818 184.906 563.431 185.636 563.032 186.433C562.634 187.229 562.263 188.053 561.92 188.905C561.577 189.757 561.361 190.526 561.272 191.212C561.118 192.185 561.101 192.86 561.223 193.236C561.344 193.613 561.549 193.779 561.837 193.734C562.125 193.69 562.468 193.469 562.866 193.071C563.265 192.672 563.663 192.185 564.062 191.61C564.792 190.128 565.401 188.894 565.888 187.91C566.375 186.925 566.795 186.09 567.149 185.404C567.504 184.718 567.797 184.148 568.029 183.695C568.262 183.241 568.5 182.804 568.743 182.384C569.075 182.273 569.479 182.184 569.955 182.118C570.431 182.052 570.912 182.035 571.399 182.068C571.886 182.102 572.346 182.179 572.777 182.301C573.209 182.422 573.524 182.616 573.724 182.881L572.96 184.64C572.65 185.371 572.312 186.167 571.947 187.03C571.582 187.893 571.206 188.767 570.818 189.652C570.431 190.537 570.06 191.406 569.706 192.257C569.352 193.109 569.031 193.889 568.743 194.597C568.964 194.42 569.191 194.199 569.424 193.933C569.656 193.668 569.927 193.303 570.237 192.838C570.547 192.374 570.934 191.776 571.399 191.046C571.864 190.316 572.44 189.387 573.126 188.258C573.48 187.661 573.862 187.307 574.271 187.196C574.681 187.085 575.035 187.113 575.334 187.279C575.633 187.445 575.837 187.699 575.948 188.042C576.059 188.385 575.992 188.723 575.749 189.055C575.262 189.94 574.709 190.897 574.089 191.925C573.469 192.954 572.799 193.922 572.08 194.83C571.361 195.737 570.608 196.522 569.822 197.186C569.036 197.85 568.245 198.259 567.448 198.414C567.249 199.233 566.967 200.107 566.602 201.036C566.236 201.965 565.832 202.883 565.39 203.791C564.947 204.698 564.488 205.572 564.012 206.413C563.536 207.253 563.088 207.995 562.667 208.636C562.357 209.123 561.948 209.477 561.438 209.698C560.929 209.92 560.415 210.019 559.895 209.997C559.374 209.975 558.882 209.837 558.417 209.582C557.952 209.328 557.609 208.946 557.388 208.437C557.189 207.862 557.139 207.281 557.238 206.695C557.338 206.108 557.543 205.522 557.853 204.936C558.162 204.349 558.544 203.763 558.998 203.177C559.452 202.59 559.922 202.009 560.409 201.434C560.763 201.014 561.101 200.61 561.422 200.223C561.743 199.836 562.042 199.443 562.318 199.045C562.595 198.646 562.844 198.226 563.065 197.783C563.287 197.341 563.464 196.865 563.597 196.356C563.22 196.71 562.833 197.031 562.435 197.319C562.036 197.606 561.616 197.844 561.173 198.032C560.73 198.22 560.26 198.337 559.762 198.381C559.264 198.425 558.738 198.37 558.185 198.215C557.011 197.905 556.181 197.324 555.694 196.472C555.557 196.231 555.443 195.976 555.353 195.706C555.011 196.175 554.633 196.602 554.217 196.987C553.763 197.407 553.26 197.756 552.706 198.032C552.153 198.309 551.533 198.447 550.847 198.447C549.696 198.292 548.838 197.85 548.274 197.12C547.864 196.59 547.559 195.993 547.359 195.329C547.194 195.534 547.028 195.733 546.862 195.925C546.154 196.743 545.429 197.385 544.688 197.85C543.946 198.314 543.188 198.547 542.413 198.547C542.037 198.547 541.539 198.408 540.919 198.132C540.299 197.855 539.63 197.496 538.91 197.053C538.191 196.611 537.483 196.113 536.785 195.56C536.088 195.007 535.485 194.453 534.976 193.9C534.732 194.608 534.544 195.46 534.411 196.456C534.279 197.451 534.367 198.724 534.677 200.273C533.814 200.096 533.089 199.869 532.502 199.592C531.916 199.316 531.429 199.028 531.041 198.729C530.654 198.431 530.355 198.143 530.145 197.866C529.935 197.59 529.796 197.363 529.73 197.186C529.586 196.778 529.485 196.335 529.427 195.858C529.136 196.18 528.838 196.49 528.534 196.788C527.981 197.297 527.284 197.7 526.443 197.999C525.602 198.298 524.694 198.447 523.72 198.447C523.056 198.447 522.403 198.353 521.761 198.165C521.119 197.977 520.522 197.711 519.968 197.369C519.415 197.026 518.928 196.611 518.507 196.124C518.271 195.851 518.07 195.557 517.904 195.242C517.774 195.384 517.643 195.523 517.511 195.659C516.692 196.5 515.801 197.175 514.838 197.684C513.875 198.193 512.807 198.447 511.634 198.447C511.103 198.447 510.539 198.375 509.941 198.231C509.343 198.088 508.779 197.877 508.248 197.601C507.716 197.324 507.24 196.976 506.82 196.555C506.508 196.244 506.264 195.896 506.086 195.512C505.858 195.799 505.627 196.069 505.392 196.323C504.595 197.186 503.738 197.828 502.819 198.248C501.9 198.668 500.854 198.779 499.681 198.58C499.194 198.491 498.79 198.353 498.469 198.165C498.148 197.977 497.888 197.767 497.689 197.534C497.49 197.302 497.34 197.048 497.241 196.771C497.141 196.495 497.08 196.212 497.058 195.925C497.014 195.372 497.053 194.769 497.174 194.116C497.296 193.463 497.457 192.805 497.656 192.141C497.855 191.477 498.076 190.83 498.32 190.2C498.563 189.569 498.785 188.999 498.984 188.49C499.161 187.982 499.294 187.578 499.382 187.279C499.471 186.98 499.482 186.776 499.416 186.665C499.349 186.554 499.189 186.527 498.934 186.582C498.68 186.637 498.309 186.765 497.822 186.964C497.269 187.207 496.77 187.583 496.328 188.092C495.885 188.601 495.498 189.204 495.166 189.901C494.834 190.598 494.551 191.339 494.319 192.125C494.087 192.91 493.909 193.696 493.788 194.481C493.666 195.267 493.594 196.019 493.572 196.738C493.55 197.457 493.572 198.071 493.638 198.58C492.731 198.314 491.984 198.093 491.397 197.916C490.811 197.739 490.335 197.557 489.969 197.369C489.604 197.18 489.339 196.976 489.173 196.755C489.007 196.533 488.879 196.246 488.791 195.892C488.83 195.377 488.899 194.827 488.996 194.243C488.69 194.59 488.367 194.929 488.027 195.261C487.097 196.168 486.079 196.965 484.972 197.651C483.866 198.337 482.692 198.879 481.453 199.277C480.213 199.675 478.963 199.874 477.701 199.874C476.373 199.874 475.034 199.631 473.683 199.144C472.333 198.657 471.121 197.949 470.048 197.02C468.974 196.091 468.105 194.957 467.441 193.618C466.777 192.279 466.467 190.747 466.512 189.021C466.556 187.982 466.783 186.903 467.192 185.786C467.602 184.668 468.155 183.562 468.852 182.467C469.55 181.371 470.369 180.298 471.309 179.247C472.25 178.196 473.257 177.212 474.331 176.293C475.404 175.375 476.528 174.545 477.701 173.804C478.874 173.063 480.058 172.438 481.254 171.929C482.56 171.42 483.86 171.077 485.155 170.9C486.45 170.723 487.606 170.79 488.625 171.099C489.643 171.409 490.462 172.023 491.082 172.941C491.702 173.86 492 175.159 491.978 176.841C491.956 177.947 491.652 179.009 491.065 180.027C490.479 181.045 489.759 181.947 488.907 182.732C488.055 183.518 487.136 184.143 486.151 184.607C485.166 185.072 484.275 185.304 483.478 185.304C483.124 185.304 482.709 185.194 482.233 184.972C481.757 184.751 481.276 184.452 480.789 184.076C481.918 183.412 482.914 182.605 483.777 181.653C484.64 180.702 485.271 179.784 485.67 178.899C486.179 177.527 486.306 176.592 486.051 176.094C485.797 175.596 485.321 175.386 484.624 175.464C483.927 175.541 483.085 175.845 482.1 176.376C481.115 176.907 480.158 177.521 479.228 178.218C478.299 178.915 477.469 179.634 476.738 180.376C476.008 181.117 475.543 181.731 475.344 182.218C474.68 183.036 474.132 183.927 473.7 184.889C473.268 185.852 472.975 186.814 472.82 187.777C472.665 188.739 472.654 189.674 472.787 190.581C472.92 191.489 473.23 192.296 473.717 193.004C474.204 193.712 474.879 194.282 475.742 194.713C476.605 195.145 477.679 195.383 478.963 195.427C479.915 195.471 480.955 195.211 482.084 194.647C483.213 194.083 484.375 193.353 485.57 192.457C486.765 191.56 487.961 190.554 489.156 189.436C489.649 188.976 490.13 188.52 490.601 188.068C490.687 187.801 490.775 187.533 490.866 187.262C491.408 185.647 492.006 184.032 492.659 182.417C493.312 180.802 493.976 179.297 494.651 177.903C495.326 176.509 495.985 175.287 496.627 174.236C497.269 173.185 497.833 172.427 498.32 171.962C498.541 171.763 498.962 171.652 499.582 171.63C500.201 171.608 500.816 171.658 501.424 171.78C502.033 171.901 502.553 172.078 502.985 172.311C503.417 172.543 503.555 172.803 503.4 173.091C503.179 173.489 502.885 173.987 502.52 174.584C502.155 175.182 501.767 175.829 501.358 176.526C500.948 177.223 500.522 177.942 500.08 178.683C499.637 179.424 499.227 180.138 498.851 180.824C498.475 181.51 498.143 182.135 497.855 182.699C497.567 183.263 497.368 183.722 497.257 184.076C498.386 182.926 499.476 182.19 500.528 181.869C501.579 181.548 502.448 181.615 503.134 182.068C503.821 182.522 504.258 183.341 504.446 184.524C504.634 185.708 504.44 187.207 503.865 189.021C503.533 190.039 503.3 190.803 503.168 191.311C503.035 191.82 502.935 192.23 502.869 192.539C502.78 193.004 502.769 193.303 502.836 193.436C502.902 193.568 503.024 193.585 503.201 193.485C503.378 193.386 503.594 193.203 503.848 192.938C504.103 192.672 504.363 192.351 504.628 191.975C504.894 191.643 505.16 191.295 505.425 190.93C505.617 190.666 505.801 190.414 505.975 190.173C505.985 190.143 505.996 190.113 506.006 190.083C506.195 189.552 506.41 189.044 506.654 188.557C507.119 187.65 507.672 186.803 508.314 186.018C508.956 185.232 509.653 184.546 510.406 183.96C511.158 183.374 511.933 182.909 512.73 182.566C513.527 182.223 514.302 182.052 515.054 182.052C516.382 182.052 517.34 182.279 517.926 182.732C518.513 183.186 518.812 183.767 518.823 184.475C518.834 185.183 518.607 185.968 518.142 186.831C517.677 187.694 517.08 188.546 516.349 189.387C515.619 190.227 514.789 190.996 513.859 191.693C512.929 192.39 512.011 192.927 511.103 193.303C511.125 193.9 511.236 194.343 511.435 194.63C511.634 194.918 511.894 195.095 512.215 195.161C512.536 195.228 512.901 195.2 513.311 195.078C513.721 194.957 514.124 194.763 514.523 194.498C514.921 194.276 515.336 193.928 515.768 193.452C516.2 192.976 516.637 192.457 517.08 191.892C517.141 191.814 517.202 191.736 517.262 191.657C517.362 190.695 517.611 189.756 518.009 188.839C518.408 187.921 518.933 187.052 519.586 186.234C520.239 185.415 520.964 184.696 521.761 184.076C522.558 183.457 523.405 182.964 524.301 182.599C525.198 182.234 526.089 182.052 526.974 182.052C527.372 182.052 527.787 182.102 528.219 182.201C528.651 182.301 529.055 182.456 529.431 182.666C529.807 182.876 530.123 183.141 530.377 183.462C530.632 183.783 530.781 184.165 530.825 184.607C530.848 185.05 530.781 185.531 530.626 186.051C530.471 186.571 530.278 187.074 530.045 187.561C529.813 188.048 529.575 188.49 529.331 188.889C529.088 189.287 528.9 189.597 528.767 189.818C528.568 190.017 528.258 190.222 527.837 190.432C527.417 190.642 526.919 190.747 526.343 190.747C525.989 190.747 525.624 190.675 525.247 190.532C524.871 190.388 524.556 190.178 524.301 189.901C524.047 189.624 523.892 189.287 523.836 188.889C523.781 188.49 523.919 188.048 524.251 187.561C524.628 187.074 525.037 186.759 525.48 186.615C525.923 186.471 526.354 186.344 526.775 186.234C526.775 186.145 526.808 186.034 526.874 185.902C526.941 185.769 526.991 185.625 527.024 185.47C527.057 185.315 527.062 185.177 527.04 185.055C527.018 184.934 526.93 184.84 526.775 184.773H526.808C526.432 184.574 526.011 184.624 525.546 184.923C525.081 185.221 524.633 185.669 524.202 186.267C523.77 186.864 523.383 187.567 523.039 188.374C522.696 189.182 522.464 189.995 522.342 190.814C522.22 191.632 522.243 192.407 522.409 193.137C522.575 193.867 522.956 194.464 523.554 194.929H523.521C524.096 195.283 524.572 195.432 524.949 195.377C525.325 195.322 525.779 195.139 526.31 194.83C526.664 194.608 527.04 194.276 527.439 193.834C527.837 193.391 528.252 192.888 528.684 192.324C529.116 191.76 529.553 191.146 529.995 190.482C530.006 190.466 530.016 190.451 530.026 190.435C530.323 189.314 530.7 188.157 531.158 186.964C531.667 185.636 532.22 184.325 532.818 183.031C533.415 181.736 534.035 180.492 534.677 179.297C535.319 178.102 535.928 177.013 536.503 176.028C537.079 175.043 537.593 174.191 538.047 173.472C538.501 172.753 538.85 172.239 539.093 171.929C539.359 171.708 539.707 171.57 540.139 171.514C540.571 171.459 541.013 171.47 541.467 171.547C541.921 171.625 542.341 171.769 542.729 171.979C543.116 172.189 543.398 172.427 543.575 172.692C543.487 173.024 543.304 173.506 543.028 174.136C542.751 174.767 542.413 175.469 542.015 176.244C541.616 177.018 541.196 177.82 540.753 178.65C540.31 179.48 539.895 180.26 539.508 180.99C539.121 181.72 538.789 182.35 538.512 182.881C538.235 183.412 538.064 183.767 537.997 183.944C538.639 183.457 539.331 183.036 540.072 182.682C540.814 182.328 541.594 182.151 542.413 182.151C543.52 182.151 544.422 182.433 545.119 182.998C545.817 183.562 546.221 184.364 546.331 185.404C546.398 186.333 546.215 187.235 545.783 188.109C545.352 188.983 544.743 189.768 543.957 190.465C543.171 191.162 542.253 191.732 541.201 192.174C540.15 192.617 539.027 192.882 537.831 192.971L539.823 194.216C540.443 194.603 541.107 194.741 541.816 194.63C542.612 194.52 543.326 194.271 543.957 193.884C544.588 193.496 545.169 193.026 545.7 192.473C546.232 191.92 546.724 191.306 547.178 190.631C547.231 190.553 547.283 190.474 547.336 190.396C547.474 189.696 547.649 189.038 547.859 188.424C548.589 186.61 549.297 184.889 549.984 183.263C550.67 181.637 551.334 180.149 551.976 178.799C552.618 177.45 553.215 176.249 553.769 175.198C554.322 174.147 554.831 173.268 555.296 172.56C555.429 172.405 555.783 172.278 556.358 172.178C556.934 172.078 557.548 172.029 558.201 172.029C558.854 172.029 559.457 172.078 560.011 172.178C560.564 172.278 560.885 172.449 560.974 172.692C560.907 172.958 560.774 173.312 560.575 173.754C560.376 174.197 560.133 174.706 559.845 175.281C559.557 175.856 559.236 176.482 558.882 177.156C558.528 177.831 558.151 178.534 557.753 179.264C555.805 182.981 554.045 186.886 552.474 190.98C552.297 191.378 552.164 191.815 552.075 192.291C551.987 192.766 551.976 193.148 552.042 193.436C552.108 193.723 552.263 193.856 552.507 193.834C552.75 193.812 553.127 193.502 553.636 192.905C553.901 192.573 554.195 192.191 554.516 191.76C554.837 191.328 555.141 190.886 555.429 190.432C555.717 189.978 555.988 189.547 556.242 189.138C556.344 188.975 556.435 188.823 556.517 188.683ZM510.937 190.083C511.247 189.906 511.601 189.68 511.999 189.403C512.398 189.127 512.818 188.767 513.261 188.324C513.704 187.926 514.069 187.473 514.357 186.964C514.645 186.455 514.833 186.023 514.921 185.669C515.01 185.315 514.971 185.1 514.805 185.022C514.639 184.945 514.335 185.127 513.892 185.57C513.604 185.857 513.311 186.206 513.012 186.615C512.713 187.025 512.431 187.434 512.166 187.843C511.9 188.253 511.656 188.64 511.435 189.005C511.214 189.37 511.048 189.652 510.937 189.851V190.083ZM539.591 186.599C539.325 186.842 539.038 187.146 538.728 187.511C538.418 187.876 538.108 188.275 537.798 188.706C537.488 189.138 537.189 189.591 536.902 190.067C536.614 190.543 536.359 191.013 536.138 191.477C537.068 191.345 537.848 191.123 538.479 190.814C539.11 190.504 539.619 190.144 540.006 189.735C540.393 189.326 540.665 188.905 540.82 188.474C540.974 188.042 541.041 187.65 541.019 187.296C540.952 186.588 540.808 186.189 540.587 186.101C540.366 186.012 540.034 186.178 539.591 186.599Z" fill="#45C8F1"/>
<path d="M33.7195 264.254C33.4062 261.991 31.6662 260.679 29.4091 260.679C26.7493 260.679 24.7457 262.618 24.7457 265.909C24.7457 269.195 26.7244 271.139 29.4091 271.139C31.8303 271.139 33.4361 269.573 33.7195 267.629L31.8601 267.619C31.6264 268.812 30.652 269.484 29.4339 269.484C27.7834 269.484 26.6001 268.246 26.6001 265.909C26.6001 263.612 27.7734 262.335 29.4389 262.335C30.6768 262.335 31.6463 263.036 31.8601 264.254H33.7195ZM35.4086 271H37.253V266.675H41.9711V271H43.8205V260.818H41.9711V265.129H37.253V260.818H35.4086V271ZM45.8265 271H52.4885V269.454H47.671V266.675H52.1056V265.129H47.671V262.364H52.4487V260.818H45.8265V271ZM63.0456 264.254C62.7324 261.991 60.9924 260.679 58.7353 260.679C56.0755 260.679 54.0719 262.618 54.0719 265.909C54.0719 269.195 56.0506 271.139 58.7353 271.139C61.1564 271.139 62.7623 269.573 63.0456 267.629L61.1863 267.619C60.9526 268.812 59.9782 269.484 58.7601 269.484C57.1096 269.484 55.9263 268.246 55.9263 265.909C55.9263 263.612 57.0996 262.335 58.7651 262.335C60.003 262.335 60.9725 263.036 61.1863 264.254H63.0456ZM64.7347 271H66.5792V267.967L67.7077 266.635L70.7454 271H72.9627L68.9904 265.387L72.9279 260.818H70.6758L66.7035 265.496H66.5792V260.818H64.7347V271ZM74.2093 271H80.5382V269.454H76.0538V260.818H74.2093V271ZM80.4176 260.818L84.1214 267.202V271H85.9609V267.202L89.6648 260.818H87.5817L85.0909 265.322H84.9915L82.5007 260.818H80.4176ZM90.9711 271H92.8155V266.675H97.5336V271H99.383V260.818H97.5336V265.129H92.8155V260.818H90.9711V271ZM110.487 265.909C110.487 262.618 108.479 260.679 105.809 260.679C103.134 260.679 101.131 262.618 101.131 265.909C101.131 269.195 103.134 271.139 105.809 271.139C106.455 271.139 107.062 271.025 107.613 270.806L108.454 271.875H110.243L108.831 270.065C109.856 269.17 110.487 267.754 110.487 265.909ZM105.182 267.58L106.559 269.389C106.321 269.454 106.072 269.484 105.809 269.484C104.153 269.484 102.985 268.226 102.985 265.909C102.985 263.592 104.153 262.335 105.809 262.335C107.469 262.335 108.633 263.592 108.633 265.909C108.633 267.162 108.295 268.102 107.718 268.703L106.853 267.58H105.182ZM112.631 271.109C113.218 271.109 113.72 270.622 113.725 270.016C113.72 269.419 113.218 268.932 112.631 268.932C112.025 268.932 111.532 269.419 111.537 270.016C111.532 270.622 112.025 271.109 112.631 271.109ZM124.378 264.254C124.064 261.991 122.324 260.679 120.067 260.679C117.407 260.679 115.404 262.618 115.404 265.909C115.404 269.195 117.383 271.139 120.067 271.139C122.488 271.139 124.094 269.573 124.378 267.629L122.518 267.619C122.285 268.812 121.31 269.484 120.092 269.484C118.442 269.484 117.258 268.246 117.258 265.909C117.258 263.612 118.432 262.335 120.097 262.335C121.335 262.335 122.305 263.036 122.518 264.254H124.378ZM135.165 265.909C135.165 262.618 133.156 260.679 130.487 260.679C127.812 260.679 125.808 262.618 125.808 265.909C125.808 269.195 127.812 271.139 130.487 271.139C133.156 271.139 135.165 269.2 135.165 265.909ZM133.31 265.909C133.31 268.226 132.147 269.484 130.487 269.484C128.831 269.484 127.663 268.226 127.663 265.909C127.663 263.592 128.831 262.335 130.487 262.335C132.147 262.335 133.31 263.592 133.31 265.909ZM136.909 260.818V271H138.678V263.99H138.773L141.587 270.97H142.909L145.723 264.005H145.818V271H147.588V260.818H145.33L142.308 268.196H142.188L139.166 260.818H136.909ZM153.673 260.341H152.097L148.816 272.531H150.392L153.673 260.341Z" fill="#8492A6"/>
<path d="M154.901 271H161.23V269.454H156.745V260.818H154.901V271ZM162.83 271H169.492V269.454H164.675V266.675H169.11V265.129H164.675V262.364H169.453V260.818H162.83V271ZM172.642 271L173.482 268.489H177.31L178.155 271H180.124L176.535 260.818H174.258L170.673 271H172.642ZM173.979 267.008L175.356 262.906H175.436L176.813 267.008H173.979ZM181.465 271H183.31V267.271H185.189L187.188 271H189.246L187.043 266.963C188.241 266.481 188.873 265.457 188.873 264.075C188.873 262.131 187.62 260.818 185.283 260.818H181.465V271ZM183.31 265.74V262.359H185C186.377 262.359 186.994 262.991 186.994 264.075C186.994 265.158 186.377 265.74 185.01 265.74H183.31ZM198.938 260.818H197.103V267.759H197.014L192.221 260.818H190.571V271H192.415V264.065H192.5L197.297 271H198.938V260.818Z" fill="#FF4949"/>
<rect y="297" width="600" height="3" fill="#FF4949"/>
</svg>
