<svg width="400" height="34" viewBox="0 0 400 34" fill="none" xmlns="http://www.w3.org/2000/svg">
<path d="M15.9596 26.9772V33.5514H12.0151C9.20398 33.5514 7.01256 32.8713 5.44078 31.5112C3.869 30.1207 3.08311 27.8689 3.08311 24.7555V14.6901H0V8.25184H3.08311V2.08563H10.8362V8.25184H15.9143V14.6901H10.8362V24.8462C10.8362 25.6019 11.0176 26.1459 11.3803 26.4784C11.743 26.8109 12.3475 26.9772 13.1939 26.9772H15.9596Z" fill="url(#paint0_linear)"/>
<path d="M36.7366 7.9798C39.6383 7.9798 41.9658 8.94705 43.7189 10.8815C45.4721 12.7858 46.3486 15.4155 46.3486 18.7707V33.5514H38.6409V19.8135C38.6409 18.1208 38.2026 16.8059 37.326 15.8689C36.4494 14.9319 35.2706 14.4634 33.7895 14.4634C32.3084 14.4634 31.1296 14.9319 30.253 15.8689C29.3764 16.8059 28.9381 18.1208 28.9381 19.8135V33.5514H21.185V0H28.9381V11.6523C29.724 10.5339 30.7971 9.64226 32.1573 8.97728C33.5175 8.31229 35.0439 7.9798 36.7366 7.9798Z" fill="url(#paint1_linear)"/>
<path d="M76.4918 20.4936C76.4918 21.219 76.4465 21.9747 76.3558 22.7606H58.8093C58.9302 24.3324 59.4289 25.5414 60.3055 26.3878C61.2123 27.2039 62.3156 27.6119 63.6153 27.6119C65.5498 27.6119 66.8949 26.7958 67.6506 25.1636H75.9024C75.4792 26.826 74.7085 28.3223 73.5901 29.6522C72.5019 30.9822 71.1266 32.025 69.4641 32.7807C67.8017 33.5363 65.9428 33.9142 63.8874 33.9142C61.4088 33.9142 59.2022 33.3852 57.2677 32.3273C55.3332 31.2693 53.8219 29.758 52.7338 27.7933C51.6456 25.8286 51.1015 23.5314 51.1015 20.9016C51.1015 18.2719 51.6305 15.9747 52.6884 14.01C53.7766 12.0453 55.2879 10.5339 57.2224 9.47601C59.1569 8.41809 61.3785 7.88912 63.8874 7.88912C66.3357 7.88912 68.512 8.40297 70.4163 9.43068C72.3206 10.4584 73.8017 11.9244 74.8596 13.8286C75.9477 15.7329 76.4918 17.9546 76.4918 20.4936ZM68.5574 18.4533C68.5574 17.1233 68.104 16.0654 67.1972 15.2795C66.2904 14.4936 65.1569 14.1007 63.7967 14.1007C62.4969 14.1007 61.3937 14.4785 60.4869 15.2342C59.6103 15.9898 59.0662 17.0629 58.8546 18.4533H68.5574Z" fill="url(#paint2_linear)"/>
<path d="M97.0403 7.9798C99.9421 7.9798 102.27 8.94705 104.023 10.8815C105.776 12.7858 106.652 15.4155 106.652 18.7707V33.5514H98.9446V19.8135C98.9446 18.1208 98.5063 16.8059 97.6298 15.8689C96.7532 14.9319 95.5743 14.4634 94.0932 14.4634C92.6121 14.4634 91.4333 14.9319 90.5567 15.8689C89.6802 16.8059 89.2419 18.1208 89.2419 19.8135V33.5514H81.4888V0H89.2419V11.6523C90.0278 10.5339 91.1008 9.64226 92.461 8.97728C93.8212 8.31229 95.3477 7.9798 97.0403 7.9798Z" fill="url(#paint3_linear)"/>
<path d="M136.796 20.4936C136.796 21.219 136.75 21.9747 136.66 22.7606H119.113C119.234 24.3324 119.733 25.5414 120.609 26.3878C121.516 27.2039 122.619 27.6119 123.919 27.6119C125.854 27.6119 127.199 26.7958 127.954 25.1636H136.206C135.783 26.826 135.012 28.3223 133.894 29.6522C132.806 30.9822 131.43 32.025 129.768 32.7807C128.105 33.5363 126.246 33.9142 124.191 33.9142C121.713 33.9142 119.506 33.3852 117.571 32.3273C115.637 31.2693 114.126 29.758 113.037 27.7933C111.949 25.8286 111.405 23.5314 111.405 20.9016C111.405 18.2719 111.934 15.9747 112.992 14.01C114.08 12.0453 115.592 10.5339 117.526 9.47601C119.461 8.41809 121.682 7.88912 124.191 7.88912C126.639 7.88912 128.816 8.40297 130.72 9.43068C132.624 10.4584 134.105 11.9244 135.163 13.8286C136.251 15.7329 136.796 17.9546 136.796 20.4936ZM128.861 18.4533C128.861 17.1233 128.408 16.0654 127.501 15.2795C126.594 14.4936 125.461 14.1007 124.1 14.1007C122.801 14.1007 121.697 14.4785 120.791 15.2342C119.914 15.9898 119.37 17.0629 119.158 18.4533H128.861Z" fill="url(#paint4_linear)"/>
<path d="M140.251 20.8563C140.251 18.2568 140.735 15.9747 141.702 14.01C142.699 12.0453 144.044 10.5339 145.737 9.47601C147.43 8.41809 149.319 7.88912 151.405 7.88912C153.188 7.88912 154.745 8.25184 156.075 8.97728C157.435 9.70271 158.478 10.6548 159.203 11.8337V8.25184H166.956V33.5514H159.203V29.9696C158.447 31.1484 157.389 32.1006 156.029 32.826C154.699 33.5514 153.143 33.9142 151.359 33.9142C149.304 33.9142 147.43 33.3852 145.737 32.3273C144.044 31.2391 142.699 29.7127 141.702 27.748C140.735 25.753 140.251 23.4558 140.251 20.8563ZM159.203 20.9016C159.203 18.9671 158.659 17.4407 157.571 16.3223C156.513 15.2039 155.213 14.6448 153.672 14.6448C152.13 14.6448 150.815 15.2039 149.727 16.3223C148.669 17.4105 148.14 18.9218 148.14 20.8563C148.14 22.7908 148.669 24.3324 149.727 25.481C150.815 26.5993 152.13 27.1585 153.672 27.1585C155.213 27.1585 156.513 26.5993 157.571 25.481C158.659 24.3626 159.203 22.8361 159.203 20.9016Z" fill="url(#paint5_linear)"/>
<path d="M171.93 20.8563C171.93 18.2568 172.414 15.9747 173.381 14.01C174.379 12.0453 175.724 10.5339 177.417 9.47601C179.109 8.41809 180.998 7.88912 183.084 7.88912C184.746 7.88912 186.258 8.23673 187.618 8.93194C189.008 9.62715 190.097 10.5642 190.882 11.743V0H198.636V33.5514H190.882V29.9243C190.157 31.1333 189.114 32.1006 187.754 32.826C186.424 33.5514 184.867 33.9142 183.084 33.9142C180.998 33.9142 179.109 33.3852 177.417 32.3273C175.724 31.2391 174.379 29.7127 173.381 27.748C172.414 25.753 171.93 23.4558 171.93 20.8563ZM190.882 20.9016C190.882 18.9671 190.338 17.4407 189.25 16.3223C188.192 15.2039 186.893 14.6448 185.351 14.6448C183.809 14.6448 182.495 15.2039 181.406 16.3223C180.348 17.4105 179.82 18.9218 179.82 20.8563C179.82 22.7908 180.348 24.3324 181.406 25.481C182.495 26.5993 183.809 27.1585 185.351 27.1585C186.893 27.1585 188.192 26.5993 189.25 25.481C190.338 24.3626 190.882 22.8361 190.882 20.9016Z" fill="url(#paint6_linear)"/>
<path d="M212.904 0V33.5514H205.151V0H212.904Z" fill="url(#paint7_linear)"/>
<path d="M243.279 20.4936C243.279 21.219 243.233 21.9747 243.143 22.7606H225.596C225.717 24.3324 226.216 25.5414 227.092 26.3878C227.999 27.2039 229.102 27.6119 230.402 27.6119C232.337 27.6119 233.682 26.7958 234.437 25.1636H242.689C242.266 26.826 241.495 28.3223 240.377 29.6522C239.289 30.9822 237.913 32.025 236.251 32.7807C234.588 33.5363 232.73 33.9142 230.674 33.9142C228.196 33.9142 225.989 33.3852 224.055 32.3273C222.12 31.2693 220.609 29.758 219.521 27.7933C218.432 25.8286 217.888 23.5314 217.888 20.9016C217.888 18.2719 218.417 15.9747 219.475 14.01C220.563 12.0453 222.075 10.5339 224.009 9.47601C225.944 8.41809 228.165 7.88912 230.674 7.88912C233.122 7.88912 235.299 8.40297 237.203 9.43068C239.107 10.4584 240.588 11.9244 241.646 13.8286C242.735 15.7329 243.279 17.9546 243.279 20.4936ZM235.344 18.4533C235.344 17.1233 234.891 16.0654 233.984 15.2795C233.077 14.4936 231.944 14.1007 230.583 14.1007C229.284 14.1007 228.18 14.4785 227.274 15.2342C226.397 15.9898 225.853 17.0629 225.641 18.4533H235.344Z" fill="url(#paint8_linear)"/>
<path d="M258.568 33.9142C256.361 33.9142 254.396 33.5363 252.674 32.7807C250.951 32.025 249.59 30.9973 248.593 29.6976C247.595 28.3676 247.036 26.8865 246.915 25.2543H254.578C254.668 26.1308 255.077 26.8412 255.802 27.3852C256.527 27.9293 257.419 28.2013 258.477 28.2013C259.444 28.2013 260.185 28.02 260.699 27.6573C261.243 27.2643 261.515 26.7656 261.515 26.1611C261.515 25.4356 261.137 24.9067 260.381 24.5742C259.626 24.2114 258.401 23.8185 256.709 23.3953C254.895 22.9722 253.384 22.5339 252.175 22.0805C250.966 21.5969 249.923 20.8563 249.046 19.8588C248.17 18.8311 247.731 17.4558 247.731 15.7329C247.731 14.282 248.124 12.9672 248.91 11.7883C249.726 10.5793 250.905 9.62715 252.447 8.93194C254.019 8.23673 255.878 7.88912 258.024 7.88912C261.197 7.88912 263.691 8.67501 265.505 10.2468C267.349 11.8186 268.406 13.9042 268.678 16.5037H261.515C261.394 15.6271 261.001 14.9319 260.336 14.4181C259.701 13.9042 258.855 13.6473 257.797 13.6473C256.89 13.6473 256.195 13.8286 255.711 14.1914C255.228 14.5238 254.986 14.9924 254.986 15.5969C254.986 16.3223 255.364 16.8664 256.119 17.2291C256.905 17.5918 258.114 17.9546 259.747 18.3173C261.621 18.8009 263.147 19.2845 264.326 19.7681C265.505 20.2215 266.532 20.9772 267.409 22.0351C268.316 23.0628 268.784 24.4533 268.815 26.2064C268.815 27.6875 268.391 29.0175 267.545 30.1963C266.729 31.3449 265.535 32.2517 263.963 32.9167C262.422 33.5817 260.623 33.9142 258.568 33.9142Z" fill="url(#paint9_linear)"/>
<path d="M284.757 33.9142C282.55 33.9142 280.585 33.5363 278.863 32.7807C277.14 32.025 275.779 30.9973 274.782 29.6976C273.785 28.3676 273.225 26.8865 273.104 25.2543H280.767C280.858 26.1308 281.266 26.8412 281.991 27.3852C282.716 27.9293 283.608 28.2013 284.666 28.2013C285.633 28.2013 286.374 28.02 286.888 27.6573C287.432 27.2643 287.704 26.7656 287.704 26.1611C287.704 25.4356 287.326 24.9067 286.57 24.5742C285.815 24.2114 284.591 23.8185 282.898 23.3953C281.084 22.9722 279.573 22.5339 278.364 22.0805C277.155 21.5969 276.112 20.8563 275.235 19.8588C274.359 18.8311 273.921 17.4558 273.921 15.7329C273.921 14.282 274.313 12.9672 275.099 11.7883C275.915 10.5793 277.094 9.62715 278.636 8.93194C280.208 8.23673 282.067 7.88912 284.213 7.88912C287.386 7.88912 289.88 8.67501 291.694 10.2468C293.538 11.8186 294.596 13.9042 294.868 16.5037H287.704C287.583 15.6271 287.19 14.9319 286.525 14.4181C285.89 13.9042 285.044 13.6473 283.986 13.6473C283.079 13.6473 282.384 13.8286 281.9 14.1914C281.417 14.5238 281.175 14.9924 281.175 15.5969C281.175 16.3223 281.553 16.8664 282.308 17.2291C283.094 17.5918 284.303 17.9546 285.936 18.3173C287.81 18.8009 289.336 19.2845 290.515 19.7681C291.694 20.2215 292.721 20.9772 293.598 22.0351C294.505 23.0628 294.973 24.4533 295.004 26.2064C295.004 27.6875 294.58 29.0175 293.734 30.1963C292.918 31.3449 291.724 32.2517 290.152 32.9167C288.611 33.5817 286.812 33.9142 284.757 33.9142Z" fill="url(#paint10_linear)"/>
<path d="M304.281 33.9142C302.921 33.9142 301.802 33.5212 300.926 32.7353C300.079 31.9192 299.656 30.9217 299.656 29.7429C299.656 28.5338 300.079 27.5213 300.926 26.7051C301.802 25.889 302.921 25.481 304.281 25.481C305.611 25.481 306.699 25.889 307.545 26.7051C308.422 27.5213 308.86 28.5338 308.86 29.7429C308.86 30.9217 308.422 31.9192 307.545 32.7353C306.699 33.5212 305.611 33.9142 304.281 33.9142Z" fill="url(#paint11_linear)"/>
<path d="M312.815 20.8563C312.815 18.2568 313.299 15.9747 314.266 14.01C315.263 12.0453 316.608 10.5339 318.301 9.47601C319.994 8.41809 321.883 7.88912 323.969 7.88912C325.631 7.88912 327.142 8.23673 328.503 8.93194C329.893 9.62715 330.981 10.5642 331.767 11.743V0H339.52V33.5514H331.767V29.9243C331.042 31.1333 329.999 32.1006 328.639 32.826C327.309 33.5514 325.752 33.9142 323.969 33.9142C321.883 33.9142 319.994 33.3852 318.301 32.3273C316.608 31.2391 315.263 29.7127 314.266 27.748C313.299 25.753 312.815 23.4558 312.815 20.8563ZM331.767 20.9016C331.767 18.9671 331.223 17.4407 330.135 16.3223C329.077 15.2039 327.777 14.6448 326.236 14.6448C324.694 14.6448 323.379 15.2039 322.291 16.3223C321.233 17.4105 320.704 18.9218 320.704 20.8563C320.704 22.7908 321.233 24.3324 322.291 25.481C323.379 26.5993 324.694 27.1585 326.236 27.1585C327.777 27.1585 329.077 26.5993 330.135 25.481C331.223 24.3626 331.767 22.8361 331.767 20.9016Z" fill="url(#paint12_linear)"/>
<path d="M369.885 20.4936C369.885 21.219 369.839 21.9747 369.749 22.7606H352.202C352.323 24.3324 352.822 25.5414 353.698 26.3878C354.605 27.2039 355.709 27.6119 357.008 27.6119C358.943 27.6119 360.288 26.7958 361.043 25.1636H369.295C368.872 26.826 368.101 28.3223 366.983 29.6522C365.895 30.9822 364.52 32.025 362.857 32.7807C361.195 33.5363 359.336 33.9142 357.28 33.9142C354.802 33.9142 352.595 33.3852 350.661 32.3273C348.726 31.2693 347.215 29.758 346.127 27.7933C345.039 25.8286 344.494 23.5314 344.494 20.9016C344.494 18.2719 345.023 15.9747 346.081 14.01C347.169 12.0453 348.681 10.5339 350.615 9.47601C352.55 8.41809 354.771 7.88912 357.28 7.88912C359.729 7.88912 361.905 8.40297 363.809 9.43068C365.713 10.4584 367.195 11.9244 368.253 13.8286C369.341 15.7329 369.885 17.9546 369.885 20.4936ZM361.95 18.4533C361.95 17.1233 361.497 16.0654 360.59 15.2795C359.683 14.4936 358.55 14.1007 357.19 14.1007C355.89 14.1007 354.787 14.4785 353.88 15.2342C353.003 15.9898 352.459 17.0629 352.248 18.4533H361.95Z" fill="url(#paint13_linear)"/>
<path d="M386.262 26.2971L391.748 8.25184H400L391.023 33.5514H381.456L372.479 8.25184H380.776L386.262 26.2971Z" fill="url(#paint14_linear)"/>
<defs>
<linearGradient id="paint0_linear" x1="402.572" y1="17.6828" x2="-0.951953" y2="17.6827" gradientUnits="userSpaceOnUse">
<stop stop-color="#FF0000"/>
<stop offset="1" stop-color="#FF619A"/>
</linearGradient>
<linearGradient id="paint1_linear" x1="402.572" y1="17.6828" x2="-0.951953" y2="17.6827" gradientUnits="userSpaceOnUse">
<stop stop-color="#FF0000"/>
<stop offset="1" stop-color="#FF619A"/>
</linearGradient>
<linearGradient id="paint2_linear" x1="402.572" y1="17.6828" x2="-0.951953" y2="17.6827" gradientUnits="userSpaceOnUse">
<stop stop-color="#FF0000"/>
<stop offset="1" stop-color="#FF619A"/>
</linearGradient>
<linearGradient id="paint3_linear" x1="402.572" y1="17.6828" x2="-0.951953" y2="17.6827" gradientUnits="userSpaceOnUse">
<stop stop-color="#FF0000"/>
<stop offset="1" stop-color="#FF619A"/>
</linearGradient>
<linearGradient id="paint4_linear" x1="402.572" y1="17.6828" x2="-0.951953" y2="17.6827" gradientUnits="userSpaceOnUse">
<stop stop-color="#FF0000"/>
<stop offset="1" stop-color="#FF619A"/>
</linearGradient>
<linearGradient id="paint5_linear" x1="402.572" y1="17.6828" x2="-0.951953" y2="17.6827" gradientUnits="userSpaceOnUse">
<stop stop-color="#FF0000"/>
<stop offset="1" stop-color="#FF619A"/>
</linearGradient>
<linearGradient id="paint6_linear" x1="402.572" y1="17.6828" x2="-0.951953" y2="17.6827" gradientUnits="userSpaceOnUse">
<stop stop-color="#FF0000"/>
<stop offset="1" stop-color="#FF619A"/>
</linearGradient>
<linearGradient id="paint7_linear" x1="402.572" y1="17.6828" x2="-0.951953" y2="17.6827" gradientUnits="userSpaceOnUse">
<stop stop-color="#FF0000"/>
<stop offset="1" stop-color="#FF619A"/>
</linearGradient>
<linearGradient id="paint8_linear" x1="402.572" y1="17.6828" x2="-0.951953" y2="17.6827" gradientUnits="userSpaceOnUse">
<stop stop-color="#FF0000"/>
<stop offset="1" stop-color="#FF619A"/>
</linearGradient>
<linearGradient id="paint9_linear" x1="402.572" y1="17.6828" x2="-0.951953" y2="17.6827" gradientUnits="userSpaceOnUse">
<stop stop-color="#FF0000"/>
<stop offset="1" stop-color="#FF619A"/>
</linearGradient>
<linearGradient id="paint10_linear" x1="402.572" y1="17.6828" x2="-0.951953" y2="17.6827" gradientUnits="userSpaceOnUse">
<stop stop-color="#FF0000"/>
<stop offset="1" stop-color="#FF619A"/>
</linearGradient>
<linearGradient id="paint11_linear" x1="402.572" y1="17.6828" x2="-0.951953" y2="17.6827" gradientUnits="userSpaceOnUse">
<stop stop-color="#FF0000"/>
<stop offset="1" stop-color="#FF619A"/>
</linearGradient>
<linearGradient id="paint12_linear" x1="402.572" y1="17.6828" x2="-0.951953" y2="17.6827" gradientUnits="userSpaceOnUse">
<stop stop-color="#FF0000"/>
<stop offset="1" stop-color="#FF619A"/>
</linearGradient>
<linearGradient id="paint13_linear" x1="402.572" y1="17.6828" x2="-0.951953" y2="17.6827" gradientUnits="userSpaceOnUse">
<stop stop-color="#FF0000"/>
<stop offset="1" stop-color="#FF619A"/>
</linearGradient>
<linearGradient id="paint14_linear" x1="402.572" y1="17.6828" x2="-0.951953" y2="17.6827" gradientUnits="userSpaceOnUse">
<stop stop-color="#FF0000"/>
<stop offset="1" stop-color="#FF619A"/>
</linearGradient>
</defs>
</svg>
