<svg id="Layer_1" data-name="Layer 1" xmlns="http://www.w3.org/2000/svg" viewBox="0 0 400 412.82"><defs><style>.cls-1{fill:#fff;}.cls-2{fill:#fcfbfa;}.cls-3{fill:#252526;}.cls-4{fill:#e0e0e0;}.cls-5{fill:#56555c;}</style></defs><title>Artboard 23</title><path class="cls-1" d="M199.94,412.82A160.34,160.34,0,0,1,50.75,311.23c-3-7.62-6.3-15.51-8.08-23.63l-1.8-12.8c-15.49-6.28-26.4-20.94-30.12-35.46C6.23,221.66.69,195.63,0,172c-.53-18.77,10.38-36.4,27.17-43.87,11.67-5.2,27.35-9.55,46.73-13,12-26.56,25.94-49.75,40.68-67.63C140.6,16,169.31,0,199.94,0s59.33,16,85.33,47.52c14.6,17.7,28.42,40.65,40.36,66.95,19.38,3.31,35.21,7.67,47.19,13A45.67,45.67,0,0,1,400,170.66c-.78,27.25-7.76,57.11-10.73,68.68-3.74,14.63-14.79,29.41-30.43,35.6L357,287.59c-1.78,8.09-4.88,16-7.86,23.58a160.22,160.22,0,0,1-149.2,101.65Z"/><path class="cls-2" d="M198.9,30.14C270,30.14,327.59,182.9,327.59,254A128.69,128.69,0,1,1,70.2,254C70.2,182.9,127.82,30.14,198.9,30.14Z"/><path class="cls-3" d="M362.08,153.43l-52.5,18.52s8.13,24.71,8.2,24.88,52.29-6.73,52.29-6.73Z"/><path class="cls-3" d="M35.71,153.43l52.5,18.52s-8.13,24.71-8.2,24.88-52.29-6.73-52.29-6.73Z"/><path class="cls-4" d="M144.87,149.06c13.19.2,16.07,11.17,16.55,13.78a215.77,215.77,0,0,1,3.28,27.06,34.65,34.65,0,0,1-.69,7.57c-.66-6.54-1.59-12.78-2.59-18.19-.48-2.6-3.36-13.58-16.55-13.78-8-.12-33.55.8-59,4.48,1.84-5.74,3.83-11.51,6-17.26A445.49,445.49,0,0,1,144.87,149.06Z"/><path class="cls-4" d="M327.34,248.28c-46.35-2.39-85.94-17.16-94.88-22.53-7-3.34-15.85-10.39-18.41-28-1.71,19.45,2,37.18,20.22,45.93,1.35.81,36.32,18.12,92.74,21.08.29-3.54.45-7.11.45-10.73C327.47,252.14,327.42,250.23,327.34,248.28Z"/><path class="cls-4" d="M70.58,248.28c46.35-2.39,85.94-17.16,94.88-22.53,7-3.34,15.85-10.39,18.41-28,1.71,19.45-2,37.18-20.22,45.93-1.35.81-36.32,18.12-92.74,21.08-.29-3.54-.45-7.11-.45-10.73C70.45,252.14,70.5,250.23,70.58,248.28Z"/><path class="cls-4" d="M252.78,149.06c-13.19.2-16.07,11.17-16.55,13.78A215.77,215.77,0,0,0,233,189.89a34.65,34.65,0,0,0,.69,7.57c.66-6.54,1.59-12.78,2.59-18.19.48-2.6,3.36-13.58,16.55-13.78,8-.12,33.55.8,59,4.48-1.84-5.74-3.83-11.51-6-17.26A445.49,445.49,0,0,0,252.78,149.06Z"/><path class="cls-5" d="M86.32,135.13C99,104.47,114.12,78,130.19,58.48,152,32,175.14,18.57,198.9,18.57s46.86,13.42,68.7,39.9c16.09,19.51,31.26,46,43.87,76.66l.62,1.49-1.6-.21c-4.45-.59-8.09-1-12.53-1.5l-.54-.06-.22-.5C283,101.16,258.71,57.82,227.35,39.7c-9.48-5.48-19.06-8.26-28.45-8.26s-19,2.78-28.45,8.26c-31.31,18.09-55.52,61.28-69.84,94.65l-.22.5-.54.06c-4.46.48-8.1.91-12.53,1.5l-1.6.21Z"/><path class="cls-5" d="M328.82,232.25c-3.48-.09-7-.23-10.48-.43l-1.08-.06-.14-1.07c-3.09-24.4-10.15-53-19.87-80.42l-.71-2,2.11.28c4,.54,7.88,1.12,11.58,1.75l.76.13.25.73c9.33,27.41,16,55.69,18.89,79.64l.18,1.49Z"/><path class="cls-3" d="M317.34,170.43c-1.88-6.43-3.91-12.87-6.09-19.27l-.25-.73-.76-.13c-3.7-.63-7.6-1.21-11.58-1.75l-2.11-.28.71,2c2.16,6.09,4.17,12.23,6.05,18.37C310.06,169.4,313.88,169.94,317.34,170.43Z"/><path class="cls-5" d="M68.52,230.24c2.85-24,9.56-52.24,18.89-79.64l.25-.73.76-.13c3.7-.62,7.59-1.21,11.58-1.75l2.11-.28-.71,2c-9.73,27.45-16.78,56-19.87,80.42l-.14,1.07-1.08.06c-3.48.2-7,.34-10.47.43l-1.5,0Z"/><path class="cls-3" d="M88.43,149.73l-.76.13-.25.73c-2.18,6.41-4.22,12.87-6.1,19.31,6.53-.83,8.43-.73,13.88-1.31,1.92-6.31,4-12.63,6.21-18.88l.71-2L100,148C96,148.52,92.13,149.1,88.43,149.73Z"/><path class="cls-5" d="M198.9,394.25A140.34,140.34,0,0,1,68.33,305.37a142.07,142.07,0,0,1-9.59-57.12l0-.88.88,0c4.58-.1,7.71-.24,11-.41l1-.05,0,1a127.72,127.72,0,0,0,8.5,52.23A127.41,127.41,0,0,0,290.81,342.2a126.21,126.21,0,0,0,26.84-42,127.66,127.66,0,0,0,8.5-52.24l0-1,1,.05c4.55.23,7.69.33,11,.41l.88,0,0,.88a142.09,142.09,0,0,1-9.59,57.07A140.19,140.19,0,0,1,198.9,394.25Z"/><path class="cls-3" d="M72,264.28a138.12,138.12,0,0,1-.34-16.81l0-1-1,.05c-3.29.17-6.42.3-11,.41l-.88,0,0,.88a149.06,149.06,0,0,0,.38,16.87h.42c4.23-.07,8.36-.19,12.28-.38Z"/><path class="cls-3" d="M339,247.37l-.88,0c-3.31-.08-6.45-.17-11-.41l-1-.05,0,1a138.07,138.07,0,0,1-.32,16.65l12.84.55a148.91,148.91,0,0,0,.38-16.86Z"/><path class="cls-3" d="M346.25,250.67a305.5,305.5,0,0,1-79.48-10.24,191.73,191.73,0,0,1-32.49-11.81l-.26-.19c-21.85-10.47-22.71-31.49-20.68-50.63.51-4.83-1.25-11.24-6.36-14.63a14.46,14.46,0,0,0-16.06,0c-5.1,3.39-6.87,9.77-6.36,14.59,2,19.16,1.17,40.17-20.68,50.64l-.26.12a191.26,191.26,0,0,1-32.49,11.94,305.51,305.51,0,0,1-79.48,10.24h-.12A24.54,24.54,0,0,1,28,232.1c-4.11-16-9.65-40.14-10.29-62.72a22.29,22.29,0,0,1,13.19-21.06c30.18-13.44,91.25-18.43,117.3-18.06,9.58.14,17.94,3.59,24.2,10A65,65,0,0,1,199,134.11a65,65,0,0,1,26.54,6.12c4.43-4.53,12.17-9.85,24.2-10,15.63-.22,82.88,2.68,117.3,18a22.18,22.18,0,0,1,13.19,21c-.65,22.63-6.18,46.86-10.29,62.9a24.54,24.54,0,0,1-23.52,18.58ZM252.94,150c-12.65.19-15.25,10.87-15.65,13A216.32,216.32,0,0,0,234,189.94c-.12,10.32,3.58,17.4,11,21,27.6,12.31,59.68,18.39,98.06,18.58a6.51,6.51,0,0,0,6.34-4.85c3.65-14.26,8.57-35.46,9.13-54.94a4.58,4.58,0,0,0-2.72-4.33C329.48,153.7,273.38,149.68,252.94,150ZM42.1,165.44a4.58,4.58,0,0,0-2.72,4.33c.56,19.44,5.48,40.67,9.13,54.94a6.49,6.49,0,0,0,6.31,4.85c38.41-.19,70.51-6.28,98.13-18.6,7.39-3.6,11.08-10.69,11-21.05a214.6,214.6,0,0,0-3.3-26.9c-.39-2.14-3-12.82-15.65-13C133,149.81,71.75,152.23,42.1,165.44Z"/></svg>